<svg viewBox="0 0 238 256" xmlns="http://www.w3.org/2000/svg">
<rect width="238" height="256" fill="#000000" fill-opacity="1"/>
<polygon points="0.000000,0.000000,238.000000,256.000000,0.000000,256.000000," fill="#eff5f6" fill-opacity="1.000000" />
<polygon points="0.000000,0.000000,238.000000,256.000000,238.000000,0.000000," fill="#fdfdfe" fill-opacity="0.980392" />
<polygon points="75.000000,97.000000,231.000000,136.000000,119.000000,7.000000," fill="#80573f" fill-opacity="0.847059" />
<polygon points="22.000000,223.000000,137.000000,15.000000,179.000000,217.000000," fill="#504040" fill-opacity="0.901961" />
<polygon points="180.000000,239.000000,7.000000,238.000000,149.000000,51.000000," fill="#403440" fill-opacity="1.000000" />
<polygon points="58.000000,243.000000,105.000000,137.000000,21.000000,251.000000," fill="#f0efef" fill-opacity="0.992157" />
<polygon points="148.000000,226.000000,217.000000,111.000000,225.000000,172.000000," fill="#040f19" fill-opacity="0.309804" />
<polygon points="212.000000,197.000000,189.000000,117.000000,232.000000,147.000000," fill="#0f0921" fill-opacity="0.525490" />
<polygon points="187.000000,63.000000,140.000000,224.000000,142.000000,32.000000," fill="#020000" fill-opacity="0.360784" />
<polygon points="74.000000,120.000000,107.000000,8.000000,195.000000,120.000000," fill="#2c222a" fill-opacity="0.498039" />
<polygon points="90.000000,254.000000,145.000000,237.000000,132.000000,199.000000," fill="#efeff6" fill-opacity="1.000000" />
<polygon points="218.000000,192.000000,113.000000,82.000000,151.000000,233.000000," fill="#fffdc2" fill-opacity="0.184314" />
<polygon points="71.000000,179.000000,105.000000,169.000000,105.000000,130.000000," fill="#ffffff" fill-opacity="0.498039" />
<polygon points="85.000000,241.000000,48.000000,192.000000,216.000000,147.000000," fill="#020105" fill-opacity="0.239216" />
<polygon points="158.000000,35.000000,108.000000,192.000000,112.000000,34.000000," fill="#fff68b" fill-opacity="0.247059" />
<polygon points="235.000000,2.000000,231.000000,163.000000,211.000000,147.000000," fill="#fffff5" fill-opacity="0.498039" />
<polygon points="164.000000,137.000000,147.000000,189.000000,186.000000,250.000000," fill="#d7c782" fill-opacity="0.247059" />
<polygon points="109.000000,129.000000,74.000000,241.000000,195.000000,86.000000," fill="#261f1f" fill-opacity="0.498039" />
<polygon points="131.000000,130.000000,118.000000,231.000000,60.000000,47.000000," fill="#bfbd7f" fill-opacity="0.184314" />
<polygon points="109.000000,160.000000,175.000000,130.000000,96.000000,15.000000," fill="#0f0101" fill-opacity="0.231373" />
<polygon points="155.000000,68.000000,119.000000,0.000000,235.000000,138.000000," fill="#6f766f" fill-opacity="0.494118" />
<polygon points="134.000000,40.000000,89.000000,156.000000,33.000000,196.000000," fill="#010101" fill-opacity="0.372549" />
<polygon points="100.000000,159.000000,0.000000,153.000000,119.000000,96.000000," fill="#fffff4" fill-opacity="0.117647" />
<polygon points="233.000000,199.000000,198.000000,256.000000,155.000000,144.000000," fill="#ffffff" fill-opacity="0.498039" />
<polygon points="181.000000,193.000000,182.000000,252.000000,172.000000,175.000000," fill="#695f80" fill-opacity="0.364706" />
<polygon points="94.000000,27.000000,227.000000,136.000000,216.000000,161.000000," fill="#022200" fill-opacity="0.121569" />
<polygon points="82.000000,72.000000,76.000000,95.000000,179.000000,48.000000," fill="#000104" fill-opacity="0.247059" />
<polygon points="46.000000,103.000000,107.000000,55.000000,8.000000,56.000000," fill="#fcfbfa" fill-opacity="0.623529" />
<polygon points="165.000000,22.000000,189.000000,97.000000,189.000000,59.000000," fill="#f7fcf9" fill-opacity="0.498039" />
</svg>