<svg viewBox="0 0 238 256" xmlns="http://www.w3.org/2000/svg">
<rect width="238" height="256" fill="#000000" fill-opacity="1"/>
<polygon points="0.000000,0.000000,238.000000,256.000000,0.000000,256.000000," fill="#eff5f6" fill-opacity="1.000000" />
<polygon points="0.000000,0.000000,238.000000,256.000000,238.000000,0.000000," fill="#f7fcfb" fill-opacity="0.984314" />
<polygon points="75.000000,99.000000,232.000000,136.000000,119.000000,3.000000," fill="#805e3f" fill-opacity="0.768627" />
<polygon points="22.000000,223.000000,135.000000,15.000000,179.000000,218.000000," fill="#4e4340" fill-opacity="0.874510" />
<polygon points="179.000000,239.000000,6.000000,238.000000,149.000000,49.000000," fill="#483d40" fill-opacity="1.000000" />
<polygon points="58.000000,243.000000,105.000000,137.000000,21.000000,251.000000," fill="#dfecee" fill-opacity="0.937255" />
<polygon points="147.000000,225.000000,217.000000,111.000000,225.000000,171.000000," fill="#805d50" fill-opacity="0.372549" />
<polygon points="212.000000,195.000000,189.000000,117.000000,231.000000,148.000000," fill="#0b110e" fill-opacity="0.505882" />
<polygon points="187.000000,63.000000,139.000000,224.000000,142.000000,33.000000," fill="#030601" fill-opacity="0.372549" />
<polygon points="74.000000,120.000000,105.000000,12.000000,207.000000,121.000000," fill="#2e2b25" fill-opacity="0.490196" />
<polygon points="90.000000,254.000000,145.000000,237.000000,132.000000,199.000000," fill="#efeff4" fill-opacity="0.984314" />
<polygon points="218.000000,191.000000,112.000000,84.000000,152.000000,234.000000," fill="#fefad7" fill-opacity="0.133333" />
<polygon points="67.000000,177.000000,106.000000,169.000000,109.000000,131.000000," fill="#dbb8fd" fill-opacity="0.435294" />
</svg>