<svg viewBox="0 0 481 464" xmlns="http://www.w3.org/2000/svg">
<rect width="481" height="464" fill="#000000" fill-opacity="1"/>
<ellipse cx="240.500000" cy="268.500000" rx="240.500000" ry="240.500000" fill="#7f7f7f" fill-opacity="1.000000" />
<ellipse cx="365.500000" cy="68.500000" rx="115.500000" ry="115.500000" fill="#f8f7f9" fill-opacity="1.000000" />
<ellipse cx="165.000000" cy="397.000000" rx="165.000000" ry="165.000000" fill="#503043" fill-opacity="1.000000" />
<ellipse cx="180.500000" cy="51.500000" rx="180.500000" ry="180.500000" fill="#5f5f5f" fill-opacity="0.945098" />
<ellipse cx="419.000000" cy="236.000000" rx="62.000000" ry="62.000000" fill="#fbf7f7" fill-opacity="1.000000" />
<ellipse cx="405.000000" cy="421.000000" rx="70.000000" ry="70.000000" fill="#e8b55b" fill-opacity="0.627451" />
<ellipse cx="241.000000" cy="172.000000" rx="89.000000" ry="89.000000" fill="#ffffff" fill-opacity="0.619608" />
<ellipse cx="373.500000" cy="169.500000" rx="46.500000" ry="46.500000" fill="#080108" fill-opacity="0.498039" />
<ellipse cx="47.000000" cy="243.000000" rx="47.000000" ry="47.000000" fill="#ffffff" fill-opacity="0.937255" />
<ellipse cx="33.000000" cy="151.000000" rx="33.000000" ry="33.000000" fill="#fafafa" fill-opacity="1.000000" />
<ellipse cx="24.500000" cy="94.500000" rx="24.500000" ry="24.500000" fill="#fcfcfc" fill-opacity="1.000000" />
<ellipse cx="373.000000" cy="88.000000" rx="57.000000" ry="57.000000" fill="#403131" fill-opacity="0.866667" />
<ellipse cx="121.000000" cy="100.000000" rx="89.000000" ry="89.000000" fill="#000000" fill-opacity="0.498039" />
<ellipse cx="279.500000" cy="-121.500000" rx="195.500000" ry="195.500000" fill="#090603" fill-opacity="0.498039" />
<ellipse cx="222.000000" cy="452.000000" rx="27.000000" ry="27.000000" fill="#f8bdca" fill-opacity="0.866667" />
<ellipse cx="30.500000" cy="6.500000" rx="30.500000" ry="30.500000" fill="#efeff0" fill-opacity="0.858824" />
<ellipse cx="60.000000" cy="423.000000" rx="60.000000" ry="60.000000" fill="#986f30" fill-opacity="0.749020" />
<ellipse cx="391.000000" cy="365.000000" rx="90.000000" ry="90.000000" fill="#868060" fill-opacity="0.729412" />
<ellipse cx="186.000000" cy="334.000000" rx="43.000000" ry="43.000000" fill="#0f0820" fill-opacity="0.988235" />
<ellipse cx="232.000000" cy="233.000000" rx="68.000000" ry="68.000000" fill="#fefeff" fill-opacity="0.498039" />
<ellipse cx="190.000000" cy="102.000000" rx="30.000000" ry="30.000000" fill="#9e9d7f" fill-opacity="0.647059" />
<ellipse cx="451.500000" cy="131.500000" rx="29.500000" ry="29.500000" fill="#fdfcfc" fill-opacity="1.000000" />
<ellipse cx="204.500000" cy="308.500000" rx="84.500000" ry="84.500000" fill="#010027" fill-opacity="0.196078" />
<ellipse cx="279.500000" cy="150.500000" rx="17.500000" ry="17.500000" fill="#414242" fill-opacity="0.874510" />
<ellipse cx="94.000000" cy="300.000000" rx="41.000000" ry="41.000000" fill="#81817f" fill-opacity="0.486275" />
<ellipse cx="22.000000" cy="57.000000" rx="22.000000" ry="22.000000" fill="#f0f0f0" fill-opacity="0.874510" />
<ellipse cx="346.000000" cy="299.000000" rx="30.000000" ry="30.000000" fill="#dfeff0" fill-opacity="0.560784" />
<ellipse cx="351.500000" cy="503.500000" rx="96.500000" ry="96.500000" fill="#db9d40" fill-opacity="0.443137" />
<ellipse cx="368.500000" cy="32.500000" rx="30.500000" ry="30.500000" fill="#96947f" fill-opacity="0.858824" />
<ellipse cx="22.000000" cy="181.000000" rx="22.000000" ry="22.000000" fill="#fdfdfd" fill-opacity="1.000000" />
<ellipse cx="229.000000" cy="281.000000" rx="56.000000" ry="56.000000" fill="#bff67f" fill-opacity="0.227451" />
<ellipse cx="439.000000" cy="175.000000" rx="42.000000" ry="42.000000" fill="#fefdfd" fill-opacity="1.000000" />
<ellipse cx="219.500000" cy="322.500000" rx="9.500000" ry="9.500000" fill="#a6a59f" fill-opacity="1.000000" />
<ellipse cx="271.500000" cy="99.500000" rx="39.500000" ry="39.500000" fill="#ffffff" fill-opacity="0.247059" />
<ellipse cx="378.500000" cy="146.500000" rx="49.500000" ry="49.500000" fill="#030002" fill-opacity="0.498039" />
<ellipse cx="262.000000" cy="390.000000" rx="20.000000" ry="20.000000" fill="#f9bfff" fill-opacity="0.372549" />
<ellipse cx="196.000000" cy="424.000000" rx="44.000000" ry="44.000000" fill="#7f5cff" fill-opacity="0.247059" />
<ellipse cx="22.000000" cy="351.000000" rx="22.000000" ry="22.000000" fill="#fffd3f" fill-opacity="0.498039" />
<ellipse cx="393.500000" cy="289.500000" rx="14.500000" ry="14.500000" fill="#000000" fill-opacity="0.498039" />
<ellipse cx="100.500000" cy="160.500000" rx="49.500000" ry="49.500000" fill="#000000" fill-opacity="0.498039" />
<ellipse cx="131.000000" cy="240.000000" rx="23.000000" ry="23.000000" fill="#000b0b" fill-opacity="0.749020" />
<ellipse cx="301.500000" cy="286.500000" rx="25.500000" ry="25.500000" fill="#03000b" fill-opacity="0.447059" />
<ellipse cx="88.000000" cy="224.000000" rx="21.000000" ry="21.000000" fill="#ffffff" fill-opacity="0.498039" />
<ellipse cx="432.500000" cy="20.500000" rx="48.500000" ry="48.500000" fill="#fdffff" fill-opacity="0.964706" />
<ellipse cx="208.000000" cy="151.000000" rx="16.000000" ry="16.000000" fill="#020202" fill-opacity="0.584314" />
<ellipse cx="50.500000" cy="313.500000" rx="34.500000" ry="34.500000" fill="#364020" fill-opacity="0.980392" />
<ellipse cx="459.000000" cy="283.000000" rx="22.000000" ry="22.000000" fill="#ffffff" fill-opacity="0.960784" />
<ellipse cx="148.000000" cy="178.000000" rx="14.000000" ry="14.000000" fill="#eef0f0" fill-opacity="0.498039" />
<ellipse cx="407.000000" cy="40.000000" rx="45.000000" ry="45.000000" fill="#806f6f" fill-opacity="0.486275" />
<ellipse cx="64.500000" cy="115.500000" rx="25.500000" ry="25.500000" fill="#1e1e20" fill-opacity="0.690196" />
<ellipse cx="398.000000" cy="187.000000" rx="13.000000" ry="13.000000" fill="#9f7f9f" fill-opacity="1.000000" />
<ellipse cx="349.500000" cy="221.500000" rx="19.500000" ry="19.500000" fill="#ecece8" fill-opacity="0.749020" />
<ellipse cx="339.500000" cy="424.500000" rx="17.500000" ry="17.500000" fill="#e0dfee" fill-opacity="0.556863" />
<ellipse cx="131.500000" cy="393.500000" rx="44.500000" ry="44.500000" fill="#180008" fill-opacity="0.247059" />
<ellipse cx="83.000000" cy="299.000000" rx="29.000000" ry="29.000000" fill="#978d6d" fill-opacity="0.749020" />
<ellipse cx="254.000000" cy="234.000000" rx="10.000000" ry="10.000000" fill="#3b3f41" fill-opacity="0.847059" />
<ellipse cx="370.500000" cy="163.500000" rx="51.500000" ry="51.500000" fill="#1f2e21" fill-opacity="0.247059" />
<ellipse cx="230.500000" cy="234.500000" rx="12.500000" ry="12.500000" fill="#010103" fill-opacity="0.478431" />
<ellipse cx="311.500000" cy="-146.500000" rx="152.500000" ry="152.500000" fill="#fcffff" fill-opacity="0.372549" />
<ellipse cx="399.000000" cy="356.000000" rx="56.000000" ry="56.000000" fill="#eebe4c" fill-opacity="0.498039" />
<ellipse cx="58.000000" cy="46.000000" rx="31.000000" ry="31.000000" fill="#010100" fill-opacity="0.247059" />
<ellipse cx="129.500000" cy="493.500000" rx="58.500000" ry="58.500000" fill="#c16627" fill-opacity="0.462745" />
<ellipse cx="213.000000" cy="237.000000" rx="5.000000" ry="5.000000" fill="#191819" fill-opacity="0.909804" />
<ellipse cx="17.500000" cy="315.500000" rx="15.500000" ry="15.500000" fill="#ddbb3f" fill-opacity="0.749020" />
<ellipse cx="161.000000" cy="283.000000" rx="38.000000" ry="38.000000" fill="#000401" fill-opacity="0.356863" />
<ellipse cx="451.500000" cy="202.500000" rx="29.500000" ry="29.500000" fill="#ffffff" fill-opacity="1.000000" />
<ellipse cx="312.000000" cy="237.000000" rx="18.000000" ry="18.000000" fill="#010101" fill-opacity="0.368627" />
<ellipse cx="340.000000" cy="341.000000" rx="21.000000" ry="21.000000" fill="#aeb7c7" fill-opacity="0.690196" />
<ellipse cx="272.500000" cy="360.500000" rx="12.500000" ry="12.500000" fill="#cfeadf" fill-opacity="0.596078" />
<ellipse cx="351.000000" cy="40.000000" rx="95.000000" ry="95.000000" fill="#405060" fill-opacity="0.247059" />
<ellipse cx="214.000000" cy="86.000000" rx="27.000000" ry="27.000000" fill="#808082" fill-opacity="0.498039" />
<ellipse cx="191.500000" cy="245.500000" rx="18.500000" ry="18.500000" fill="#dedfe3" fill-opacity="0.717647" />
<ellipse cx="203.000000" cy="231.000000" rx="7.000000" ry="7.000000" fill="#050306" fill-opacity="0.847059" />
<ellipse cx="304.000000" cy="151.000000" rx="19.000000" ry="19.000000" fill="#4a5048" fill-opacity="0.619608" />
<ellipse cx="14.000000" cy="123.000000" rx="14.000000" ry="14.000000" fill="#fefefe" fill-opacity="1.000000" />
<ellipse cx="282.500000" cy="449.500000" rx="10.500000" ry="10.500000" fill="#debf50" fill-opacity="0.862745" />
<ellipse cx="188.500000" cy="109.500000" rx="20.500000" ry="20.500000" fill="#c9d0d1" fill-opacity="0.607843" />
<ellipse cx="374.500000" cy="220.500000" rx="13.500000" ry="13.500000" fill="#808080" fill-opacity="0.498039" />
<ellipse cx="156.500000" cy="117.500000" rx="8.500000" ry="8.500000" fill="#987f7f" fill-opacity="0.745098" />
<ellipse cx="135.500000" cy="214.500000" rx="16.500000" ry="16.500000" fill="#0b0807" fill-opacity="0.749020" />
<ellipse cx="303.000000" cy="109.000000" rx="25.000000" ry="25.000000" fill="#c0bcc0" fill-opacity="0.482353" />
<ellipse cx="241.000000" cy="351.000000" rx="22.000000" ry="22.000000" fill="#081012" fill-opacity="0.882353" />
<ellipse cx="123.500000" cy="333.500000" rx="13.500000" ry="13.500000" fill="#fd1fdf" fill-opacity="0.341176" />
<ellipse cx="459.500000" cy="317.500000" rx="21.500000" ry="21.500000" fill="#5e774f" fill-opacity="0.941176" />
<ellipse cx="22.000000" cy="208.000000" rx="22.000000" ry="22.000000" fill="#fdfdfd" fill-opacity="1.000000" />
<ellipse cx="187.500000" cy="194.500000" rx="36.500000" ry="36.500000" fill="#c0bdc0" fill-opacity="0.349020" />
<ellipse cx="439.500000" cy="313.500000" rx="20.500000" ry="20.500000" fill="#2a5936" fill-opacity="0.498039" />
<ellipse cx="15.000000" cy="277.000000" rx="15.000000" ry="15.000000" fill="#fcfcf7" fill-opacity="1.000000" />
<ellipse cx="179.500000" cy="390.500000" rx="28.500000" ry="28.500000" fill="#8440bf" fill-opacity="0.247059" />
<ellipse cx="241.000000" cy="324.000000" rx="11.000000" ry="11.000000" fill="#fffefe" fill-opacity="0.435294" />
<ellipse cx="301.000000" cy="368.000000" rx="23.000000" ry="23.000000" fill="#5f1f53" fill-opacity="0.949020" />
<ellipse cx="31.000000" cy="452.000000" rx="31.000000" ry="31.000000" fill="#c3a64f" fill-opacity="0.498039" />
<ellipse cx="17.500000" cy="382.500000" rx="17.500000" ry="17.500000" fill="#a3833f" fill-opacity="1.000000" />
<ellipse cx="89.000000" cy="196.000000" rx="6.000000" ry="6.000000" fill="#c1bebe" fill-opacity="0.756863" />
<ellipse cx="50.000000" cy="193.000000" rx="13.000000" ry="13.000000" fill="#000000" fill-opacity="0.498039" />
<ellipse cx="392.000000" cy="330.000000" rx="11.000000" ry="11.000000" fill="#5b603a" fill-opacity="0.980392" />
<ellipse cx="414.000000" cy="468.000000" rx="16.000000" ry="16.000000" fill="#fff19f" fill-opacity="0.498039" />
<ellipse cx="318.500000" cy="450.500000" rx="13.500000" ry="13.500000" fill="#3e0000" fill-opacity="0.494118" />
<ellipse cx="273.500000" cy="460.500000" rx="10.500000" ry="10.500000" fill="#f8ea6c" fill-opacity="0.741176" />
<ellipse cx="459.000000" cy="109.000000" rx="22.000000" ry="22.000000" fill="#ffffff" fill-opacity="1.000000" />
<ellipse cx="466.500000" cy="151.500000" rx="14.500000" ry="14.500000" fill="#ffffff" fill-opacity="1.000000" />
<ellipse cx="60.500000" cy="201.500000" rx="10.500000" ry="10.500000" fill="#cfbfd2" fill-opacity="0.913725" />
<ellipse cx="87.500000" cy="365.500000" rx="20.500000" ry="20.500000" fill="#fcd15b" fill-opacity="0.239216" />
<ellipse cx="331.500000" cy="203.500000" rx="12.500000" ry="12.500000" fill="#302e40" fill-opacity="0.466667" />
<ellipse cx="252.000000" cy="427.000000" rx="20.000000" ry="20.000000" fill="#6901c3" fill-opacity="0.247059" />
</svg>