<svg viewBox="0 0 481 464" xmlns="http://www.w3.org/2000/svg">
<rect width="481" height="464" fill="#000000" fill-opacity="1"/>
<ellipse cx="240.500000" cy="265.500000" rx="240.500000" ry="240.500000" fill="#7f7f7f" fill-opacity="1.000000" />
<ellipse cx="361.000000" cy="56.000000" rx="120.000000" ry="120.000000" fill="#bfbfbf" fill-opacity="1.000000" />
<ellipse cx="163.000000" cy="395.000000" rx="163.000000" ry="163.000000" fill="#5a3a4c" fill-opacity="1.000000" />
<ellipse cx="180.500000" cy="51.500000" rx="180.500000" ry="180.500000" fill="#5d5d5b" fill-opacity="0.952941" />
<ellipse cx="418.000000" cy="237.000000" rx="63.000000" ry="63.000000" fill="#eff6f5" fill-opacity="1.000000" />
<ellipse cx="405.000000" cy="419.000000" rx="70.000000" ry="70.000000" fill="#f2bf5e" fill-opacity="0.631373" />
<ellipse cx="240.500000" cy="170.500000" rx="89.500000" ry="89.500000" fill="#efeff9" fill-opacity="0.584314" />
<ellipse cx="372.500000" cy="167.500000" rx="48.500000" ry="48.500000" fill="#000000" fill-opacity="0.498039" />
<ellipse cx="47.000000" cy="238.000000" rx="47.000000" ry="47.000000" fill="#fffffe" fill-opacity="0.882353" />
<ellipse cx="31.000000" cy="151.000000" rx="31.000000" ry="31.000000" fill="#f9f9f9" fill-opacity="1.000000" />
<ellipse cx="29.500000" cy="101.500000" rx="29.500000" ry="29.500000" fill="#f9f7f9" fill-opacity="0.937255" />
<ellipse cx="376.500000" cy="102.500000" rx="55.500000" ry="55.500000" fill="#403334" fill-opacity="0.874510" />
<ellipse cx="121.000000" cy="102.000000" rx="89.000000" ry="89.000000" fill="#000000" fill-opacity="0.498039" />
<ellipse cx="268.500000" cy="-122.500000" rx="195.500000" ry="195.500000" fill="#010106" fill-opacity="0.368627" />
<ellipse cx="222.000000" cy="452.000000" rx="27.000000" ry="27.000000" fill="#e3afd5" fill-opacity="0.866667" />
<ellipse cx="30.500000" cy="6.500000" rx="30.500000" ry="30.500000" fill="#e0e0e0" fill-opacity="0.874510" />
<ellipse cx="60.000000" cy="424.000000" rx="60.000000" ry="60.000000" fill="#9e7631" fill-opacity="0.749020" />
<ellipse cx="402.000000" cy="354.000000" rx="79.000000" ry="79.000000" fill="#a09160" fill-opacity="0.749020" />
<ellipse cx="174.500000" cy="330.500000" rx="39.500000" ry="39.500000" fill="#0e0520" fill-opacity="0.854902" />
<ellipse cx="231.500000" cy="232.500000" rx="68.500000" ry="68.500000" fill="#ffffff" fill-opacity="0.498039" />
<ellipse cx="190.500000" cy="102.500000" rx="30.500000" ry="30.500000" fill="#9c9b7f" fill-opacity="0.901961" />
<ellipse cx="451.500000" cy="130.500000" rx="29.500000" ry="29.500000" fill="#f7faf7" fill-opacity="1.000000" />
<ellipse cx="207.500000" cy="304.500000" rx="87.500000" ry="87.500000" fill="#000012" fill-opacity="0.227451" />
<ellipse cx="280.500000" cy="150.500000" rx="17.500000" ry="17.500000" fill="#474745" fill-opacity="0.866667" />
<ellipse cx="89.500000" cy="298.500000" rx="36.500000" ry="36.500000" fill="#979e77" fill-opacity="0.498039" />
<ellipse cx="20.500000" cy="58.500000" rx="20.500000" ry="20.500000" fill="#f2f2f2" fill-opacity="0.843137" />
<ellipse cx="347.500000" cy="300.500000" rx="28.500000" ry="28.500000" fill="#dde7f0" fill-opacity="0.533333" />
<ellipse cx="348.500000" cy="509.500000" rx="99.500000" ry="99.500000" fill="#d09f54" fill-opacity="0.494118" />
<ellipse cx="367.000000" cy="34.000000" rx="29.000000" ry="29.000000" fill="#81837f" fill-opacity="0.827451" />
<ellipse cx="20.000000" cy="186.000000" rx="20.000000" ry="20.000000" fill="#fdfdfd" fill-opacity="1.000000" />
<ellipse cx="229.000000" cy="281.000000" rx="55.000000" ry="55.000000" fill="#a6bf7f" fill-opacity="0.247059" />
<ellipse cx="449.000000" cy="180.000000" rx="32.000000" ry="32.000000" fill="#fffeff" fill-opacity="0.984314" />
</svg>