<svg viewBox="0 0 481 464" xmlns="http://www.w3.org/2000/svg">
<rect width="481" height="464" fill="#000000" fill-opacity="1"/>
<ellipse cx="240.500000" cy="267.500000" rx="240.500000" ry="240.500000" fill="#7f7f7f" fill-opacity="1.000000" />
<ellipse cx="363.500000" cy="66.500000" rx="117.500000" ry="117.500000" fill="#f5f7f7" fill-opacity="1.000000" />
<ellipse cx="165.000000" cy="397.000000" rx="165.000000" ry="165.000000" fill="#503040" fill-opacity="1.000000" />
<ellipse cx="180.500000" cy="51.500000" rx="180.500000" ry="180.500000" fill="#5f5f5f" fill-opacity="0.945098" />
<ellipse cx="419.000000" cy="236.000000" rx="62.000000" ry="62.000000" fill="#fbfeff" fill-opacity="1.000000" />
<ellipse cx="406.000000" cy="418.000000" rx="69.000000" ry="69.000000" fill="#fca059" fill-opacity="0.639216" />
<ellipse cx="240.500000" cy="168.500000" rx="89.500000" ry="89.500000" fill="#ffffff" fill-opacity="0.623529" />
<ellipse cx="375.500000" cy="168.500000" rx="45.500000" ry="45.500000" fill="#0f0003" fill-opacity="0.498039" />
<ellipse cx="47.000000" cy="243.000000" rx="47.000000" ry="47.000000" fill="#fffffe" fill-opacity="0.984314" />
<ellipse cx="36.500000" cy="145.500000" rx="36.500000" ry="36.500000" fill="#f8f8f8" fill-opacity="1.000000" />
<ellipse cx="25.500000" cy="105.500000" rx="25.500000" ry="25.500000" fill="#fefefe" fill-opacity="1.000000" />
<ellipse cx="373.000000" cy="88.000000" rx="57.000000" ry="57.000000" fill="#403d3b" fill-opacity="0.807843" />
<ellipse cx="118.500000" cy="102.500000" rx="88.500000" ry="88.500000" fill="#000000" fill-opacity="0.498039" />
<ellipse cx="278.000000" cy="-117.000000" rx="191.000000" ry="191.000000" fill="#000000" fill-opacity="0.498039" />
<ellipse cx="222.000000" cy="453.000000" rx="27.000000" ry="27.000000" fill="#ffbfcf" fill-opacity="0.874510" />
<ellipse cx="30.000000" cy="7.000000" rx="30.000000" ry="30.000000" fill="#ededf1" fill-opacity="0.854902" />
<ellipse cx="67.500000" cy="434.500000" rx="67.500000" ry="67.500000" fill="#804a20" fill-opacity="0.666667" />
<ellipse cx="391.000000" cy="365.000000" rx="90.000000" ry="90.000000" fill="#8b8b60" fill-opacity="0.627451" />
<ellipse cx="191.000000" cy="339.000000" rx="48.000000" ry="48.000000" fill="#0a0820" fill-opacity="0.984314" />
<ellipse cx="232.500000" cy="233.500000" rx="67.500000" ry="67.500000" fill="#ffffff" fill-opacity="0.498039" />
<ellipse cx="189.500000" cy="100.500000" rx="31.500000" ry="31.500000" fill="#bcbf7f" fill-opacity="0.631373" />
<ellipse cx="451.500000" cy="133.500000" rx="29.500000" ry="29.500000" fill="#fdfdfe" fill-opacity="1.000000" />
<ellipse cx="204.500000" cy="310.500000" rx="84.500000" ry="84.500000" fill="#010202" fill-opacity="0.243137" />
<ellipse cx="281.000000" cy="151.000000" rx="18.000000" ry="18.000000" fill="#424040" fill-opacity="0.968627" />
<ellipse cx="95.000000" cy="305.000000" rx="40.000000" ry="40.000000" fill="#89807e" fill-opacity="0.486275" />
<ellipse cx="21.500000" cy="57.500000" rx="21.500000" ry="21.500000" fill="#fcfcfa" fill-opacity="0.988235" />
<ellipse cx="346.000000" cy="299.000000" rx="30.000000" ry="30.000000" fill="#c0e9fe" fill-opacity="0.556863" />
<ellipse cx="351.500000" cy="503.500000" rx="96.500000" ry="96.500000" fill="#df9c42" fill-opacity="0.498039" />
<ellipse cx="369.500000" cy="31.500000" rx="31.500000" ry="31.500000" fill="#8e927f" fill-opacity="1.000000" />
<ellipse cx="22.000000" cy="184.000000" rx="22.000000" ry="22.000000" fill="#fcfcfc" fill-opacity="1.000000" />
<ellipse cx="229.000000" cy="281.000000" rx="56.000000" ry="56.000000" fill="#85ce79" fill-opacity="0.137255" />
<ellipse cx="439.000000" cy="174.000000" rx="42.000000" ry="42.000000" fill="#fdfdfe" fill-opacity="0.996078" />
<ellipse cx="219.500000" cy="322.500000" rx="9.500000" ry="9.500000" fill="#a0a19f" fill-opacity="0.968627" />
<ellipse cx="271.000000" cy="100.000000" rx="39.000000" ry="39.000000" fill="#ffffff" fill-opacity="0.247059" />
<ellipse cx="377.500000" cy="145.500000" rx="50.500000" ry="50.500000" fill="#070106" fill-opacity="0.498039" />
<ellipse cx="262.000000" cy="395.000000" rx="18.000000" ry="18.000000" fill="#ee82ff" fill-opacity="0.294118" />
<ellipse cx="196.500000" cy="421.500000" rx="43.500000" ry="43.500000" fill="#7f5cfd" fill-opacity="0.247059" />
<ellipse cx="28.500000" cy="347.500000" rx="28.500000" ry="28.500000" fill="#ffff3f" fill-opacity="0.498039" />
<ellipse cx="392.000000" cy="290.000000" rx="15.000000" ry="15.000000" fill="#000100" fill-opacity="0.498039" />
<ellipse cx="101.000000" cy="161.000000" rx="49.000000" ry="49.000000" fill="#000000" fill-opacity="0.462745" />
<ellipse cx="131.000000" cy="243.000000" rx="26.000000" ry="26.000000" fill="#000000" fill-opacity="0.749020" />
<ellipse cx="298.500000" cy="288.500000" rx="27.500000" ry="27.500000" fill="#0e061d" fill-opacity="0.376471" />
<ellipse cx="88.000000" cy="223.000000" rx="22.000000" ry="22.000000" fill="#ffffff" fill-opacity="0.498039" />
<ellipse cx="430.500000" cy="16.500000" rx="50.500000" ry="50.500000" fill="#fbfefc" fill-opacity="0.984314" />
<ellipse cx="208.000000" cy="152.000000" rx="16.000000" ry="16.000000" fill="#000202" fill-opacity="0.623529" />
<ellipse cx="50.500000" cy="313.500000" rx="34.500000" ry="34.500000" fill="#314020" fill-opacity="0.976471" />
<ellipse cx="459.000000" cy="283.000000" rx="22.000000" ry="22.000000" fill="#fffefe" fill-opacity="0.956863" />
<ellipse cx="148.500000" cy="179.500000" rx="13.500000" ry="13.500000" fill="#ffffff" fill-opacity="0.498039" />
<ellipse cx="407.000000" cy="40.000000" rx="45.000000" ry="45.000000" fill="#817a7f" fill-opacity="0.474510" />
<ellipse cx="65.000000" cy="115.000000" rx="25.000000" ry="25.000000" fill="#1c1721" fill-opacity="0.745098" />
<ellipse cx="398.000000" cy="187.000000" rx="13.000000" ry="13.000000" fill="#805d80" fill-opacity="1.000000" />
<ellipse cx="351.000000" cy="223.000000" rx="21.000000" ry="21.000000" fill="#e7e9e6" fill-opacity="1.000000" />
<ellipse cx="339.000000" cy="425.000000" rx="17.000000" ry="17.000000" fill="#e0dfea" fill-opacity="0.556863" />
<ellipse cx="130.000000" cy="418.000000" rx="43.000000" ry="43.000000" fill="#050001" fill-opacity="0.247059" />
<ellipse cx="83.000000" cy="298.000000" rx="29.000000" ry="29.000000" fill="#9f8f70" fill-opacity="0.749020" />
<ellipse cx="253.000000" cy="234.000000" rx="11.000000" ry="11.000000" fill="#2d2d40" fill-opacity="0.874510" />
<ellipse cx="370.500000" cy="160.500000" rx="51.500000" ry="51.500000" fill="#062100" fill-opacity="0.247059" />
<ellipse cx="232.500000" cy="235.500000" rx="11.500000" ry="11.500000" fill="#000100" fill-opacity="0.498039" />
<ellipse cx="312.500000" cy="-147.500000" rx="153.500000" ry="153.500000" fill="#f0eeef" fill-opacity="0.490196" />
<ellipse cx="400.000000" cy="356.000000" rx="57.000000" ry="57.000000" fill="#fbbf4c" fill-opacity="0.494118" />
<ellipse cx="57.000000" cy="46.000000" rx="31.000000" ry="31.000000" fill="#000000" fill-opacity="0.247059" />
<ellipse cx="132.500000" cy="493.500000" rx="58.500000" ry="58.500000" fill="#c04b27" fill-opacity="0.376471" />
<ellipse cx="214.500000" cy="238.500000" rx="6.500000" ry="6.500000" fill="#0c1509" fill-opacity="0.815686" />
<ellipse cx="17.500000" cy="315.500000" rx="15.500000" ry="15.500000" fill="#dfbf3f" fill-opacity="0.749020" />
<ellipse cx="160.000000" cy="282.000000" rx="38.000000" ry="38.000000" fill="#01020b" fill-opacity="0.478431" />
<ellipse cx="451.500000" cy="196.500000" rx="29.500000" ry="29.500000" fill="#ffffff" fill-opacity="1.000000" />
<ellipse cx="312.000000" cy="236.000000" rx="18.000000" ry="18.000000" fill="#000103" fill-opacity="0.321569" />
<ellipse cx="340.000000" cy="341.000000" rx="21.000000" ry="21.000000" fill="#aebeca" fill-opacity="0.701961" />
<ellipse cx="273.000000" cy="358.000000" rx="12.000000" ry="12.000000" fill="#ddedf0" fill-opacity="0.619608" />
<ellipse cx="351.000000" cy="40.000000" rx="95.000000" ry="95.000000" fill="#404040" fill-opacity="0.247059" />
<ellipse cx="214.000000" cy="87.000000" rx="27.000000" ry="27.000000" fill="#9e9f9f" fill-opacity="0.494118" />
<ellipse cx="191.500000" cy="244.500000" rx="18.500000" ry="18.500000" fill="#dfdee1" fill-opacity="0.686275" />
<ellipse cx="203.000000" cy="231.000000" rx="7.000000" ry="7.000000" fill="#000201" fill-opacity="0.870588" />
<ellipse cx="304.000000" cy="151.000000" rx="19.000000" ry="19.000000" fill="#434343" fill-opacity="0.752941" />
<ellipse cx="14.500000" cy="125.500000" rx="14.500000" ry="14.500000" fill="#fefefe" fill-opacity="1.000000" />
<ellipse cx="282.500000" cy="449.500000" rx="10.500000" ry="10.500000" fill="#dbbf50" fill-opacity="0.862745" />
<ellipse cx="188.000000" cy="108.000000" rx="22.000000" ry="22.000000" fill="#dfdffd" fill-opacity="0.560784" />
<ellipse cx="374.500000" cy="220.500000" rx="13.500000" ry="13.500000" fill="#808180" fill-opacity="0.498039" />
<ellipse cx="155.500000" cy="117.500000" rx="8.500000" ry="8.500000" fill="#837f7f" fill-opacity="1.000000" />
<ellipse cx="136.000000" cy="215.000000" rx="17.000000" ry="17.000000" fill="#030303" fill-opacity="0.749020" />
<ellipse cx="303.000000" cy="109.000000" rx="25.000000" ry="25.000000" fill="#c4bec2" fill-opacity="0.494118" />
<ellipse cx="234.500000" cy="353.500000" rx="23.500000" ry="23.500000" fill="#060512" fill-opacity="0.941176" />
<ellipse cx="124.000000" cy="334.000000" rx="14.000000" ry="14.000000" fill="#f505d5" fill-opacity="0.337255" />
<ellipse cx="459.500000" cy="317.500000" rx="21.500000" ry="21.500000" fill="#5f774f" fill-opacity="0.941176" />
<ellipse cx="29.500000" cy="217.500000" rx="29.500000" ry="29.500000" fill="#fdfefd" fill-opacity="1.000000" />
<ellipse cx="188.000000" cy="193.000000" rx="37.000000" ry="37.000000" fill="#dabfcf" fill-opacity="0.498039" />
<ellipse cx="438.500000" cy="313.500000" rx="20.500000" ry="20.500000" fill="#235536" fill-opacity="0.498039" />
<ellipse cx="15.000000" cy="277.000000" rx="15.000000" ry="15.000000" fill="#fffffe" fill-opacity="0.972549" />
<ellipse cx="180.500000" cy="391.500000" rx="29.500000" ry="29.500000" fill="#8342bd" fill-opacity="0.247059" />
<ellipse cx="241.500000" cy="324.500000" rx="10.500000" ry="10.500000" fill="#fffffe" fill-opacity="0.494118" />
<ellipse cx="301.000000" cy="368.000000" rx="23.000000" ry="23.000000" fill="#5f1f56" fill-opacity="0.976471" />
<ellipse cx="35.500000" cy="459.500000" rx="35.500000" ry="35.500000" fill="#dfbf5f" fill-opacity="0.498039" />
<ellipse cx="18.500000" cy="381.500000" rx="18.500000" ry="18.500000" fill="#a9883f" fill-opacity="1.000000" />
<ellipse cx="89.000000" cy="196.000000" rx="6.000000" ry="6.000000" fill="#c0bebe" fill-opacity="0.768627" />
<ellipse cx="50.000000" cy="193.000000" rx="13.000000" ry="13.000000" fill="#000000" fill-opacity="0.494118" />
<ellipse cx="392.000000" cy="329.000000" rx="11.000000" ry="11.000000" fill="#5a6039" fill-opacity="0.996078" />
<ellipse cx="416.500000" cy="469.500000" rx="19.500000" ry="19.500000" fill="#fee3a6" fill-opacity="0.486275" />
<ellipse cx="319.500000" cy="449.500000" rx="14.500000" ry="14.500000" fill="#210000" fill-opacity="0.490196" />
<ellipse cx="273.500000" cy="460.500000" rx="10.500000" ry="10.500000" fill="#f8eb6f" fill-opacity="0.737255" />
<ellipse cx="459.000000" cy="112.000000" rx="22.000000" ry="22.000000" fill="#ffffff" fill-opacity="1.000000" />
<ellipse cx="466.500000" cy="151.500000" rx="14.500000" ry="14.500000" fill="#ffffff" fill-opacity="1.000000" />
<ellipse cx="60.500000" cy="201.500000" rx="10.500000" ry="10.500000" fill="#cfbfd3" fill-opacity="0.890196" />
<ellipse cx="86.500000" cy="366.500000" rx="21.500000" ry="21.500000" fill="#d3d006" fill-opacity="0.223529" />
<ellipse cx="332.000000" cy="203.000000" rx="13.000000" ry="13.000000" fill="#202040" fill-opacity="0.498039" />
<ellipse cx="255.000000" cy="425.000000" rx="18.000000" ry="18.000000" fill="#7d00d0" fill-opacity="0.247059" />
<ellipse cx="22.000000" cy="86.000000" rx="22.000000" ry="22.000000" fill="#f9f9f9" fill-opacity="0.874510" />
<ellipse cx="176.500000" cy="245.500000" rx="26.500000" ry="26.500000" fill="#f9fffc" fill-opacity="0.215686" />
<ellipse cx="257.500000" cy="152.500000" rx="12.500000" ry="12.500000" fill="#090f0a" fill-opacity="0.372549" />
<ellipse cx="90.500000" cy="437.500000" rx="17.500000" ry="17.500000" fill="#fdc182" fill-opacity="0.498039" />
<ellipse cx="386.500000" cy="-72.500000" rx="87.500000" ry="87.500000" fill="#765f80" fill-opacity="0.690196" />
<ellipse cx="90.500000" cy="80.500000" rx="15.500000" ry="15.500000" fill="#fffeff" fill-opacity="0.247059" />
<ellipse cx="234.500000" cy="192.500000" rx="39.500000" ry="39.500000" fill="#efeff5" fill-opacity="0.498039" />
<ellipse cx="187.500000" cy="20.500000" rx="90.500000" ry="90.500000" fill="#010200" fill-opacity="0.121569" />
<ellipse cx="404.500000" cy="389.500000" rx="24.500000" ry="24.500000" fill="#000000" fill-opacity="0.372549" />
<ellipse cx="348.500000" cy="285.500000" rx="32.500000" ry="32.500000" fill="#ffdda4" fill-opacity="0.247059" />
<ellipse cx="391.000000" cy="400.000000" rx="11.000000" ry="11.000000" fill="#ead077" fill-opacity="0.996078" />
<ellipse cx="13.500000" cy="42.500000" rx="13.500000" ry="13.500000" fill="#ffffff" fill-opacity="0.960784" />
<ellipse cx="123.500000" cy="364.500000" rx="34.500000" ry="34.500000" fill="#a57eff" fill-opacity="0.121569" />
<ellipse cx="18.500000" cy="26.500000" rx="18.500000" ry="18.500000" fill="#cfcfcf" fill-opacity="0.996078" />
<ellipse cx="408.500000" cy="388.500000" rx="11.500000" ry="11.500000" fill="#f9e07f" fill-opacity="0.760784" />
<ellipse cx="169.000000" cy="163.000000" rx="19.000000" ry="19.000000" fill="#010a00" fill-opacity="0.219608" />
<ellipse cx="257.500000" cy="376.500000" rx="13.500000" ry="13.500000" fill="#f9fffe" fill-opacity="0.247059" />
<ellipse cx="428.500000" cy="462.500000" rx="52.500000" ry="52.500000" fill="#fffe74" fill-opacity="0.247059" />
<ellipse cx="414.000000" cy="291.000000" rx="7.000000" ry="7.000000" fill="#0b2c12" fill-opacity="0.580392" />
<ellipse cx="23.000000" cy="166.000000" rx="23.000000" ry="23.000000" fill="#fcfcfc" fill-opacity="1.000000" />
<ellipse cx="456.000000" cy="94.000000" rx="25.000000" ry="25.000000" fill="#fefefe" fill-opacity="0.988235" />
<ellipse cx="360.000000" cy="196.000000" rx="21.000000" ry="21.000000" fill="#2f2f31" fill-opacity="0.498039" />
<ellipse cx="233.000000" cy="270.000000" rx="12.000000" ry="12.000000" fill="#291e29" fill-opacity="0.941176" />
<ellipse cx="78.500000" cy="149.500000" rx="26.500000" ry="26.500000" fill="#100f0f" fill-opacity="0.972549" />
<ellipse cx="190.500000" cy="141.500000" rx="11.500000" ry="11.500000" fill="#000000" fill-opacity="0.494118" />
<ellipse cx="247.000000" cy="289.000000" rx="10.000000" ry="10.000000" fill="#feffff" fill-opacity="0.592157" />
<ellipse cx="89.500000" cy="108.500000" rx="10.500000" ry="10.500000" fill="#fefffe" fill-opacity="0.247059" />
<ellipse cx="395.500000" cy="455.500000" rx="7.500000" ry="7.500000" fill="#000000" fill-opacity="0.498039" />
<ellipse cx="103.500000" cy="74.500000" rx="65.500000" ry="65.500000" fill="#202319" fill-opacity="0.317647" />
<ellipse cx="156.500000" cy="225.500000" rx="19.500000" ry="19.500000" fill="#545f58" fill-opacity="0.349020" />
<ellipse cx="311.000000" cy="331.000000" rx="17.000000" ry="17.000000" fill="#ff0eff" fill-opacity="0.247059" />
<ellipse cx="282.000000" cy="65.000000" rx="42.000000" ry="42.000000" fill="#7c7c7c" fill-opacity="0.243137" />
<ellipse cx="74.000000" cy="329.000000" rx="8.000000" ry="8.000000" fill="#ff8e60" fill-opacity="0.619608" />
<ellipse cx="317.500000" cy="143.500000" rx="13.500000" ry="13.500000" fill="#bab7b9" fill-opacity="0.556863" />
<ellipse cx="230.000000" cy="257.000000" rx="14.000000" ry="14.000000" fill="#ffffff" fill-opacity="0.498039" />
<ellipse cx="44.500000" cy="193.500000" rx="6.500000" ry="6.500000" fill="#1f1f20" fill-opacity="0.913725" />
<ellipse cx="128.000000" cy="19.000000" rx="8.000000" ry="8.000000" fill="#a0a8a6" fill-opacity="0.423529" />
<ellipse cx="343.500000" cy="451.500000" rx="15.500000" ry="15.500000" fill="#c1e9f7" fill-opacity="0.360784" />
<ellipse cx="60.500000" cy="-5.500000" rx="16.500000" ry="16.500000" fill="#e7e8e5" fill-opacity="0.498039" />
<ellipse cx="153.500000" cy="-77.500000" rx="85.500000" ry="85.500000" fill="#bebebe" fill-opacity="0.243137" />
<ellipse cx="226.500000" cy="290.500000" rx="9.500000" ry="9.500000" fill="#eeeeef" fill-opacity="0.698039" />
<ellipse cx="39.500000" cy="395.500000" rx="10.500000" ry="10.500000" fill="#ffdf67" fill-opacity="0.498039" />
<ellipse cx="268.500000" cy="285.500000" rx="10.500000" ry="10.500000" fill="#fbfdff" fill-opacity="0.494118" />
<ellipse cx="220.500000" cy="408.500000" rx="20.500000" ry="20.500000" fill="#954cfd" fill-opacity="0.247059" />
<ellipse cx="216.000000" cy="235.000000" rx="11.000000" ry="11.000000" fill="#08010a" fill-opacity="0.627451" />
<ellipse cx="311.500000" cy="258.500000" rx="19.500000" ry="19.500000" fill="#223041" fill-opacity="0.423529" />
<ellipse cx="453.500000" cy="216.500000" rx="27.500000" ry="27.500000" fill="#ffffff" fill-opacity="1.000000" />
<ellipse cx="438.000000" cy="365.000000" rx="31.000000" ry="31.000000" fill="#feff9b" fill-opacity="0.247059" />
<ellipse cx="12.000000" cy="418.000000" rx="12.000000" ry="12.000000" fill="#ffdf70" fill-opacity="0.498039" />
<ellipse cx="5.500000" cy="350.500000" rx="5.500000" ry="5.500000" fill="#dfbf8f" fill-opacity="1.000000" />
<ellipse cx="464.000000" cy="38.000000" rx="17.000000" ry="17.000000" fill="#fdfdfe" fill-opacity="1.000000" />
<ellipse cx="201.000000" cy="319.000000" rx="10.000000" ry="10.000000" fill="#f5eddf" fill-opacity="0.352941" />
<ellipse cx="324.000000" cy="238.000000" rx="13.000000" ry="13.000000" fill="#20201a" fill-opacity="0.749020" />
<ellipse cx="25.500000" cy="152.500000" rx="25.500000" ry="25.500000" fill="#ffffff" fill-opacity="0.905882" />
<ellipse cx="51.500000" cy="368.500000" rx="19.500000" ry="19.500000" fill="#444000" fill-opacity="0.380392" />
<ellipse cx="258.500000" cy="319.500000" rx="9.500000" ry="9.500000" fill="#effaf9" fill-opacity="0.498039" />
<ellipse cx="343.000000" cy="389.000000" rx="26.000000" ry="26.000000" fill="#bddffb" fill-opacity="0.247059" />
<ellipse cx="334.500000" cy="242.500000" rx="10.500000" ry="10.500000" fill="#615f27" fill-opacity="0.498039" />
<ellipse cx="34.000000" cy="51.000000" rx="26.000000" ry="26.000000" fill="#808381" fill-opacity="0.215686" />
<ellipse cx="248.500000" cy="256.500000" rx="16.500000" ry="16.500000" fill="#fefeff" fill-opacity="0.498039" />
<ellipse cx="106.000000" cy="271.000000" rx="24.000000" ry="24.000000" fill="#107f85" fill-opacity="0.247059" />
<ellipse cx="373.000000" cy="277.000000" rx="12.000000" ry="12.000000" fill="#c01e00" fill-opacity="0.247059" />
<ellipse cx="141.500000" cy="165.500000" rx="8.500000" ry="8.500000" fill="#7f8c7f" fill-opacity="0.635294" />
<ellipse cx="58.500000" cy="280.500000" rx="5.500000" ry="5.500000" fill="#404020" fill-opacity="0.843137" />
<ellipse cx="365.000000" cy="388.000000" rx="18.000000" ry="18.000000" fill="#a11700" fill-opacity="0.247059" />
<ellipse cx="252.000000" cy="394.000000" rx="8.000000" ry="8.000000" fill="#cfe0bf" fill-opacity="0.874510" />
<ellipse cx="459.500000" cy="361.500000" rx="9.500000" ry="9.500000" fill="#05301e" fill-opacity="0.498039" />
<ellipse cx="431.000000" cy="14.000000" rx="10.000000" ry="10.000000" fill="#09100e" fill-opacity="0.247059" />
<ellipse cx="468.500000" cy="400.500000" rx="12.500000" ry="12.500000" fill="#393f29" fill-opacity="0.913725" />
<ellipse cx="253.000000" cy="271.000000" rx="8.000000" ry="8.000000" fill="#010100" fill-opacity="0.411765" />
<ellipse cx="414.000000" cy="365.000000" rx="7.000000" ry="7.000000" fill="#313319" fill-opacity="0.650980" />
<ellipse cx="207.000000" cy="272.000000" rx="10.000000" ry="10.000000" fill="#000000" fill-opacity="0.498039" />
<ellipse cx="428.000000" cy="77.000000" rx="9.000000" ry="9.000000" fill="#201720" fill-opacity="0.470588" />
<ellipse cx="431.500000" cy="388.500000" rx="5.500000" ry="5.500000" fill="#000000" fill-opacity="0.498039" />
<ellipse cx="52.000000" cy="403.000000" rx="11.000000" ry="11.000000" fill="#ffdf3f" fill-opacity="0.498039" />
<ellipse cx="271.000000" cy="166.000000" rx="7.000000" ry="7.000000" fill="#e0e0e0" fill-opacity="0.905882" />
<ellipse cx="77.500000" cy="373.500000" rx="9.500000" ry="9.500000" fill="#ff9e80" fill-opacity="0.623529" />
<ellipse cx="141.500000" cy="452.500000" rx="9.500000" ry="9.500000" fill="#fff03f" fill-opacity="0.407843" />
<ellipse cx="210.000000" cy="254.000000" rx="15.000000" ry="15.000000" fill="#d1bfce" fill-opacity="0.729412" />
<ellipse cx="180.500000" cy="156.500000" rx="7.500000" ry="7.500000" fill="#030503" fill-opacity="0.745098" />
<ellipse cx="308.000000" cy="473.000000" rx="24.000000" ry="24.000000" fill="#910f18" fill-opacity="0.874510" />
<ellipse cx="359.500000" cy="245.500000" rx="9.500000" ry="9.500000" fill="#fffffa" fill-opacity="0.866667" />
<ellipse cx="292.000000" cy="-25.000000" rx="39.000000" ry="39.000000" fill="#9e9c9e" fill-opacity="0.247059" />
<ellipse cx="376.000000" cy="18.000000" rx="15.000000" ry="15.000000" fill="#c3bfbf" fill-opacity="0.352941" />
<ellipse cx="113.500000" cy="217.500000" rx="6.500000" ry="6.500000" fill="#ffffff" fill-opacity="0.552941" />
<ellipse cx="208.500000" cy="286.500000" rx="8.500000" ry="8.500000" fill="#e8e7eb" fill-opacity="0.560784" />
<ellipse cx="373.500000" cy="114.500000" rx="49.500000" ry="49.500000" fill="#303030" fill-opacity="0.498039" />
<ellipse cx="298.500000" cy="191.500000" rx="28.500000" ry="28.500000" fill="#ffffff" fill-opacity="0.247059" />
<ellipse cx="441.000000" cy="366.000000" rx="6.000000" ry="6.000000" fill="#40441f" fill-opacity="0.713725" />
<ellipse cx="10.000000" cy="73.000000" rx="10.000000" ry="10.000000" fill="#fefefe" fill-opacity="0.992157" />
<ellipse cx="408.000000" cy="314.000000" rx="13.000000" ry="13.000000" fill="#ffff81" fill-opacity="0.498039" />
<ellipse cx="225.000000" cy="-168.000000" rx="172.000000" ry="172.000000" fill="#b3b4af" fill-opacity="0.231373" />
<ellipse cx="92.500000" cy="244.500000" rx="27.500000" ry="27.500000" fill="#fdfefd" fill-opacity="0.113725" />
<ellipse cx="192.000000" cy="284.000000" rx="7.000000" ry="7.000000" fill="#fafefc" fill-opacity="0.454902" />
<ellipse cx="406.000000" cy="446.000000" rx="7.000000" ry="7.000000" fill="#110400" fill-opacity="0.560784" />
<ellipse cx="31.000000" cy="424.000000" rx="8.000000" ry="8.000000" fill="#e0be50" fill-opacity="0.745098" />
<ellipse cx="72.500000" cy="280.500000" rx="12.500000" ry="12.500000" fill="#c07a32" fill-opacity="0.498039" />
<ellipse cx="182.000000" cy="379.000000" rx="9.000000" ry="9.000000" fill="#b984fa" fill-opacity="0.396078" />
<ellipse cx="297.000000" cy="294.000000" rx="18.000000" ry="18.000000" fill="#060007" fill-opacity="0.498039" />
<ellipse cx="137.500000" cy="382.500000" rx="38.500000" ry="38.500000" fill="#3e0035" fill-opacity="0.372549" />
<ellipse cx="444.000000" cy="488.000000" rx="32.000000" ry="32.000000" fill="#3d2410" fill-opacity="0.811765" />
<ellipse cx="188.000000" cy="311.000000" rx="8.000000" ry="8.000000" fill="#fadce0" fill-opacity="0.243137" />
<ellipse cx="392.000000" cy="188.000000" rx="6.000000" ry="6.000000" fill="#f7fffb" fill-opacity="0.686275" />
<ellipse cx="170.500000" cy="459.500000" rx="4.500000" ry="4.500000" fill="#ffffff" fill-opacity="0.498039" />
<ellipse cx="298.000000" cy="322.000000" rx="42.000000" ry="42.000000" fill="#06000f" fill-opacity="0.101961" />
<ellipse cx="423.000000" cy="297.000000" rx="10.000000" ry="10.000000" fill="#2f4220" fill-opacity="0.498039" />
<ellipse cx="353.000000" cy="155.000000" rx="18.000000" ry="18.000000" fill="#7e8390" fill-opacity="0.239216" />
<ellipse cx="410.500000" cy="28.500000" rx="18.500000" ry="18.500000" fill="#fcfdfe" fill-opacity="0.247059" />
<ellipse cx="7.500000" cy="299.500000" rx="7.500000" ry="7.500000" fill="#584b28" fill-opacity="1.000000" />
<ellipse cx="220.000000" cy="459.000000" rx="5.000000" ry="5.000000" fill="#803e80" fill-opacity="1.000000" />
<ellipse cx="362.000000" cy="37.000000" rx="7.000000" ry="7.000000" fill="#23231f" fill-opacity="0.627451" />
<ellipse cx="244.500000" cy="127.500000" rx="18.500000" ry="18.500000" fill="#f7f7f7" fill-opacity="0.596078" />
<ellipse cx="54.500000" cy="458.500000" rx="5.500000" ry="5.500000" fill="#000000" fill-opacity="0.498039" />
<ellipse cx="367.000000" cy="71.000000" rx="8.000000" ry="8.000000" fill="#fcfcfc" fill-opacity="0.231373" />
<ellipse cx="99.000000" cy="401.000000" rx="5.000000" ry="5.000000" fill="#e9e0a0" fill-opacity="0.537255" />
<ellipse cx="41.500000" cy="116.500000" rx="10.500000" ry="10.500000" fill="#000200" fill-opacity="0.498039" />
<ellipse cx="301.000000" cy="235.000000" rx="17.000000" ry="17.000000" fill="#bdb9af" fill-opacity="0.247059" />
<ellipse cx="398.000000" cy="299.000000" rx="20.000000" ry="20.000000" fill="#080000" fill-opacity="0.121569" />
<ellipse cx="90.500000" cy="420.500000" rx="16.500000" ry="16.500000" fill="#de9e4d" fill-opacity="0.372549" />
<ellipse cx="416.000000" cy="438.000000" rx="7.000000" ry="7.000000" fill="#040100" fill-opacity="0.498039" />
<ellipse cx="45.000000" cy="452.000000" rx="6.000000" ry="6.000000" fill="#000000" fill-opacity="0.498039" />
<ellipse cx="15.500000" cy="348.500000" rx="6.500000" ry="6.500000" fill="#0f0101" fill-opacity="0.494118" />
<ellipse cx="104.500000" cy="202.500000" rx="12.500000" ry="12.500000" fill="#091010" fill-opacity="0.560784" />
<ellipse cx="441.000000" cy="433.000000" rx="8.000000" ry="8.000000" fill="#4f2f0f" fill-opacity="0.878431" />
<ellipse cx="253.000000" cy="345.000000" rx="17.000000" ry="17.000000" fill="#01030a" fill-opacity="0.498039" />
<ellipse cx="282.000000" cy="284.000000" rx="11.000000" ry="11.000000" fill="#f3fdea" fill-opacity="0.184314" />
<ellipse cx="119.000000" cy="356.000000" rx="11.000000" ry="11.000000" fill="#040000" fill-opacity="0.619608" />
<ellipse cx="310.500000" cy="164.500000" rx="10.500000" ry="10.500000" fill="#030302" fill-opacity="0.231373" />
<ellipse cx="208.000000" cy="77.000000" rx="34.000000" ry="34.000000" fill="#606068" fill-opacity="0.247059" />
<ellipse cx="247.000000" cy="439.000000" rx="8.000000" ry="8.000000" fill="#472f80" fill-opacity="0.749020" />
<ellipse cx="18.500000" cy="200.500000" rx="18.500000" ry="18.500000" fill="#fefefe" fill-opacity="1.000000" />
<ellipse cx="230.500000" cy="324.500000" rx="10.500000" ry="10.500000" fill="#dad8cf" fill-opacity="0.498039" />
<ellipse cx="398.000000" cy="178.000000" rx="6.000000" ry="6.000000" fill="#fffffe" fill-opacity="0.498039" />
<ellipse cx="6.000000" cy="290.000000" rx="6.000000" ry="6.000000" fill="#fffff3" fill-opacity="0.941176" />
<ellipse cx="263.500000" cy="371.500000" rx="9.500000" ry="9.500000" fill="#dbedf0" fill-opacity="0.435294" />
<ellipse cx="90.500000" cy="459.500000" rx="5.500000" ry="5.500000" fill="#febfc0" fill-opacity="0.494118" />
<ellipse cx="57.500000" cy="341.500000" rx="13.500000" ry="13.500000" fill="#080000" fill-opacity="0.623529" />
<ellipse cx="170.000000" cy="87.000000" rx="19.000000" ry="19.000000" fill="#26404f" fill-opacity="0.247059" />
<ellipse cx="248.000000" cy="455.000000" rx="8.000000" ry="8.000000" fill="#5233c1" fill-opacity="0.372549" />
<ellipse cx="32.000000" cy="373.000000" rx="7.000000" ry="7.000000" fill="#000000" fill-opacity="0.498039" />
<ellipse cx="394.500000" cy="417.500000" rx="6.500000" ry="6.500000" fill="#001000" fill-opacity="0.498039" />
<ellipse cx="471.000000" cy="431.000000" rx="10.000000" ry="10.000000" fill="#2f4020" fill-opacity="0.878431" />
<ellipse cx="279.000000" cy="346.000000" rx="6.000000" ry="6.000000" fill="#8fa093" fill-opacity="0.752941" />
<ellipse cx="344.000000" cy="393.000000" rx="10.000000" ry="10.000000" fill="#322102" fill-opacity="0.490196" />
<ellipse cx="428.500000" cy="117.500000" rx="13.500000" ry="13.500000" fill="#fafcf8" fill-opacity="0.247059" />
<ellipse cx="6.000000" cy="436.000000" rx="6.000000" ry="6.000000" fill="#e4bf70" fill-opacity="0.745098" />
<ellipse cx="205.000000" cy="157.000000" rx="24.000000" ry="24.000000" fill="#303930" fill-opacity="0.125490" />
<ellipse cx="26.500000" cy="440.500000" rx="4.500000" ry="4.500000" fill="#1f0805" fill-opacity="0.752941" />
<ellipse cx="209.500000" cy="196.500000" rx="10.500000" ry="10.500000" fill="#052e01" fill-opacity="0.121569" />
<ellipse cx="383.000000" cy="343.000000" rx="6.000000" ry="6.000000" fill="#504027" fill-opacity="0.780392" />
<ellipse cx="388.500000" cy="206.500000" rx="12.500000" ry="12.500000" fill="#7f8b7f" fill-opacity="0.498039" />
<ellipse cx="105.000000" cy="306.000000" rx="15.000000" ry="15.000000" fill="#005cc0" fill-opacity="0.215686" />
<ellipse cx="463.500000" cy="264.500000" rx="17.500000" ry="17.500000" fill="#ffffff" fill-opacity="1.000000" />
<ellipse cx="135.000000" cy="407.000000" rx="15.000000" ry="15.000000" fill="#200b18" fill-opacity="0.941176" />
<ellipse cx="34.500000" cy="446.500000" rx="5.500000" ry="5.500000" fill="#40200a" fill-opacity="0.749020" />
<ellipse cx="155.000000" cy="386.000000" rx="26.000000" ry="26.000000" fill="#e01ff0" fill-opacity="0.086275" />
<ellipse cx="264.500000" cy="273.500000" rx="5.500000" ry="5.500000" fill="#000000" fill-opacity="0.498039" />
<ellipse cx="6.500000" cy="366.500000" rx="6.500000" ry="6.500000" fill="#e0c060" fill-opacity="0.749020" />
<ellipse cx="209.500000" cy="440.500000" rx="12.500000" ry="12.500000" fill="#ffd0bf" fill-opacity="0.650980" />
<ellipse cx="325.000000" cy="410.000000" rx="6.000000" ry="6.000000" fill="#eeffbf" fill-opacity="0.498039" />
<ellipse cx="296.500000" cy="148.500000" rx="4.500000" ry="4.500000" fill="#c7bfbf" fill-opacity="0.749020" />
<ellipse cx="135.500000" cy="356.500000" rx="8.500000" ry="8.500000" fill="#fd3edf" fill-opacity="0.247059" />
<ellipse cx="362.500000" cy="-93.500000" rx="111.500000" ry="111.500000" fill="#657064" fill-opacity="0.498039" />
</svg>