<svg viewBox="0 0 481 464" xmlns="http://www.w3.org/2000/svg">
<rect width="481" height="464" fill="#000000" fill-opacity="1"/>
<ellipse cx="240.500000" cy="264.500000" rx="240.500000" ry="240.500000" fill="#7f7f7f" fill-opacity="1.000000" />
<ellipse cx="365.500000" cy="72.500000" rx="115.500000" ry="115.500000" fill="#edf1ef" fill-opacity="1.000000" />
<ellipse cx="165.000000" cy="411.000000" rx="165.000000" ry="165.000000" fill="#553246" fill-opacity="1.000000" />
<ellipse cx="180.500000" cy="50.500000" rx="180.500000" ry="180.500000" fill="#5f5d5d" fill-opacity="0.945098" />
<ellipse cx="419.000000" cy="236.000000" rx="62.000000" ry="62.000000" fill="#eff6f5" fill-opacity="1.000000" />
<ellipse cx="405.000000" cy="419.000000" rx="70.000000" ry="70.000000" fill="#e2b35e" fill-opacity="0.631373" />
<ellipse cx="239.000000" cy="173.000000" rx="88.000000" ry="88.000000" fill="#efeef3" fill-opacity="0.592157" />
<ellipse cx="372.500000" cy="167.500000" rx="48.500000" ry="48.500000" fill="#100100" fill-opacity="0.498039" />
<ellipse cx="47.000000" cy="242.000000" rx="47.000000" ry="47.000000" fill="#fffeff" fill-opacity="0.905882" />
<ellipse cx="35.000000" cy="148.000000" rx="35.000000" ry="35.000000" fill="#fffbfd" fill-opacity="1.000000" />
<ellipse cx="29.500000" cy="101.500000" rx="29.500000" ry="29.500000" fill="#f7efef" fill-opacity="1.000000" />
<ellipse cx="373.500000" cy="88.500000" rx="56.500000" ry="56.500000" fill="#403838" fill-opacity="0.874510" />
<ellipse cx="121.000000" cy="100.000000" rx="89.000000" ry="89.000000" fill="#000000" fill-opacity="0.498039" />
<ellipse cx="282.500000" cy="-120.500000" rx="195.500000" ry="195.500000" fill="#010000" fill-opacity="0.372549" />
<ellipse cx="222.000000" cy="453.000000" rx="27.000000" ry="27.000000" fill="#edbcc8" fill-opacity="0.874510" />
<ellipse cx="30.500000" cy="6.500000" rx="30.500000" ry="30.500000" fill="#e0e0e0" fill-opacity="0.874510" />
<ellipse cx="60.000000" cy="423.000000" rx="60.000000" ry="60.000000" fill="#9f7731" fill-opacity="0.749020" />
<ellipse cx="402.000000" cy="353.000000" rx="79.000000" ry="79.000000" fill="#a49760" fill-opacity="0.717647" />
<ellipse cx="186.500000" cy="333.500000" rx="42.500000" ry="42.500000" fill="#0f0a20" fill-opacity="0.988235" />
<ellipse cx="232.000000" cy="233.000000" rx="68.000000" ry="68.000000" fill="#fffeff" fill-opacity="0.498039" />
<ellipse cx="190.500000" cy="102.500000" rx="30.500000" ry="30.500000" fill="#9f9f7f" fill-opacity="0.905882" />
<ellipse cx="451.500000" cy="131.500000" rx="29.500000" ry="29.500000" fill="#fdfcfd" fill-opacity="1.000000" />
<ellipse cx="207.000000" cy="306.000000" rx="87.000000" ry="87.000000" fill="#000014" fill-opacity="0.227451" />
<ellipse cx="280.500000" cy="150.500000" rx="17.500000" ry="17.500000" fill="#414141" fill-opacity="0.874510" />
<ellipse cx="90.000000" cy="299.000000" rx="37.000000" ry="37.000000" fill="#9eac7f" fill-opacity="0.498039" />
<ellipse cx="20.500000" cy="58.500000" rx="20.500000" ry="20.500000" fill="#f3f4f2" fill-opacity="0.839216" />
<ellipse cx="346.000000" cy="299.000000" rx="30.000000" ry="30.000000" fill="#dfebf2" fill-opacity="0.533333" />
<ellipse cx="348.500000" cy="508.500000" rx="99.500000" ry="99.500000" fill="#d69f56" fill-opacity="0.494118" />
<ellipse cx="368.500000" cy="32.500000" rx="30.500000" ry="30.500000" fill="#80847f" fill-opacity="0.870588" />
<ellipse cx="20.000000" cy="189.000000" rx="20.000000" ry="20.000000" fill="#fcfcfc" fill-opacity="1.000000" />
<ellipse cx="229.000000" cy="281.000000" rx="56.000000" ry="56.000000" fill="#a3bf7f" fill-opacity="0.247059" />
<ellipse cx="440.000000" cy="175.000000" rx="41.000000" ry="41.000000" fill="#fcfffd" fill-opacity="0.984314" />
<ellipse cx="219.500000" cy="322.500000" rx="9.500000" ry="9.500000" fill="#a6a59f" fill-opacity="1.000000" />
<ellipse cx="271.500000" cy="100.500000" rx="39.500000" ry="39.500000" fill="#ffffff" fill-opacity="0.247059" />
<ellipse cx="377.500000" cy="150.500000" rx="49.500000" ry="49.500000" fill="#000004" fill-opacity="0.498039" />
<ellipse cx="263.500000" cy="385.500000" rx="21.500000" ry="21.500000" fill="#e3befe" fill-opacity="0.372549" />
<ellipse cx="196.500000" cy="421.500000" rx="43.500000" ry="43.500000" fill="#7f58ff" fill-opacity="0.247059" />
<ellipse cx="22.000000" cy="355.000000" rx="22.000000" ry="22.000000" fill="#ffdf3f" fill-opacity="0.498039" />
<ellipse cx="392.500000" cy="289.500000" rx="14.500000" ry="14.500000" fill="#000100" fill-opacity="0.498039" />
<ellipse cx="100.500000" cy="160.500000" rx="49.500000" ry="49.500000" fill="#000001" fill-opacity="0.498039" />
<ellipse cx="132.000000" cy="240.000000" rx="25.000000" ry="25.000000" fill="#000303" fill-opacity="0.749020" />
<ellipse cx="301.000000" cy="287.000000" rx="26.000000" ry="26.000000" fill="#000005" fill-opacity="0.431373" />
<ellipse cx="88.000000" cy="224.000000" rx="21.000000" ry="21.000000" fill="#ffffff" fill-opacity="0.498039" />
<ellipse cx="433.000000" cy="21.000000" rx="48.000000" ry="48.000000" fill="#ebf5ef" fill-opacity="0.960784" />
<ellipse cx="208.000000" cy="151.000000" rx="16.000000" ry="16.000000" fill="#0f100e" fill-opacity="0.564706" />
<ellipse cx="50.500000" cy="312.500000" rx="34.500000" ry="34.500000" fill="#3f4001" fill-opacity="0.498039" />
<ellipse cx="459.500000" cy="276.500000" rx="21.500000" ry="21.500000" fill="#ffffff" fill-opacity="0.952941" />
<ellipse cx="148.500000" cy="178.500000" rx="14.500000" ry="14.500000" fill="#eff0f0" fill-opacity="0.494118" />
<ellipse cx="407.000000" cy="40.000000" rx="45.000000" ry="45.000000" fill="#806060" fill-opacity="0.498039" />
<ellipse cx="65.000000" cy="115.000000" rx="25.000000" ry="25.000000" fill="#1d1f20" fill-opacity="0.874510" />
<ellipse cx="397.500000" cy="187.500000" rx="13.500000" ry="13.500000" fill="#807f80" fill-opacity="1.000000" />
</svg>