<svg viewBox="0 0 481 464" xmlns="http://www.w3.org/2000/svg">
<rect width="481" height="464" fill="#000000" fill-opacity="1"/>
<ellipse cx="240.500000" cy="240.500000" rx="240.500000" ry="240.500000" fill="#7f7f7f" fill-opacity="1.000000" />
<ellipse cx="361.000000" cy="75.000000" rx="120.000000" ry="120.000000" fill="#bfbfbf" fill-opacity="1.000000" />
<ellipse cx="162.000000" cy="394.000000" rx="162.000000" ry="162.000000" fill="#5f3f4f" fill-opacity="1.000000" />
<ellipse cx="180.500000" cy="51.500000" rx="180.500000" ry="180.500000" fill="#5f5f5f" fill-opacity="1.000000" />
<ellipse cx="418.000000" cy="237.000000" rx="63.000000" ry="63.000000" fill="#eff7f5" fill-opacity="1.000000" />
<ellipse cx="402.500000" cy="422.500000" rx="71.500000" ry="71.500000" fill="#e8af5e" fill-opacity="0.729412" />
<ellipse cx="240.500000" cy="171.500000" rx="89.500000" ry="89.500000" fill="#f8f4f8" fill-opacity="0.623529" />
<ellipse cx="372.500000" cy="167.500000" rx="48.500000" ry="48.500000" fill="#000000" fill-opacity="0.498039" />
<ellipse cx="47.000000" cy="237.000000" rx="47.000000" ry="47.000000" fill="#fffffb" fill-opacity="0.878431" />
<ellipse cx="31.000000" cy="153.000000" rx="31.000000" ry="31.000000" fill="#fbfbfb" fill-opacity="1.000000" />
<ellipse cx="29.500000" cy="100.500000" rx="29.500000" ry="29.500000" fill="#f9f5f9" fill-opacity="0.933333" />
<ellipse cx="374.000000" cy="99.000000" rx="55.000000" ry="55.000000" fill="#403b3b" fill-opacity="0.874510" />
<ellipse cx="120.000000" cy="105.000000" rx="88.000000" ry="88.000000" fill="#000000" fill-opacity="0.490196" />
<ellipse cx="263.000000" cy="-130.000000" rx="203.000000" ry="203.000000" fill="#050505" fill-opacity="0.360784" />
<ellipse cx="222.000000" cy="452.000000" rx="27.000000" ry="27.000000" fill="#e3afd4" fill-opacity="0.866667" />
<ellipse cx="30.000000" cy="7.000000" rx="30.000000" ry="30.000000" fill="#e0e0e0" fill-opacity="0.874510" />
<ellipse cx="60.000000" cy="424.000000" rx="60.000000" ry="60.000000" fill="#9e7630" fill-opacity="0.749020" />
<ellipse cx="401.500000" cy="354.500000" rx="79.500000" ry="79.500000" fill="#a39860" fill-opacity="0.745098" />
<ellipse cx="176.000000" cy="332.000000" rx="41.000000" ry="41.000000" fill="#0f0b21" fill-opacity="0.854902" />
</svg>