<svg viewBox="0 0 481 464" xmlns="http://www.w3.org/2000/svg">
<rect width="481" height="464" fill="#000000" fill-opacity="1"/>
<ellipse cx="240.500000" cy="268.500000" rx="240.500000" ry="240.500000" fill="#7f7f7f" fill-opacity="1.000000" />
<ellipse cx="363.500000" cy="66.500000" rx="117.500000" ry="117.500000" fill="#f4f5f1" fill-opacity="1.000000" />
<ellipse cx="165.000000" cy="397.000000" rx="165.000000" ry="165.000000" fill="#503040" fill-opacity="0.996078" />
<ellipse cx="180.500000" cy="51.500000" rx="180.500000" ry="180.500000" fill="#5f5f5f" fill-opacity="0.945098" />
<ellipse cx="419.000000" cy="239.000000" rx="62.000000" ry="62.000000" fill="#fbfdfb" fill-opacity="1.000000" />
<ellipse cx="406.000000" cy="418.000000" rx="69.000000" ry="69.000000" fill="#e9b85a" fill-opacity="0.505882" />
<ellipse cx="240.500000" cy="170.500000" rx="89.500000" ry="89.500000" fill="#ffffff" fill-opacity="0.623529" />
<ellipse cx="373.500000" cy="169.500000" rx="46.500000" ry="46.500000" fill="#0e0001" fill-opacity="0.482353" />
<ellipse cx="47.000000" cy="243.000000" rx="47.000000" ry="47.000000" fill="#fffffe" fill-opacity="0.976471" />
<ellipse cx="36.500000" cy="145.500000" rx="36.500000" ry="36.500000" fill="#fafefe" fill-opacity="1.000000" />
<ellipse cx="25.500000" cy="105.500000" rx="25.500000" ry="25.500000" fill="#f3efef" fill-opacity="1.000000" />
<ellipse cx="373.500000" cy="89.500000" rx="55.500000" ry="55.500000" fill="#403838" fill-opacity="0.862745" />
<ellipse cx="118.500000" cy="102.500000" rx="88.500000" ry="88.500000" fill="#000000" fill-opacity="0.498039" />
<ellipse cx="277.500000" cy="-116.500000" rx="190.500000" ry="190.500000" fill="#050505" fill-opacity="0.470588" />
<ellipse cx="222.000000" cy="452.000000" rx="27.000000" ry="27.000000" fill="#f8bdc9" fill-opacity="0.866667" />
<ellipse cx="30.000000" cy="7.000000" rx="30.000000" ry="30.000000" fill="#eeedf1" fill-opacity="0.854902" />
<ellipse cx="60.500000" cy="424.500000" rx="60.500000" ry="60.500000" fill="#806020" fill-opacity="0.698039" />
<ellipse cx="391.500000" cy="364.500000" rx="89.500000" ry="89.500000" fill="#8a8260" fill-opacity="0.690196" />
<ellipse cx="185.500000" cy="333.500000" rx="42.500000" ry="42.500000" fill="#0d0a20" fill-opacity="0.976471" />
<ellipse cx="232.500000" cy="233.500000" rx="67.500000" ry="67.500000" fill="#ffffff" fill-opacity="0.498039" />
<ellipse cx="189.500000" cy="100.500000" rx="31.500000" ry="31.500000" fill="#9f9d7f" fill-opacity="0.627451" />
<ellipse cx="451.500000" cy="131.500000" rx="29.500000" ry="29.500000" fill="#fdfdfc" fill-opacity="1.000000" />
<ellipse cx="203.500000" cy="308.500000" rx="84.500000" ry="84.500000" fill="#010212" fill-opacity="0.243137" />
<ellipse cx="281.000000" cy="151.000000" rx="18.000000" ry="18.000000" fill="#444243" fill-opacity="1.000000" />
<ellipse cx="94.000000" cy="303.000000" rx="41.000000" ry="41.000000" fill="#81817f" fill-opacity="0.486275" />
<ellipse cx="21.500000" cy="57.500000" rx="21.500000" ry="21.500000" fill="#ffffff" fill-opacity="0.874510" />
<ellipse cx="346.000000" cy="299.000000" rx="30.000000" ry="30.000000" fill="#c2e9ff" fill-opacity="0.549020" />
<ellipse cx="349.500000" cy="501.500000" rx="94.500000" ry="94.500000" fill="#db9d40" fill-opacity="0.478431" />
<ellipse cx="369.500000" cy="31.500000" rx="31.500000" ry="31.500000" fill="#92937f" fill-opacity="0.933333" />
<ellipse cx="22.000000" cy="191.000000" rx="22.000000" ry="22.000000" fill="#fdfdfd" fill-opacity="1.000000" />
<ellipse cx="229.000000" cy="281.000000" rx="56.000000" ry="56.000000" fill="#aafe7d" fill-opacity="0.137255" />
<ellipse cx="439.000000" cy="175.000000" rx="42.000000" ry="42.000000" fill="#fefefe" fill-opacity="1.000000" />
<ellipse cx="219.500000" cy="322.500000" rx="9.500000" ry="9.500000" fill="#a5a59f" fill-opacity="1.000000" />
<ellipse cx="271.500000" cy="100.500000" rx="39.500000" ry="39.500000" fill="#ffffff" fill-opacity="0.247059" />
<ellipse cx="377.000000" cy="145.000000" rx="51.000000" ry="51.000000" fill="#050306" fill-opacity="0.498039" />
<ellipse cx="262.000000" cy="393.000000" rx="19.000000" ry="19.000000" fill="#e582fe" fill-opacity="0.294118" />
<ellipse cx="195.500000" cy="424.500000" rx="44.500000" ry="44.500000" fill="#7f5cfe" fill-opacity="0.247059" />
<ellipse cx="26.000000" cy="351.000000" rx="26.000000" ry="26.000000" fill="#ffee3f" fill-opacity="0.498039" />
<ellipse cx="392.500000" cy="290.500000" rx="15.500000" ry="15.500000" fill="#000000" fill-opacity="0.498039" />
<ellipse cx="101.000000" cy="161.000000" rx="49.000000" ry="49.000000" fill="#000000" fill-opacity="0.494118" />
<ellipse cx="132.500000" cy="240.500000" rx="24.500000" ry="24.500000" fill="#000400" fill-opacity="0.749020" />
<ellipse cx="300.000000" cy="290.000000" rx="29.000000" ry="29.000000" fill="#03000c" fill-opacity="0.447059" />
<ellipse cx="88.000000" cy="224.000000" rx="21.000000" ry="21.000000" fill="#ffffff" fill-opacity="0.498039" />
<ellipse cx="430.500000" cy="16.500000" rx="50.500000" ry="50.500000" fill="#fffffb" fill-opacity="0.980392" />
<ellipse cx="208.000000" cy="152.000000" rx="16.000000" ry="16.000000" fill="#000000" fill-opacity="0.623529" />
<ellipse cx="50.500000" cy="313.500000" rx="34.500000" ry="34.500000" fill="#304020" fill-opacity="0.976471" />
<ellipse cx="459.000000" cy="283.000000" rx="22.000000" ry="22.000000" fill="#ffffff" fill-opacity="0.960784" />
<ellipse cx="148.500000" cy="179.500000" rx="13.500000" ry="13.500000" fill="#fffffd" fill-opacity="0.498039" />
<ellipse cx="406.500000" cy="40.500000" rx="45.500000" ry="45.500000" fill="#807e7f" fill-opacity="0.407843" />
<ellipse cx="64.500000" cy="114.500000" rx="25.500000" ry="25.500000" fill="#191720" fill-opacity="0.749020" />
<ellipse cx="398.000000" cy="187.000000" rx="13.000000" ry="13.000000" fill="#9f7f9f" fill-opacity="1.000000" />
<ellipse cx="351.000000" cy="223.000000" rx="21.000000" ry="21.000000" fill="#e7e9e6" fill-opacity="1.000000" />
<ellipse cx="339.000000" cy="424.000000" rx="17.000000" ry="17.000000" fill="#e0dfea" fill-opacity="0.560784" />
<ellipse cx="131.500000" cy="411.500000" rx="44.500000" ry="44.500000" fill="#150001" fill-opacity="0.247059" />
<ellipse cx="83.000000" cy="298.000000" rx="29.000000" ry="29.000000" fill="#9e8d6c" fill-opacity="0.749020" />
<ellipse cx="253.000000" cy="234.000000" rx="11.000000" ry="11.000000" fill="#292d40" fill-opacity="0.874510" />
<ellipse cx="370.500000" cy="156.500000" rx="54.500000" ry="54.500000" fill="#1f2f25" fill-opacity="0.247059" />
<ellipse cx="232.500000" cy="235.500000" rx="11.500000" ry="11.500000" fill="#000100" fill-opacity="0.498039" />
<ellipse cx="311.500000" cy="-146.500000" rx="152.500000" ry="152.500000" fill="#f4efef" fill-opacity="0.486275" />
<ellipse cx="399.500000" cy="356.500000" rx="56.500000" ry="56.500000" fill="#febf49" fill-opacity="0.498039" />
<ellipse cx="57.000000" cy="46.000000" rx="31.000000" ry="31.000000" fill="#020101" fill-opacity="0.243137" />
<ellipse cx="130.500000" cy="493.500000" rx="58.500000" ry="58.500000" fill="#d2602f" fill-opacity="0.376471" />
<ellipse cx="214.500000" cy="238.500000" rx="6.500000" ry="6.500000" fill="#0a1907" fill-opacity="0.835294" />
<ellipse cx="17.500000" cy="315.500000" rx="15.500000" ry="15.500000" fill="#debb3f" fill-opacity="0.749020" />
<ellipse cx="158.500000" cy="281.500000" rx="38.500000" ry="38.500000" fill="#020000" fill-opacity="0.368627" />
<ellipse cx="451.500000" cy="196.500000" rx="29.500000" ry="29.500000" fill="#ffffff" fill-opacity="1.000000" />
<ellipse cx="312.000000" cy="236.000000" rx="18.000000" ry="18.000000" fill="#201418" fill-opacity="0.321569" />
<ellipse cx="340.000000" cy="341.000000" rx="21.000000" ry="21.000000" fill="#aabfc6" fill-opacity="0.694118" />
<ellipse cx="272.500000" cy="360.500000" rx="12.500000" ry="12.500000" fill="#cfe2df" fill-opacity="0.611765" />
<ellipse cx="351.000000" cy="40.000000" rx="95.000000" ry="95.000000" fill="#404040" fill-opacity="0.247059" />
<ellipse cx="214.000000" cy="86.000000" rx="27.000000" ry="27.000000" fill="#8f9094" fill-opacity="0.498039" />
<ellipse cx="191.500000" cy="244.500000" rx="18.500000" ry="18.500000" fill="#dedfe1" fill-opacity="0.682353" />
<ellipse cx="203.000000" cy="231.000000" rx="7.000000" ry="7.000000" fill="#070306" fill-opacity="0.862745" />
<ellipse cx="304.000000" cy="151.000000" rx="19.000000" ry="19.000000" fill="#4e4e4d" fill-opacity="0.807843" />
<ellipse cx="14.500000" cy="123.500000" rx="14.500000" ry="14.500000" fill="#fefefe" fill-opacity="1.000000" />
<ellipse cx="282.500000" cy="449.500000" rx="10.500000" ry="10.500000" fill="#ddbf50" fill-opacity="0.870588" />
<ellipse cx="188.000000" cy="108.000000" rx="22.000000" ry="22.000000" fill="#d3d7df" fill-opacity="0.623529" />
<ellipse cx="374.500000" cy="220.500000" rx="13.500000" ry="13.500000" fill="#808080" fill-opacity="0.490196" />
<ellipse cx="156.500000" cy="117.500000" rx="8.500000" ry="8.500000" fill="#867f7f" fill-opacity="1.000000" />
<ellipse cx="136.000000" cy="215.000000" rx="17.000000" ry="17.000000" fill="#030203" fill-opacity="0.749020" />
<ellipse cx="303.000000" cy="109.000000" rx="25.000000" ry="25.000000" fill="#c0bdc0" fill-opacity="0.490196" />
<ellipse cx="240.500000" cy="354.500000" rx="22.500000" ry="22.500000" fill="#040510" fill-opacity="0.882353" />
<ellipse cx="123.500000" cy="333.500000" rx="13.500000" ry="13.500000" fill="#fd1edd" fill-opacity="0.333333" />
<ellipse cx="459.500000" cy="317.500000" rx="21.500000" ry="21.500000" fill="#5f774f" fill-opacity="0.941176" />
<ellipse cx="29.500000" cy="214.500000" rx="29.500000" ry="29.500000" fill="#fdfefd" fill-opacity="1.000000" />
<ellipse cx="187.500000" cy="192.500000" rx="36.500000" ry="36.500000" fill="#cebfcc" fill-opacity="0.498039" />
<ellipse cx="439.500000" cy="313.500000" rx="20.500000" ry="20.500000" fill="#235936" fill-opacity="0.498039" />
<ellipse cx="15.000000" cy="277.000000" rx="15.000000" ry="15.000000" fill="#fcfcf7" fill-opacity="1.000000" />
<ellipse cx="178.500000" cy="389.500000" rx="27.500000" ry="27.500000" fill="#8640bf" fill-opacity="0.247059" />
<ellipse cx="241.000000" cy="324.000000" rx="11.000000" ry="11.000000" fill="#f7feff" fill-opacity="0.486275" />
<ellipse cx="301.000000" cy="368.000000" rx="23.000000" ry="23.000000" fill="#5f1e53" fill-opacity="1.000000" />
<ellipse cx="35.500000" cy="458.500000" rx="35.500000" ry="35.500000" fill="#cfaf55" fill-opacity="0.498039" />
<ellipse cx="18.500000" cy="381.500000" rx="18.500000" ry="18.500000" fill="#a3833f" fill-opacity="1.000000" />
<ellipse cx="89.000000" cy="196.000000" rx="6.000000" ry="6.000000" fill="#c0bebe" fill-opacity="0.752941" />
<ellipse cx="50.000000" cy="193.000000" rx="13.000000" ry="13.000000" fill="#000000" fill-opacity="0.494118" />
<ellipse cx="392.000000" cy="330.000000" rx="11.000000" ry="11.000000" fill="#5b603a" fill-opacity="0.980392" />
<ellipse cx="413.000000" cy="468.000000" rx="16.000000" ry="16.000000" fill="#fffebf" fill-opacity="0.494118" />
<ellipse cx="319.500000" cy="449.500000" rx="14.500000" ry="14.500000" fill="#280000" fill-opacity="0.490196" />
<ellipse cx="273.500000" cy="460.500000" rx="10.500000" ry="10.500000" fill="#f8e96f" fill-opacity="0.737255" />
<ellipse cx="459.000000" cy="112.000000" rx="22.000000" ry="22.000000" fill="#ffffff" fill-opacity="1.000000" />
<ellipse cx="466.500000" cy="151.500000" rx="14.500000" ry="14.500000" fill="#ffffff" fill-opacity="1.000000" />
<ellipse cx="60.500000" cy="201.500000" rx="10.500000" ry="10.500000" fill="#cfbfd3" fill-opacity="0.890196" />
<ellipse cx="86.500000" cy="366.500000" rx="21.500000" ry="21.500000" fill="#d5cb22" fill-opacity="0.243137" />
<ellipse cx="331.500000" cy="203.500000" rx="12.500000" ry="12.500000" fill="#262a40" fill-opacity="0.466667" />
<ellipse cx="252.000000" cy="427.000000" rx="20.000000" ry="20.000000" fill="#6501c0" fill-opacity="0.247059" />
<ellipse cx="22.000000" cy="86.000000" rx="22.000000" ry="22.000000" fill="#fcfcfb" fill-opacity="0.874510" />
<ellipse cx="176.500000" cy="244.500000" rx="26.500000" ry="26.500000" fill="#f9fffc" fill-opacity="0.207843" />
<ellipse cx="258.500000" cy="152.500000" rx="11.500000" ry="11.500000" fill="#090a06" fill-opacity="0.372549" />
<ellipse cx="90.000000" cy="437.000000" rx="18.000000" ry="18.000000" fill="#fec080" fill-opacity="0.494118" />
<ellipse cx="385.000000" cy="-76.000000" rx="91.000000" ry="91.000000" fill="#665f80" fill-opacity="0.686275" />
<ellipse cx="90.500000" cy="80.500000" rx="15.500000" ry="15.500000" fill="#fffeff" fill-opacity="0.247059" />
<ellipse cx="234.500000" cy="192.500000" rx="39.500000" ry="39.500000" fill="#edeff0" fill-opacity="0.498039" />
<ellipse cx="184.000000" cy="25.000000" rx="87.000000" ry="87.000000" fill="#000102" fill-opacity="0.121569" />
<ellipse cx="404.500000" cy="389.500000" rx="24.500000" ry="24.500000" fill="#000000" fill-opacity="0.372549" />
<ellipse cx="349.000000" cy="284.000000" rx="33.000000" ry="33.000000" fill="#ffddb4" fill-opacity="0.247059" />
<ellipse cx="391.000000" cy="400.000000" rx="11.000000" ry="11.000000" fill="#ebd076" fill-opacity="0.992157" />
<ellipse cx="11.000000" cy="43.000000" rx="11.000000" ry="11.000000" fill="#f6f8fa" fill-opacity="0.996078" />
<ellipse cx="124.000000" cy="365.000000" rx="35.000000" ry="35.000000" fill="#800bd2" fill-opacity="0.121569" />
<ellipse cx="18.000000" cy="26.000000" rx="18.000000" ry="18.000000" fill="#cfcfcf" fill-opacity="0.996078" />
<ellipse cx="408.500000" cy="388.500000" rx="11.500000" ry="11.500000" fill="#fce07f" fill-opacity="0.764706" />
<ellipse cx="169.000000" cy="163.000000" rx="19.000000" ry="19.000000" fill="#000a01" fill-opacity="0.219608" />
<ellipse cx="257.500000" cy="376.500000" rx="13.500000" ry="13.500000" fill="#fefffe" fill-opacity="0.247059" />
<ellipse cx="427.500000" cy="463.500000" rx="53.500000" ry="53.500000" fill="#fdbf3e" fill-opacity="0.247059" />
<ellipse cx="414.000000" cy="293.000000" rx="7.000000" ry="7.000000" fill="#061f02" fill-opacity="0.600000" />
<ellipse cx="24.000000" cy="168.000000" rx="24.000000" ry="24.000000" fill="#fefdfd" fill-opacity="0.996078" />
<ellipse cx="456.000000" cy="94.000000" rx="25.000000" ry="25.000000" fill="#fefffe" fill-opacity="0.988235" />
<ellipse cx="359.500000" cy="197.500000" rx="19.500000" ry="19.500000" fill="#2f2d30" fill-opacity="0.498039" />
<ellipse cx="233.000000" cy="270.000000" rx="12.000000" ry="12.000000" fill="#281e29" fill-opacity="0.941176" />
<ellipse cx="78.500000" cy="149.500000" rx="26.500000" ry="26.500000" fill="#110f0f" fill-opacity="0.988235" />
<ellipse cx="190.500000" cy="141.500000" rx="11.500000" ry="11.500000" fill="#000000" fill-opacity="0.494118" />
<ellipse cx="247.000000" cy="289.000000" rx="10.000000" ry="10.000000" fill="#fffbff" fill-opacity="0.576471" />
<ellipse cx="89.500000" cy="108.500000" rx="10.500000" ry="10.500000" fill="#fffffe" fill-opacity="0.247059" />
<ellipse cx="396.500000" cy="454.500000" rx="7.500000" ry="7.500000" fill="#000a03" fill-opacity="0.494118" />
<ellipse cx="103.500000" cy="74.500000" rx="65.500000" ry="65.500000" fill="#202319" fill-opacity="0.317647" />
<ellipse cx="156.500000" cy="225.500000" rx="19.500000" ry="19.500000" fill="#595e5d" fill-opacity="0.364706" />
<ellipse cx="312.000000" cy="329.000000" rx="18.000000" ry="18.000000" fill="#ce00ec" fill-opacity="0.247059" />
<ellipse cx="278.000000" cy="67.000000" rx="38.000000" ry="38.000000" fill="#7c7c7c" fill-opacity="0.231373" />
<ellipse cx="74.000000" cy="329.000000" rx="8.000000" ry="8.000000" fill="#ff8f61" fill-opacity="0.623529" />
<ellipse cx="317.500000" cy="142.500000" rx="13.500000" ry="13.500000" fill="#bfbdbe" fill-opacity="0.545098" />
<ellipse cx="230.000000" cy="257.000000" rx="14.000000" ry="14.000000" fill="#ffffff" fill-opacity="0.498039" />
<ellipse cx="44.500000" cy="193.500000" rx="6.500000" ry="6.500000" fill="#1d1e20" fill-opacity="0.913725" />
<ellipse cx="128.000000" cy="19.000000" rx="8.000000" ry="8.000000" fill="#a0a8a6" fill-opacity="0.423529" />
<ellipse cx="343.500000" cy="451.500000" rx="15.500000" ry="15.500000" fill="#c2e7f7" fill-opacity="0.368627" />
<ellipse cx="60.500000" cy="-5.500000" rx="16.500000" ry="16.500000" fill="#e7e8e5" fill-opacity="0.498039" />
<ellipse cx="153.500000" cy="-77.500000" rx="85.500000" ry="85.500000" fill="#aeaeae" fill-opacity="0.247059" />
<ellipse cx="226.500000" cy="290.500000" rx="9.500000" ry="9.500000" fill="#ebeaee" fill-opacity="0.690196" />
<ellipse cx="39.500000" cy="395.500000" rx="10.500000" ry="10.500000" fill="#ffdf66" fill-opacity="0.498039" />
<ellipse cx="269.500000" cy="285.500000" rx="10.500000" ry="10.500000" fill="#f4f3f9" fill-opacity="0.478431" />
<ellipse cx="220.500000" cy="407.500000" rx="20.500000" ry="20.500000" fill="#9550fe" fill-opacity="0.247059" />
<ellipse cx="216.000000" cy="235.000000" rx="11.000000" ry="11.000000" fill="#090209" fill-opacity="0.627451" />
<ellipse cx="311.500000" cy="258.500000" rx="19.500000" ry="19.500000" fill="#283c41" fill-opacity="0.407843" />
<ellipse cx="453.500000" cy="216.500000" rx="27.500000" ry="27.500000" fill="#ffffff" fill-opacity="1.000000" />
<ellipse cx="438.000000" cy="365.000000" rx="31.000000" ry="31.000000" fill="#fdfd91" fill-opacity="0.247059" />
<ellipse cx="12.000000" cy="418.000000" rx="12.000000" ry="12.000000" fill="#ffd570" fill-opacity="0.498039" />
<ellipse cx="5.500000" cy="350.500000" rx="5.500000" ry="5.500000" fill="#dfbf8c" fill-opacity="1.000000" />
<ellipse cx="464.000000" cy="38.000000" rx="17.000000" ry="17.000000" fill="#fdfdfe" fill-opacity="1.000000" />
<ellipse cx="201.000000" cy="319.000000" rx="10.000000" ry="10.000000" fill="#f0bfd1" fill-opacity="0.372549" />
<ellipse cx="325.000000" cy="239.000000" rx="13.000000" ry="13.000000" fill="#20261f" fill-opacity="0.749020" />
<ellipse cx="25.500000" cy="152.500000" rx="25.500000" ry="25.500000" fill="#fdfdfd" fill-opacity="0.941176" />
<ellipse cx="51.000000" cy="369.000000" rx="20.000000" ry="20.000000" fill="#444001" fill-opacity="0.482353" />
<ellipse cx="259.000000" cy="319.000000" rx="9.000000" ry="9.000000" fill="#dae5df" fill-opacity="0.498039" />
<ellipse cx="343.500000" cy="390.500000" rx="27.500000" ry="27.500000" fill="#aabebb" fill-opacity="0.247059" />
<ellipse cx="334.500000" cy="242.500000" rx="10.500000" ry="10.500000" fill="#675f2b" fill-opacity="0.498039" />
<ellipse cx="34.000000" cy="51.000000" rx="26.000000" ry="26.000000" fill="#8a8c8b" fill-opacity="0.121569" />
<ellipse cx="248.500000" cy="256.500000" rx="16.500000" ry="16.500000" fill="#fffeff" fill-opacity="0.498039" />
<ellipse cx="106.500000" cy="271.500000" rx="24.500000" ry="24.500000" fill="#1f7f92" fill-opacity="0.243137" />
<ellipse cx="372.000000" cy="277.000000" rx="12.000000" ry="12.000000" fill="#c04000" fill-opacity="0.247059" />
<ellipse cx="141.500000" cy="165.500000" rx="8.500000" ry="8.500000" fill="#7f8c7f" fill-opacity="0.658824" />
<ellipse cx="58.500000" cy="280.500000" rx="5.500000" ry="5.500000" fill="#524021" fill-opacity="0.827451" />
<ellipse cx="364.500000" cy="389.500000" rx="18.500000" ry="18.500000" fill="#aa1103" fill-opacity="0.215686" />
<ellipse cx="252.000000" cy="394.000000" rx="8.000000" ry="8.000000" fill="#cfe0bf" fill-opacity="0.870588" />
<ellipse cx="460.000000" cy="361.000000" rx="10.000000" ry="10.000000" fill="#07361f" fill-opacity="0.494118" />
<ellipse cx="431.000000" cy="14.000000" rx="10.000000" ry="10.000000" fill="#000003" fill-opacity="0.247059" />
<ellipse cx="469.000000" cy="400.000000" rx="12.000000" ry="12.000000" fill="#393f29" fill-opacity="0.929412" />
<ellipse cx="253.000000" cy="271.000000" rx="8.000000" ry="8.000000" fill="#010501" fill-opacity="0.419608" />
<ellipse cx="414.000000" cy="365.000000" rx="7.000000" ry="7.000000" fill="#303219" fill-opacity="0.639216" />
<ellipse cx="208.000000" cy="271.000000" rx="9.000000" ry="9.000000" fill="#010000" fill-opacity="0.498039" />
<ellipse cx="428.000000" cy="77.000000" rx="9.000000" ry="9.000000" fill="#201920" fill-opacity="0.498039" />
<ellipse cx="431.500000" cy="388.500000" rx="5.500000" ry="5.500000" fill="#000000" fill-opacity="0.498039" />
<ellipse cx="52.000000" cy="403.000000" rx="11.000000" ry="11.000000" fill="#ffcf3e" fill-opacity="0.498039" />
<ellipse cx="271.000000" cy="165.000000" rx="7.000000" ry="7.000000" fill="#e1e3e1" fill-opacity="0.823529" />
<ellipse cx="77.500000" cy="373.500000" rx="9.500000" ry="9.500000" fill="#ff9780" fill-opacity="0.623529" />
<ellipse cx="141.500000" cy="452.500000" rx="9.500000" ry="9.500000" fill="#efe037" fill-opacity="0.411765" />
<ellipse cx="210.000000" cy="254.000000" rx="15.000000" ry="15.000000" fill="#d3bfcf" fill-opacity="0.721569" />
<ellipse cx="180.500000" cy="156.500000" rx="7.500000" ry="7.500000" fill="#030703" fill-opacity="0.745098" />
<ellipse cx="308.000000" cy="473.000000" rx="24.000000" ry="24.000000" fill="#930f18" fill-opacity="0.858824" />
<ellipse cx="359.500000" cy="245.500000" rx="9.500000" ry="9.500000" fill="#fefefb" fill-opacity="0.870588" />
</svg>