<svg viewBox="0 0 343 426" xmlns="http://www.w3.org/2000/svg">
<rect width="343" height="426" fill="#000000" fill-opacity="1"/>
<polygon points="85.000000,418.000000,314.000000,23.000000,42.000000,53.000000," fill="#a09b84" fill-opacity="0.376471" />
<polygon points="279.000000,25.000000,244.000000,158.000000,107.000000,0.000000," fill="#d0c3b6" fill-opacity="0.439216" />
<polygon points="320.000000,13.000000,321.000000,426.000000,88.000000,414.000000," fill="#c0a591" fill-opacity="0.501961" />
<polygon points="230.000000,293.000000,16.000000,350.000000,0.000000,133.000000," fill="#2d3140" fill-opacity="0.890196" />
<polygon points="90.000000,27.000000,0.000000,213.000000,19.000000,92.000000," fill="#b1b4be" fill-opacity="0.729412" />
<polygon points="322.000000,240.000000,172.000000,426.000000,300.000000,413.000000," fill="#f0eeed" fill-opacity="0.556863" />
<polygon points="343.000000,213.000000,324.000000,126.000000,171.000000,259.000000," fill="#ececdf" fill-opacity="0.498039" />
<polygon points="40.000000,60.000000,174.000000,225.000000,0.000000,219.000000," fill="#f4ddbc" fill-opacity="0.247059" />
<polygon points="199.000000,47.000000,271.000000,286.000000,289.000000,213.000000," fill="#efecde" fill-opacity="0.498039" />
<polygon points="222.000000,0.000000,333.000000,107.000000,64.000000,27.000000," fill="#bfbfba" fill-opacity="0.431373" />
<polygon points="309.000000,286.000000,129.000000,348.000000,86.000000,217.000000," fill="#000d00" fill-opacity="0.494118" />
<polygon points="80.000000,387.000000,80.000000,271.000000,175.000000,416.000000," fill="#fcfdff" fill-opacity="0.247059" />
<polygon points="269.000000,424.000000,330.000000,132.000000,328.000000,280.000000," fill="#f8efe5" fill-opacity="0.372549" />
</svg>