<svg viewBox="0 0 343 426" xmlns="http://www.w3.org/2000/svg">
<rect width="343" height="426" fill="#000000" fill-opacity="1"/>
<polygon points="85.000000,417.000000,315.000000,23.000000,42.000000,55.000000," fill="#808380" fill-opacity="0.376471" />
<polygon points="300.000000,26.000000,244.000000,156.000000,125.000000,8.000000," fill="#ffe0bc" fill-opacity="0.435294" />
<polygon points="321.000000,13.000000,301.000000,420.000000,88.000000,413.000000," fill="#c0a080" fill-opacity="0.501961" />
<polygon points="343.000000,293.000000,17.000000,326.000000,0.000000,146.000000," fill="#2c3640" fill-opacity="0.501961" />
<polygon points="89.000000,27.000000,0.000000,213.000000,21.000000,92.000000," fill="#bfbff8" fill-opacity="0.749020" />
<polygon points="311.000000,295.000000,193.000000,426.000000,298.000000,410.000000," fill="#ffd6e2" fill-opacity="0.576471" />
<polygon points="343.000000,213.000000,322.000000,121.000000,168.000000,265.000000," fill="#f7f7eb" fill-opacity="0.490196" />
<polygon points="39.000000,59.000000,177.000000,220.000000,0.000000,226.000000," fill="#fffeee" fill-opacity="0.247059" />
<polygon points="199.000000,47.000000,271.000000,280.000000,288.000000,213.000000," fill="#fbf4f5" fill-opacity="0.490196" />
<polygon points="219.000000,6.000000,322.000000,107.000000,85.000000,30.000000," fill="#bcbfbf" fill-opacity="0.403922" />
<polygon points="310.000000,281.000000,129.000000,359.000000,87.000000,219.000000," fill="#000500" fill-opacity="0.498039" />
<polygon points="83.000000,388.000000,78.000000,267.000000,181.000000,424.000000," fill="#fbfeff" fill-opacity="0.247059" />
<polygon points="270.000000,414.000000,330.000000,145.000000,328.000000,283.000000," fill="#fffbf3" fill-opacity="0.498039" />
<polygon points="291.000000,417.000000,157.000000,397.000000,327.000000,240.000000," fill="#bfd0bf" fill-opacity="0.498039" />
<polygon points="164.000000,0.000000,11.000000,160.000000,95.000000,13.000000," fill="#383737" fill-opacity="0.686275" />
<polygon points="260.000000,241.000000,238.000000,307.000000,132.000000,164.000000," fill="#806e56" fill-opacity="0.490196" />
<polygon points="188.000000,129.000000,107.000000,36.000000,267.000000,53.000000," fill="#95937f" fill-opacity="0.498039" />
<polygon points="322.000000,271.000000,321.000000,241.000000,147.000000,269.000000," fill="#fffff8" fill-opacity="0.247059" />
<polygon points="117.000000,212.000000,99.000000,109.000000,64.000000,139.000000," fill="#fffff9" fill-opacity="0.247059" />
<polygon points="246.000000,7.000000,343.000000,13.000000,317.000000,106.000000," fill="#000000" fill-opacity="0.984314" />
<polygon points="316.000000,21.000000,291.000000,310.000000,279.000000,320.000000," fill="#010000" fill-opacity="0.498039" />
<polygon points="260.000000,213.000000,343.000000,199.000000,317.000000,110.000000," fill="#cdc7bf" fill-opacity="0.870588" />
<polygon points="107.000000,359.000000,279.000000,422.000000,279.000000,358.000000," fill="#ffffff" fill-opacity="0.247059" />
<polygon points="175.000000,267.000000,140.000000,169.000000,97.000000,187.000000," fill="#fef9de" fill-opacity="0.247059" />
<polygon points="66.000000,318.000000,21.000000,279.000000,48.000000,347.000000," fill="#bbc09e" fill-opacity="0.376471" />
<polygon points="228.000000,293.000000,118.000000,375.000000,209.000000,105.000000," fill="#010500" fill-opacity="0.247059" />
<polygon points="44.000000,414.000000,177.000000,422.000000,208.000000,346.000000," fill="#010000" fill-opacity="0.498039" />
<polygon points="183.000000,133.000000,191.000000,162.000000,169.000000,232.000000," fill="#feffff" fill-opacity="0.498039" />
<polygon points="328.000000,349.000000,301.000000,301.000000,237.000000,280.000000," fill="#020300" fill-opacity="0.435294" />
<polygon points="331.000000,293.000000,236.000000,262.000000,242.000000,189.000000," fill="#ffffff" fill-opacity="0.247059" />
<polygon points="42.000000,91.000000,88.000000,320.000000,96.000000,213.000000," fill="#010600" fill-opacity="0.435294" />
<polygon points="102.000000,267.000000,129.000000,414.000000,28.000000,306.000000," fill="#fdfcfe" fill-opacity="0.121569" />
<polygon points="287.000000,158.000000,311.000000,106.000000,317.000000,157.000000," fill="#3c2a22" fill-opacity="0.749020" />
<polygon points="322.000000,320.000000,205.000000,373.000000,204.000000,300.000000," fill="#fafcff" fill-opacity="0.121569" />
<polygon points="12.000000,267.000000,150.000000,93.000000,172.000000,133.000000," fill="#010200" fill-opacity="0.247059" />
<polygon points="128.000000,43.000000,177.000000,58.000000,317.000000,210.000000," fill="#c0b6a7" fill-opacity="0.454902" />
<polygon points="117.000000,297.000000,343.000000,179.000000,342.000000,240.000000," fill="#7e8472" fill-opacity="0.192157" />
<polygon points="258.000000,78.000000,39.000000,203.000000,300.000000,107.000000," fill="#020000" fill-opacity="0.247059" />
<polygon points="218.000000,400.000000,89.000000,242.000000,322.000000,195.000000," fill="#040001" fill-opacity="0.058824" />
<polygon points="248.000000,426.000000,236.000000,293.000000,83.000000,391.000000," fill="#fdfef9" fill-opacity="0.121569" />
<polygon points="278.000000,42.000000,215.000000,66.000000,310.000000,93.000000," fill="#bfbfc0" fill-opacity="0.749020" />
<polygon points="5.000000,239.000000,2.000000,133.000000,94.000000,22.000000," fill="#fdfcfc" fill-opacity="0.207843" />
<polygon points="309.000000,77.000000,46.000000,267.000000,132.000000,300.000000," fill="#000300" fill-opacity="0.121569" />
<polygon points="97.000000,293.000000,6.000000,213.000000,21.000000,59.000000," fill="#080501" fill-opacity="0.243137" />
<polygon points="216.000000,265.000000,206.000000,264.000000,162.000000,131.000000," fill="#beba7f" fill-opacity="0.243137" />
<polygon points="279.000000,83.000000,163.000000,85.000000,300.000000,117.000000," fill="#030101" fill-opacity="0.243137" />
<polygon points="1.000000,203.000000,85.000000,114.000000,42.000000,112.000000," fill="#040000" fill-opacity="0.247059" />
<polygon points="0.000000,318.000000,172.000000,32.000000,322.000000,337.000000," fill="#10180a" fill-opacity="0.003922" />
<polygon points="95.000000,19.000000,257.000000,23.000000,182.000000,0.000000," fill="#908072" fill-opacity="0.498039" />
<polygon points="150.000000,320.000000,283.000000,319.000000,123.000000,379.000000," fill="#3e4241" fill-opacity="0.247059" />
<polygon points="169.000000,347.000000,187.000000,426.000000,279.000000,423.000000," fill="#7f8e7f" fill-opacity="0.498039" />
<polygon points="190.000000,53.000000,262.000000,127.000000,292.000000,300.000000," fill="#fffdf9" fill-opacity="0.247059" />
<polygon points="148.000000,160.000000,150.000000,320.000000,182.000000,186.000000," fill="#3f422f" fill-opacity="0.494118" />
<polygon points="0.000000,199.000000,189.000000,233.000000,78.000000,155.000000," fill="#fddac8" fill-opacity="0.121569" />
<polygon points="253.000000,202.000000,117.000000,22.000000,107.000000,167.000000," fill="#000000" fill-opacity="0.247059" />
<polygon points="333.000000,114.000000,129.000000,14.000000,291.000000,186.000000," fill="#161100" fill-opacity="0.058824" />
<polygon points="236.000000,7.000000,98.000000,93.000000,311.000000,80.000000," fill="#dcd4d9" fill-opacity="0.121569" />
<polygon points="25.000000,285.000000,42.000000,227.000000,2.000000,227.000000," fill="#c7c37f" fill-opacity="0.247059" />
<polygon points="299.000000,413.000000,305.000000,321.000000,312.000000,373.000000," fill="#e0e0d1" fill-opacity="0.749020" />
<polygon points="0.000000,212.000000,53.000000,52.000000,0.000000,160.000000," fill="#ffffff" fill-opacity="0.247059" />
<polygon points="66.000000,47.000000,107.000000,376.000000,108.000000,16.000000," fill="#fff472" fill-opacity="0.058824" />
<polygon points="86.000000,213.000000,254.000000,199.000000,322.000000,213.000000," fill="#fbfdfc" fill-opacity="0.180392" />
<polygon points="1.000000,223.000000,33.000000,81.000000,3.000000,147.000000," fill="#92969d" fill-opacity="1.000000" />
<polygon points="177.000000,425.000000,279.000000,423.000000,315.000000,369.000000," fill="#fdfefe" fill-opacity="0.247059" />
<polygon points="288.000000,55.000000,151.000000,0.000000,253.000000,22.000000," fill="#bfdcdf" fill-opacity="0.247059" />
<polygon points="177.000000,113.000000,158.000000,213.000000,183.000000,415.000000," fill="#040302" fill-opacity="0.247059" />
<polygon points="343.000000,360.000000,333.000000,240.000000,319.000000,273.000000," fill="#000000" fill-opacity="0.874510" />
<polygon points="315.000000,309.000000,274.000000,373.000000,337.000000,198.000000," fill="#fffffd" fill-opacity="0.247059" />
<polygon points="239.000000,160.000000,247.000000,266.000000,293.000000,156.000000," fill="#d7cfce" fill-opacity="0.498039" />
<polygon points="313.000000,237.000000,283.000000,188.000000,288.000000,334.000000," fill="#000000" fill-opacity="0.121569" />
<polygon points="316.000000,159.000000,85.000000,65.000000,117.000000,426.000000," fill="#0f1612" fill-opacity="0.007843" />
<polygon points="29.000000,273.000000,37.000000,278.000000,65.000000,109.000000," fill="#e1dbd2" fill-opacity="0.184314" />
<polygon points="160.000000,226.000000,128.000000,228.000000,221.000000,60.000000," fill="#ffffbe" fill-opacity="0.121569" />
<polygon points="169.000000,280.000000,172.000000,228.000000,256.000000,259.000000," fill="#eec77f" fill-opacity="0.121569" />
<polygon points="0.000000,132.000000,275.000000,313.000000,274.000000,45.000000," fill="#121c11" fill-opacity="0.007843" />
<polygon points="288.000000,273.000000,281.000000,267.000000,253.000000,416.000000," fill="#e1bfc2" fill-opacity="0.368627" />
<polygon points="214.000000,192.000000,258.000000,213.000000,226.000000,219.000000," fill="#fffefe" fill-opacity="0.247059" />
<polygon points="30.000000,103.000000,0.000000,183.000000,64.000000,248.000000," fill="#918170" fill-opacity="0.247059" />
<polygon points="151.000000,423.000000,86.000000,327.000000,226.000000,426.000000," fill="#646160" fill-opacity="0.498039" />
<polygon points="171.000000,0.000000,67.000000,40.000000,140.000000,2.000000," fill="#ffffff" fill-opacity="0.247059" />
<polygon points="173.000000,0.000000,79.000000,32.000000,132.000000,93.000000," fill="#80602f" fill-opacity="0.247059" />
<polygon points="334.000000,343.000000,139.000000,1.000000,0.000000,345.000000," fill="#0b160d" fill-opacity="0.003922" />
<polygon points="139.000000,329.000000,257.000000,315.000000,246.000000,301.000000," fill="#debf7f" fill-opacity="0.243137" />
<polygon points="128.000000,226.000000,143.000000,187.000000,342.000000,239.000000," fill="#0b0200" fill-opacity="0.058824" />
<polygon points="164.000000,187.000000,281.000000,286.000000,204.000000,210.000000," fill="#f2ecdc" fill-opacity="0.164706" />
<polygon points="103.000000,399.000000,59.000000,260.000000,188.000000,405.000000," fill="#b9a498" fill-opacity="0.121569" />
<polygon points="274.000000,73.000000,1.000000,318.000000,300.000000,337.000000," fill="#06130e" fill-opacity="0.003922" />
<polygon points="159.000000,421.000000,226.000000,308.000000,241.000000,425.000000," fill="#95857f" fill-opacity="0.247059" />
<polygon points="240.000000,155.000000,340.000000,214.000000,338.000000,233.000000," fill="#261203" fill-opacity="0.121569" />
<polygon points="77.000000,304.000000,262.000000,405.000000,104.000000,333.000000," fill="#f1e0df" fill-opacity="0.121569" />
<polygon points="329.000000,114.000000,269.000000,198.000000,217.000000,53.000000," fill="#414b01" fill-opacity="0.058824" />
</svg>