<svg viewBox="0 0 343 426" xmlns="http://www.w3.org/2000/svg">
<rect width="343" height="426" fill="#000000" fill-opacity="1"/>
<polygon points="85.000000,413.000000,315.000000,23.000000,42.000000,63.000000," fill="#808380" fill-opacity="0.376471" />
<polygon points="295.000000,26.000000,246.000000,153.000000,124.000000,13.000000," fill="#ffe8bc" fill-opacity="0.435294" />
<polygon points="321.000000,13.000000,305.000000,407.000000,86.000000,413.000000," fill="#c0a080" fill-opacity="0.501961" />
<polygon points="342.000000,293.000000,19.000000,326.000000,0.000000,146.000000," fill="#2c3640" fill-opacity="0.501961" />
<polygon points="90.000000,27.000000,1.000000,213.000000,21.000000,92.000000," fill="#bbbbe6" fill-opacity="0.686275" />
<polygon points="311.000000,298.000000,193.000000,426.000000,299.000000,413.000000," fill="#f9dfee" fill-opacity="0.600000" />
<polygon points="343.000000,214.000000,322.000000,121.000000,170.000000,265.000000," fill="#fff7f9" fill-opacity="0.498039" />
<polygon points="39.000000,63.000000,177.000000,220.000000,1.000000,226.000000," fill="#fefeee" fill-opacity="0.247059" />
<polygon points="199.000000,47.000000,271.000000,280.000000,288.000000,214.000000," fill="#fff3e7" fill-opacity="0.486275" />
<polygon points="219.000000,6.000000,325.000000,107.000000,85.000000,30.000000," fill="#bebdbf" fill-opacity="0.403922" />
<polygon points="310.000000,281.000000,131.000000,358.000000,86.000000,218.000000," fill="#000500" fill-opacity="0.498039" />
<polygon points="83.000000,388.000000,78.000000,267.000000,182.000000,420.000000," fill="#fefdff" fill-opacity="0.247059" />
<polygon points="270.000000,419.000000,329.000000,144.000000,328.000000,283.000000," fill="#fffbf3" fill-opacity="0.498039" />
<polygon points="291.000000,419.000000,157.000000,397.000000,327.000000,240.000000," fill="#bfd0bf" fill-opacity="0.498039" />
<polygon points="164.000000,0.000000,11.000000,160.000000,96.000000,13.000000," fill="#3e3e3d" fill-opacity="0.678431" />
<polygon points="258.000000,241.000000,240.000000,307.000000,129.000000,162.000000," fill="#806750" fill-opacity="0.482353" />
<polygon points="188.000000,129.000000,107.000000,36.000000,267.000000,53.000000," fill="#96927e" fill-opacity="0.494118" />
<polygon points="322.000000,271.000000,321.000000,241.000000,147.000000,269.000000," fill="#fffff7" fill-opacity="0.247059" />
<polygon points="116.000000,213.000000,99.000000,109.000000,64.000000,138.000000," fill="#fdf9f9" fill-opacity="0.247059" />
<polygon points="246.000000,7.000000,343.000000,13.000000,317.000000,106.000000," fill="#000000" fill-opacity="0.996078" />
<polygon points="316.000000,38.000000,291.000000,307.000000,279.000000,320.000000," fill="#010300" fill-opacity="0.498039" />
<polygon points="260.000000,213.000000,343.000000,198.000000,317.000000,118.000000," fill="#ccc5bf" fill-opacity="0.972549" />
<polygon points="107.000000,359.000000,280.000000,422.000000,280.000000,359.000000," fill="#fefffe" fill-opacity="0.247059" />
<polygon points="175.000000,267.000000,140.000000,168.000000,97.000000,187.000000," fill="#fef9de" fill-opacity="0.247059" />
<polygon points="67.000000,319.000000,21.000000,279.000000,48.000000,347.000000," fill="#bec0b2" fill-opacity="0.396078" />
<polygon points="230.000000,291.000000,118.000000,375.000000,199.000000,106.000000," fill="#000500" fill-opacity="0.247059" />
<polygon points="51.000000,416.000000,177.000000,422.000000,209.000000,343.000000," fill="#070604" fill-opacity="0.435294" />
<polygon points="183.000000,134.000000,191.000000,160.000000,169.000000,232.000000," fill="#fefff0" fill-opacity="0.498039" />
<polygon points="328.000000,349.000000,304.000000,300.000000,238.000000,280.000000," fill="#000000" fill-opacity="0.498039" />
<polygon points="332.000000,293.000000,236.000000,262.000000,244.000000,160.000000," fill="#ffffff" fill-opacity="0.247059" />
<polygon points="42.000000,91.000000,88.000000,320.000000,96.000000,213.000000," fill="#020a00" fill-opacity="0.403922" />
<polygon points="102.000000,273.000000,130.000000,418.000000,29.000000,306.000000," fill="#fdfefd" fill-opacity="0.121569" />
<polygon points="289.000000,158.000000,311.000000,106.000000,317.000000,157.000000," fill="#3b2822" fill-opacity="0.749020" />
<polygon points="309.000000,320.000000,204.000000,400.000000,207.000000,300.000000," fill="#fbfafb" fill-opacity="0.121569" />
<polygon points="17.000000,267.000000,150.000000,93.000000,172.000000,133.000000," fill="#0d0a00" fill-opacity="0.247059" />
<polygon points="128.000000,43.000000,176.000000,54.000000,317.000000,210.000000," fill="#c0beaf" fill-opacity="0.490196" />
<polygon points="116.000000,297.000000,343.000000,179.000000,342.000000,240.000000," fill="#7f967c" fill-opacity="0.192157" />
<polygon points="258.000000,79.000000,38.000000,203.000000,300.000000,107.000000," fill="#010000" fill-opacity="0.247059" />
<polygon points="217.000000,400.000000,93.000000,246.000000,322.000000,193.000000," fill="#040003" fill-opacity="0.058824" />
<polygon points="250.000000,426.000000,235.000000,293.000000,84.000000,388.000000," fill="#fdfef4" fill-opacity="0.121569" />
<polygon points="278.000000,42.000000,215.000000,66.000000,310.000000,93.000000," fill="#bfbfc1" fill-opacity="0.686275" />
<polygon points="1.000000,239.000000,2.000000,133.000000,94.000000,23.000000," fill="#e9f9f6" fill-opacity="0.188235" />
<polygon points="306.000000,77.000000,58.000000,269.000000,131.000000,304.000000," fill="#000200" fill-opacity="0.121569" />
<polygon points="97.000000,294.000000,6.000000,213.000000,21.000000,59.000000," fill="#000000" fill-opacity="0.247059" />
<polygon points="216.000000,266.000000,206.000000,265.000000,162.000000,133.000000," fill="#bfb97e" fill-opacity="0.247059" />
<polygon points="279.000000,83.000000,161.000000,85.000000,300.000000,119.000000," fill="#010300" fill-opacity="0.243137" />
<polygon points="1.000000,206.000000,85.000000,114.000000,42.000000,112.000000," fill="#030000" fill-opacity="0.247059" />
<polygon points="0.000000,318.000000,172.000000,28.000000,322.000000,337.000000," fill="#08140f" fill-opacity="0.003922" />
<polygon points="95.000000,19.000000,256.000000,23.000000,182.000000,0.000000," fill="#968c76" fill-opacity="0.498039" />
<polygon points="148.000000,327.000000,279.000000,318.000000,123.000000,379.000000," fill="#3b4640" fill-opacity="0.247059" />
<polygon points="167.000000,347.000000,186.000000,426.000000,279.000000,423.000000," fill="#7f8e7e" fill-opacity="0.498039" />
<polygon points="190.000000,53.000000,262.000000,127.000000,292.000000,300.000000," fill="#fffffd" fill-opacity="0.247059" />
<polygon points="140.000000,187.000000,150.000000,358.000000,182.000000,183.000000," fill="#3b402e" fill-opacity="0.494118" />
<polygon points="0.000000,198.000000,190.000000,233.000000,85.000000,159.000000," fill="#feecdf" fill-opacity="0.121569" />
<polygon points="257.000000,200.000000,117.000000,26.000000,107.000000,167.000000," fill="#000400" fill-opacity="0.247059" />
<polygon points="333.000000,114.000000,129.000000,14.000000,292.000000,186.000000," fill="#050100" fill-opacity="0.058824" />
<polygon points="234.000000,10.000000,101.000000,92.000000,311.000000,80.000000," fill="#fff8fb" fill-opacity="0.121569" />
<polygon points="25.000000,285.000000,42.000000,228.000000,2.000000,227.000000," fill="#ffedbf" fill-opacity="0.247059" />
<polygon points="299.000000,426.000000,305.000000,321.000000,312.000000,373.000000," fill="#e1e0d2" fill-opacity="0.749020" />
<polygon points="0.000000,212.000000,53.000000,52.000000,0.000000,160.000000," fill="#feffff" fill-opacity="0.247059" />
<polygon points="65.000000,48.000000,109.000000,374.000000,108.000000,16.000000," fill="#fffc79" fill-opacity="0.058824" />
<polygon points="86.000000,213.000000,257.000000,199.000000,322.000000,213.000000," fill="#fefde8" fill-opacity="0.180392" />
<polygon points="2.000000,222.000000,32.000000,81.000000,3.000000,147.000000," fill="#899091" fill-opacity="0.984314" />
<polygon points="172.000000,423.000000,279.000000,423.000000,311.000000,373.000000," fill="#fefefa" fill-opacity="0.247059" />
<polygon points="288.000000,55.000000,156.000000,0.000000,253.000000,22.000000," fill="#bfc7c8" fill-opacity="0.247059" />
<polygon points="177.000000,113.000000,158.000000,213.000000,183.000000,415.000000," fill="#0f0102" fill-opacity="0.247059" />
<polygon points="343.000000,360.000000,333.000000,241.000000,319.000000,273.000000," fill="#000000" fill-opacity="0.874510" />
<polygon points="315.000000,309.000000,274.000000,380.000000,337.000000,198.000000," fill="#ffffff" fill-opacity="0.247059" />
<polygon points="239.000000,160.000000,247.000000,252.000000,293.000000,156.000000," fill="#dfdedd" fill-opacity="0.498039" />
<polygon points="313.000000,234.000000,284.000000,213.000000,287.000000,321.000000," fill="#000300" fill-opacity="0.470588" />
<polygon points="333.000000,154.000000,72.000000,65.000000,94.000000,413.000000," fill="#0e150b" fill-opacity="0.007843" />
<polygon points="29.000000,273.000000,37.000000,278.000000,65.000000,109.000000," fill="#faddf3" fill-opacity="0.184314" />
<polygon points="158.000000,226.000000,128.000000,227.000000,220.000000,63.000000," fill="#fffde2" fill-opacity="0.121569" />
<polygon points="169.000000,281.000000,172.000000,236.000000,252.000000,259.000000," fill="#ffc47f" fill-opacity="0.121569" />
<polygon points="11.000000,13.000000,275.000000,319.000000,274.000000,50.000000," fill="#131a1b" fill-opacity="0.007843" />
<polygon points="289.000000,269.000000,281.000000,267.000000,253.000000,418.000000," fill="#e0bfcc" fill-opacity="0.498039" />
<polygon points="214.000000,193.000000,258.000000,213.000000,226.000000,219.000000," fill="#edeeee" fill-opacity="0.494118" />
<polygon points="32.000000,83.000000,0.000000,213.000000,64.000000,248.000000," fill="#938176" fill-opacity="0.247059" />
<polygon points="150.000000,421.000000,86.000000,329.000000,226.000000,422.000000," fill="#676061" fill-opacity="0.498039" />
<polygon points="171.000000,0.000000,67.000000,40.000000,140.000000,2.000000," fill="#ffffff" fill-opacity="0.247059" />
<polygon points="174.000000,0.000000,80.000000,32.000000,133.000000,93.000000," fill="#81602e" fill-opacity="0.247059" />
<polygon points="333.000000,346.000000,139.000000,0.000000,0.000000,344.000000," fill="#07140e" fill-opacity="0.003922" />
<polygon points="138.000000,329.000000,257.000000,315.000000,246.000000,301.000000," fill="#fefefa" fill-opacity="0.243137" />
<polygon points="164.000000,226.000000,143.000000,187.000000,342.000000,239.000000," fill="#000004" fill-opacity="0.113725" />
<polygon points="164.000000,188.000000,281.000000,286.000000,206.000000,211.000000," fill="#fef9ed" fill-opacity="0.184314" />
<polygon points="102.000000,399.000000,60.000000,260.000000,177.000000,426.000000," fill="#ffffff" fill-opacity="0.121569" />
<polygon points="263.000000,13.000000,0.000000,318.000000,277.000000,334.000000," fill="#0c130f" fill-opacity="0.003922" />
<polygon points="160.000000,423.000000,226.000000,319.000000,241.000000,425.000000," fill="#92877b" fill-opacity="0.372549" />
<polygon points="241.000000,156.000000,342.000000,214.000000,338.000000,233.000000," fill="#240300" fill-opacity="0.121569" />
<polygon points="77.000000,303.000000,260.000000,406.000000,104.000000,333.000000," fill="#fffbfd" fill-opacity="0.121569" />
<polygon points="332.000000,116.000000,271.000000,187.000000,220.000000,53.000000," fill="#414001" fill-opacity="0.121569" />
<polygon points="142.000000,41.000000,326.000000,160.000000,229.000000,133.000000," fill="#f1e3d3" fill-opacity="0.117647" />
<polygon points="114.000000,266.000000,96.000000,334.000000,287.000000,331.000000," fill="#001700" fill-opacity="0.121569" />
<polygon points="154.000000,2.000000,338.000000,353.000000,252.000000,173.000000," fill="#ffffff" fill-opacity="0.152941" />
<polygon points="220.000000,83.000000,86.000000,100.000000,145.000000,60.000000," fill="#725d36" fill-opacity="0.247059" />
<polygon points="85.000000,389.000000,96.000000,249.000000,107.000000,268.000000," fill="#f4dcd9" fill-opacity="0.247059" />
<polygon points="64.000000,0.000000,0.000000,414.000000,333.000000,239.000000," fill="#02130d" fill-opacity="0.003922" />
<polygon points="179.000000,147.000000,192.000000,396.000000,193.000000,213.000000," fill="#fffcfa" fill-opacity="0.121569" />
<polygon points="110.000000,226.000000,66.000000,219.000000,164.000000,167.000000," fill="#fff4da" fill-opacity="0.121569" />
<polygon points="57.000000,53.000000,24.000000,103.000000,95.000000,31.000000," fill="#feffff" fill-opacity="0.498039" />
<polygon points="239.000000,392.000000,26.000000,136.000000,1.000000,413.000000," fill="#07040c" fill-opacity="0.007843" />
<polygon points="126.000000,92.000000,13.000000,413.000000,299.000000,329.000000," fill="#061b11" fill-opacity="0.007843" />
<polygon points="295.000000,240.000000,297.000000,373.000000,311.000000,291.000000," fill="#d2bfc7" fill-opacity="0.749020" />
<polygon points="319.000000,350.000000,1.000000,273.000000,204.000000,93.000000," fill="#02140e" fill-opacity="0.003922" />
<polygon points="161.000000,143.000000,14.000000,253.000000,59.000000,168.000000," fill="#000000" fill-opacity="0.121569" />
<polygon points="20.000000,333.000000,252.000000,234.000000,160.000000,406.000000," fill="#010000" fill-opacity="0.050980" />
<polygon points="60.000000,159.000000,107.000000,73.000000,21.000000,303.000000," fill="#fdfaf0" fill-opacity="0.090196" />
<polygon points="43.000000,289.000000,280.000000,212.000000,34.000000,321.000000," fill="#f6fffb" fill-opacity="0.058824" />
<polygon points="308.000000,319.000000,86.000000,355.000000,284.000000,426.000000," fill="#debcc0" fill-opacity="0.121569" />
<polygon points="309.000000,48.000000,172.000000,113.000000,160.000000,105.000000," fill="#feece1" fill-opacity="0.121569" />
<polygon points="329.000000,152.000000,320.000000,116.000000,279.000000,46.000000," fill="#dfdedf" fill-opacity="0.498039" />
<polygon points="218.000000,40.000000,226.000000,50.000000,42.000000,236.000000," fill="#010400" fill-opacity="0.121569" />
<polygon points="148.000000,7.000000,64.000000,46.000000,152.000000,80.000000," fill="#3e453a" fill-opacity="0.309804" />
<polygon points="212.000000,268.000000,268.000000,269.000000,268.000000,127.000000," fill="#feffff" fill-opacity="0.121569" />
<polygon points="159.000000,373.000000,56.000000,252.000000,334.000000,115.000000," fill="#07150c" fill-opacity="0.027451" />
<polygon points="137.000000,397.000000,48.000000,293.000000,146.000000,60.000000," fill="#040401" fill-opacity="0.007843" />
<polygon points="96.000000,80.000000,202.000000,131.000000,126.000000,177.000000," fill="#001000" fill-opacity="0.247059" />
<polygon points="147.000000,0.000000,209.000000,1.000000,175.000000,129.000000," fill="#b6a9b0" fill-opacity="0.121569" />
<polygon points="340.000000,420.000000,284.000000,426.000000,341.000000,348.000000," fill="#010000" fill-opacity="0.984314" />
<polygon points="300.000000,254.000000,64.000000,227.000000,21.000000,59.000000," fill="#fbfeaf" fill-opacity="0.027451" />
<polygon points="215.000000,121.000000,5.000000,426.000000,334.000000,360.000000," fill="#001712" fill-opacity="0.003922" />
<polygon points="309.000000,308.000000,313.000000,317.000000,32.000000,343.000000," fill="#bebb7f" fill-opacity="0.125490" />
<polygon points="322.000000,195.000000,65.000000,75.000000,254.000000,306.000000," fill="#0d180f" fill-opacity="0.003922" />
<polygon points="11.000000,129.000000,5.000000,261.000000,42.000000,146.000000," fill="#fefeff" fill-opacity="0.121569" />
<polygon points="197.000000,426.000000,206.000000,305.000000,231.000000,425.000000," fill="#9f9f9d" fill-opacity="0.498039" />
<polygon points="196.000000,197.000000,279.000000,332.000000,185.000000,127.000000," fill="#000000" fill-opacity="0.121569" />
<polygon points="177.000000,237.000000,244.000000,392.000000,84.000000,424.000000," fill="#01001f" fill-opacity="0.027451" />
<polygon points="283.000000,365.000000,296.000000,280.000000,299.000000,333.000000," fill="#1c0f00" fill-opacity="0.098039" />
<polygon points="132.000000,320.000000,209.000000,49.000000,156.000000,287.000000," fill="#fde6d6" fill-opacity="0.090196" />
<polygon points="22.000000,166.000000,67.000000,141.000000,62.000000,399.000000," fill="#faf7a4" fill-opacity="0.027451" />
<polygon points="246.000000,154.000000,230.000000,130.000000,306.000000,159.000000," fill="#212203" fill-opacity="0.180392" />
<polygon points="17.000000,157.000000,132.000000,66.000000,320.000000,40.000000," fill="#020502" fill-opacity="0.058824" />
<polygon points="343.000000,156.000000,0.000000,219.000000,213.000000,373.000000," fill="#001713" fill-opacity="0.003922" />
<polygon points="252.000000,354.000000,227.000000,237.000000,206.000000,194.000000," fill="#fdfffc" fill-opacity="0.121569" />
<polygon points="89.000000,327.000000,195.000000,387.000000,162.000000,425.000000," fill="#414120" fill-opacity="0.121569" />
<polygon points="309.000000,334.000000,247.000000,319.000000,22.000000,112.000000," fill="#fffefe" fill-opacity="0.027451" />
<polygon points="11.000000,278.000000,183.000000,63.000000,332.000000,351.000000," fill="#00c30f" fill-opacity="0.003922" />
<polygon points="43.000000,159.000000,102.000000,200.000000,37.000000,113.000000," fill="#101107" fill-opacity="0.341176" />
<polygon points="312.000000,183.000000,258.000000,393.000000,311.000000,102.000000," fill="#000c00" fill-opacity="0.054902" />
<polygon points="222.000000,298.000000,163.000000,81.000000,124.000000,19.000000," fill="#fefdfc" fill-opacity="0.039216" />
<polygon points="37.000000,426.000000,2.000000,166.000000,257.000000,128.000000," fill="#00130e" fill-opacity="0.003922" />
<polygon points="296.000000,66.000000,254.000000,21.000000,208.000000,81.000000," fill="#d7bfce" fill-opacity="0.247059" />
<polygon points="290.000000,9.000000,83.000000,323.000000,268.000000,332.000000," fill="#05170e" fill-opacity="0.003922" />
<polygon points="42.000000,262.000000,19.000000,368.000000,10.000000,145.000000," fill="#000300" fill-opacity="0.121569" />
<polygon points="37.000000,415.000000,40.000000,373.000000,172.000000,426.000000," fill="#010101" fill-opacity="0.952941" />
<polygon points="5.000000,153.000000,79.000000,38.000000,21.000000,100.000000," fill="#ffffff" fill-opacity="0.247059" />
<polygon points="19.000000,52.000000,15.000000,239.000000,95.000000,413.000000," fill="#060500" fill-opacity="0.058824" />
<polygon points="11.000000,192.000000,91.000000,113.000000,129.000000,141.000000," fill="#fff1d0" fill-opacity="0.050980" />
</svg>