<svg viewBox="0 0 343 426" xmlns="http://www.w3.org/2000/svg">
<rect width="343" height="426" fill="#000000" fill-opacity="1"/>
<polygon points="85.000000,419.000000,315.000000,25.000000,42.000000,53.000000," fill="#808380" fill-opacity="0.376471" />
<polygon points="299.000000,26.000000,242.000000,159.000000,126.000000,2.000000," fill="#fbf1bf" fill-opacity="0.427451" />
<polygon points="322.000000,13.000000,307.000000,426.000000,88.000000,416.000000," fill="#c0a080" fill-opacity="0.501961" />
<polygon points="327.000000,293.000000,13.000000,320.000000,0.000000,138.000000," fill="#2f3740" fill-opacity="0.752941" />
<polygon points="89.000000,27.000000,0.000000,213.000000,20.000000,93.000000," fill="#bfbfef" fill-opacity="0.749020" />
<polygon points="313.000000,294.000000,193.000000,426.000000,300.000000,413.000000," fill="#e7dae1" fill-opacity="0.556863" />
<polygon points="343.000000,213.000000,322.000000,121.000000,163.000000,266.000000," fill="#f4f7ed" fill-opacity="0.486275" />
<polygon points="40.000000,59.000000,172.000000,222.000000,0.000000,226.000000," fill="#fffdfa" fill-opacity="0.247059" />
<polygon points="199.000000,48.000000,271.000000,280.000000,288.000000,213.000000," fill="#fffffe" fill-opacity="0.498039" />
<polygon points="215.000000,0.000000,334.000000,107.000000,85.000000,27.000000," fill="#bfbfbf" fill-opacity="0.415686" />
<polygon points="301.000000,280.000000,130.000000,347.000000,87.000000,219.000000," fill="#000700" fill-opacity="0.498039" />
<polygon points="83.000000,387.000000,78.000000,267.000000,182.000000,426.000000," fill="#fefefd" fill-opacity="0.247059" />
<polygon points="269.000000,424.000000,330.000000,156.000000,328.000000,281.000000," fill="#ffe3e0" fill-opacity="0.490196" />
<polygon points="290.000000,419.000000,153.000000,398.000000,327.000000,241.000000," fill="#bfd2bf" fill-opacity="0.498039" />
<polygon points="171.000000,0.000000,12.000000,160.000000,96.000000,8.000000," fill="#3f3f3f" fill-opacity="0.737255" />
<polygon points="261.000000,240.000000,238.000000,307.000000,132.000000,166.000000," fill="#806757" fill-opacity="0.498039" />
<polygon points="190.000000,126.000000,107.000000,37.000000,268.000000,53.000000," fill="#929076" fill-opacity="0.419608" />
<polygon points="323.000000,269.000000,322.000000,241.000000,151.000000,271.000000," fill="#fffdfa" fill-opacity="0.247059" />
<polygon points="115.000000,213.000000,100.000000,107.000000,62.000000,139.000000," fill="#ffffec" fill-opacity="0.247059" />
<polygon points="246.000000,7.000000,343.000000,13.000000,321.000000,106.000000," fill="#000000" fill-opacity="0.972549" />
<polygon points="316.000000,13.000000,292.000000,317.000000,279.000000,320.000000," fill="#000000" fill-opacity="0.498039" />
<polygon points="261.000000,213.000000,343.000000,199.000000,317.000000,110.000000," fill="#ccc5bf" fill-opacity="0.788235" />
<polygon points="106.000000,359.000000,295.000000,414.000000,322.000000,358.000000," fill="#fffcff" fill-opacity="0.247059" />
<polygon points="175.000000,267.000000,140.000000,169.000000,97.000000,187.000000," fill="#fefdca" fill-opacity="0.247059" />
<polygon points="65.000000,319.000000,21.000000,279.000000,48.000000,347.000000," fill="#bcc09f" fill-opacity="0.376471" />
<polygon points="227.000000,293.000000,118.000000,384.000000,209.000000,79.000000," fill="#000601" fill-opacity="0.247059" />
<polygon points="43.000000,420.000000,174.000000,420.000000,209.000000,344.000000," fill="#010001" fill-opacity="0.247059" />
<polygon points="183.000000,133.000000,191.000000,160.000000,171.000000,227.000000," fill="#c8b99e" fill-opacity="0.494118" />
<polygon points="328.000000,349.000000,302.000000,304.000000,237.000000,280.000000," fill="#000000" fill-opacity="0.309804" />
<polygon points="328.000000,293.000000,236.000000,263.000000,242.000000,187.000000," fill="#ffffff" fill-opacity="0.247059" />
<polygon points="42.000000,87.000000,87.000000,320.000000,96.000000,213.000000," fill="#010000" fill-opacity="0.309804" />
<polygon points="102.000000,273.000000,129.000000,413.000000,29.000000,306.000000," fill="#fffdfb" fill-opacity="0.121569" />
<polygon points="286.000000,158.000000,311.000000,106.000000,317.000000,157.000000," fill="#3b2b20" fill-opacity="0.749020" />
<polygon points="322.000000,320.000000,205.000000,373.000000,204.000000,300.000000," fill="#fef7f8" fill-opacity="0.121569" />
<polygon points="20.000000,267.000000,150.000000,87.000000,172.000000,133.000000," fill="#020300" fill-opacity="0.247059" />
<polygon points="128.000000,43.000000,203.000000,54.000000,317.000000,213.000000," fill="#c0b7af" fill-opacity="0.498039" />
<polygon points="114.000000,297.000000,343.000000,179.000000,342.000000,240.000000," fill="#7f917e" fill-opacity="0.207843" />
<polygon points="258.000000,79.000000,38.000000,203.000000,300.000000,107.000000," fill="#010100" fill-opacity="0.215686" />
<polygon points="219.000000,402.000000,89.000000,243.000000,322.000000,195.000000," fill="#010000" fill-opacity="0.058824" />
<polygon points="231.000000,426.000000,226.000000,296.000000,81.000000,391.000000," fill="#8c9eb0" fill-opacity="0.117647" />
<polygon points="278.000000,42.000000,215.000000,66.000000,310.000000,93.000000," fill="#bfbfc0" fill-opacity="0.749020" />
<polygon points="0.000000,239.000000,1.000000,131.000000,94.000000,22.000000," fill="#f9fbfc" fill-opacity="0.247059" />
<polygon points="303.000000,79.000000,64.000000,268.000000,129.000000,306.000000," fill="#000000" fill-opacity="0.117647" />
<polygon points="97.000000,293.000000,1.000000,213.000000,21.000000,66.000000," fill="#333011" fill-opacity="0.243137" />
<polygon points="217.000000,266.000000,205.000000,266.000000,164.000000,133.000000," fill="#bcba7e" fill-opacity="0.247059" />
<polygon points="279.000000,83.000000,161.000000,83.000000,300.000000,119.000000," fill="#080300" fill-opacity="0.243137" />
<polygon points="1.000000,200.000000,85.000000,114.000000,42.000000,112.000000," fill="#130001" fill-opacity="0.247059" />
</svg>