<svg viewBox="0 0 343 426" xmlns="http://www.w3.org/2000/svg">
<rect width="343" height="426" fill="#000000" fill-opacity="1"/>
<polygon points="85.000000,418.000000,314.000000,26.000000,42.000000,53.000000," fill="#808380" fill-opacity="0.376471" />
<polygon points="300.000000,26.000000,244.000000,155.000000,109.000000,1.000000," fill="#eed4b5" fill-opacity="0.380392" />
<polygon points="322.000000,13.000000,307.000000,426.000000,88.000000,414.000000," fill="#c0a796" fill-opacity="0.501961" />
<polygon points="302.000000,293.000000,16.000000,347.000000,0.000000,133.000000," fill="#2f3240" fill-opacity="0.878431" />
<polygon points="90.000000,27.000000,0.000000,213.000000,19.000000,92.000000," fill="#bcbfbf" fill-opacity="0.749020" />
<polygon points="312.000000,294.000000,192.000000,426.000000,300.000000,413.000000," fill="#efdbe0" fill-opacity="0.556863" />
<polygon points="343.000000,213.000000,322.000000,122.000000,168.000000,266.000000," fill="#ecf3e4" fill-opacity="0.474510" />
<polygon points="40.000000,59.000000,172.000000,225.000000,0.000000,219.000000," fill="#f7e5ad" fill-opacity="0.215686" />
<polygon points="199.000000,48.000000,271.000000,283.000000,289.000000,213.000000," fill="#efeff0" fill-opacity="0.498039" />
<polygon points="220.000000,2.000000,343.000000,107.000000,80.000000,27.000000," fill="#bfbfbf" fill-opacity="0.494118" />
<polygon points="301.000000,281.000000,130.000000,349.000000,86.000000,217.000000," fill="#000800" fill-opacity="0.498039" />
<polygon points="80.000000,387.000000,80.000000,271.000000,173.000000,416.000000," fill="#fcfefd" fill-opacity="0.247059" />
<polygon points="270.000000,424.000000,330.000000,146.000000,328.000000,281.000000," fill="#efe3e0" fill-opacity="0.498039" />
<polygon points="290.000000,419.000000,166.000000,397.000000,327.000000,240.000000," fill="#bfd0bf" fill-opacity="0.498039" />
<polygon points="171.000000,0.000000,11.000000,173.000000,95.000000,8.000000," fill="#3f3f3f" fill-opacity="0.498039" />
<polygon points="258.000000,243.000000,239.000000,307.000000,138.000000,163.000000," fill="#805942" fill-opacity="0.470588" />
<polygon points="190.000000,123.000000,106.000000,37.000000,268.000000,57.000000," fill="#9f9e7f" fill-opacity="0.482353" />
<polygon points="323.000000,269.000000,279.000000,240.000000,150.000000,271.000000," fill="#fffffe" fill-opacity="0.247059" />
<polygon points="115.000000,213.000000,99.000000,108.000000,63.000000,139.000000," fill="#fffffd" fill-opacity="0.247059" />
<polygon points="246.000000,0.000000,343.000000,13.000000,322.000000,106.000000," fill="#010101" fill-opacity="0.976471" />
<polygon points="316.000000,19.000000,295.000000,319.000000,279.000000,320.000000," fill="#0e0700" fill-opacity="0.435294" />
<polygon points="290.000000,206.000000,343.000000,199.000000,318.000000,112.000000," fill="#c0c0b1" fill-opacity="0.811765" />
<polygon points="128.000000,359.000000,295.000000,413.000000,324.000000,353.000000," fill="#ffffff" fill-opacity="0.184314" />
<polygon points="172.000000,267.000000,143.000000,170.000000,100.000000,187.000000," fill="#feffe2" fill-opacity="0.239216" />
</svg>