<svg viewBox="0 0 228 228" xmlns="http://www.w3.org/2000/svg">
<rect width="228" height="228" fill="#000000" fill-opacity="1"/>
<polygon points="228.000000,228.000000,228.000000,0.000000,0.000000,0.000000," fill="#c07f5f" fill-opacity="0.682353" />
<polygon points="0.000000,0.000000,227.000000,228.000000,0.000000,214.000000," fill="#7d6040" fill-opacity="0.752941" />
<polygon points="57.000000,214.000000,168.000000,228.000000,150.000000,60.000000," fill="#030000" fill-opacity="0.498039" />
<polygon points="228.000000,0.000000,121.000000,28.000000,228.000000,221.000000," fill="#ffffcf" fill-opacity="0.247059" />
<polygon points="0.000000,228.000000,0.000000,0.000000,67.000000,185.000000," fill="#fff4ba" fill-opacity="0.247059" />
<polygon points="147.000000,171.000000,210.000000,218.000000,193.000000,143.000000," fill="#cfb77f" fill-opacity="0.498039" />
<polygon points="57.000000,228.000000,78.000000,0.000000,199.000000,118.000000," fill="#601801" fill-opacity="0.247059" />
<polygon points="165.000000,104.000000,168.000000,185.000000,35.000000,99.000000," fill="#52301c" fill-opacity="0.745098" />
<polygon points="0.000000,199.000000,122.000000,150.000000,14.000000,7.000000," fill="#fd7f7f" fill-opacity="0.121569" />
<polygon points="143.000000,13.000000,228.000000,85.000000,29.000000,106.000000," fill="#fcb96d" fill-opacity="0.109804" />
</svg>