<svg viewBox="0 0 228 228" xmlns="http://www.w3.org/2000/svg">
<rect width="228" height="228" fill="#000000" fill-opacity="1"/>
<polygon points="228.000000,228.000000,228.000000,0.000000,0.000000,0.000000," fill="#c07f5d" fill-opacity="0.686275" />
<polygon points="0.000000,1.000000,227.000000,228.000000,0.000000,214.000000," fill="#7f6040" fill-opacity="0.819608" />
<polygon points="59.000000,202.000000,171.000000,200.000000,155.000000,63.000000," fill="#000000" fill-opacity="0.498039" />
<polygon points="228.000000,0.000000,114.000000,27.000000,228.000000,217.000000," fill="#fdffcb" fill-opacity="0.247059" />
<polygon points="0.000000,228.000000,0.000000,8.000000,67.000000,185.000000," fill="#ddc096" fill-opacity="0.247059" />
<polygon points="143.000000,170.000000,211.000000,217.000000,193.000000,143.000000," fill="#ceaf7f" fill-opacity="0.498039" />
<polygon points="62.000000,226.000000,57.000000,13.000000,194.000000,133.000000," fill="#470301" fill-opacity="0.203922" />
<polygon points="165.000000,106.000000,157.000000,182.000000,56.000000,99.000000," fill="#402318" fill-opacity="0.964706" />
<polygon points="0.000000,197.000000,127.000000,147.000000,15.000000,11.000000," fill="#fe7e6e" fill-opacity="0.121569" />
<polygon points="121.000000,3.000000,228.000000,84.000000,51.000000,106.000000," fill="#feb677" fill-opacity="0.121569" />
<polygon points="114.000000,161.000000,2.000000,228.000000,217.000000,228.000000," fill="#302012" fill-opacity="0.992157" />
<polygon points="26.000000,222.000000,71.000000,182.000000,28.000000,116.000000," fill="#f4d3ba" fill-opacity="0.121569" />
<polygon points="154.000000,215.000000,100.000000,13.000000,190.000000,107.000000," fill="#803f26" fill-opacity="0.470588" />
<polygon points="171.000000,171.000000,167.000000,63.000000,177.000000,59.000000," fill="#f0bc8f" fill-opacity="0.498039" />
<polygon points="63.000000,17.000000,42.000000,171.000000,142.000000,0.000000," fill="#1b0401" fill-opacity="0.121569" />
<polygon points="115.000000,116.000000,56.000000,164.000000,116.000000,155.000000," fill="#fe7f39" fill-opacity="0.121569" />
<polygon points="214.000000,134.000000,130.000000,29.000000,228.000000,86.000000," fill="#fcccc3" fill-opacity="0.121569" />
<polygon points="228.000000,0.000000,188.000000,89.000000,153.000000,17.000000," fill="#412e31" fill-opacity="0.133333" />
<polygon points="128.000000,178.000000,9.000000,199.000000,11.000000,173.000000," fill="#fdc278" fill-opacity="0.101961" />
<polygon points="184.000000,132.000000,189.000000,114.000000,106.000000,59.000000," fill="#4d1e0e" fill-opacity="0.266667" />
<polygon points="228.000000,152.000000,178.000000,144.000000,172.000000,185.000000," fill="#fae2b8" fill-opacity="0.215686" />
<polygon points="30.000000,72.000000,121.000000,114.000000,141.000000,9.000000," fill="#e57a4a" fill-opacity="0.121569" />
<polygon points="126.000000,25.000000,163.000000,36.000000,145.000000,71.000000," fill="#fff4d4" fill-opacity="0.247059" />
<polygon points="71.000000,207.000000,202.000000,53.000000,114.000000,57.000000," fill="#020209" fill-opacity="0.058824" />
<polygon points="43.000000,42.000000,100.000000,0.000000,136.000000,29.000000," fill="#070000" fill-opacity="0.121569" />
<polygon points="81.000000,2.000000,25.000000,86.000000,0.000000,0.000000," fill="#39fff5" fill-opacity="0.058824" />
<polygon points="77.000000,79.000000,228.000000,73.000000,212.000000,103.000000," fill="#f2edf5" fill-opacity="0.058824" />
<polygon points="79.000000,25.000000,54.000000,98.000000,179.000000,79.000000," fill="#9c5e40" fill-opacity="0.247059" />
<polygon points="128.000000,0.000000,68.000000,17.000000,183.000000,225.000000," fill="#000400" fill-opacity="0.058824" />
<polygon points="226.000000,0.000000,172.000000,14.000000,56.000000,0.000000," fill="#9cbca2" fill-opacity="0.207843" />
<polygon points="56.000000,104.000000,197.000000,110.000000,32.000000,117.000000," fill="#010100" fill-opacity="0.247059" />
<polygon points="71.000000,145.000000,171.000000,160.000000,175.000000,114.000000," fill="#fdffac" fill-opacity="0.058824" />
<polygon points="69.000000,199.000000,77.000000,211.000000,83.000000,114.000000," fill="#f77f48" fill-opacity="0.243137" />
<polygon points="50.000000,202.000000,0.000000,4.000000,49.000000,28.000000," fill="#876f58" fill-opacity="0.490196" />
<polygon points="49.000000,45.000000,50.000000,100.000000,64.000000,29.000000," fill="#020000" fill-opacity="0.247059" />
<polygon points="225.000000,63.000000,137.000000,214.000000,148.000000,224.000000," fill="#f2b88e" fill-opacity="0.184314" />
<polygon points="22.000000,224.000000,55.000000,196.000000,6.000000,222.000000," fill="#fec680" fill-opacity="0.215686" />
<polygon points="114.000000,224.000000,38.000000,139.000000,228.000000,121.000000," fill="#010100" fill-opacity="0.058824" />
<polygon points="0.000000,114.000000,36.000000,107.000000,0.000000,196.000000," fill="#fdffb8" fill-opacity="0.121569" />
<polygon points="169.000000,187.000000,162.000000,17.000000,180.000000,190.000000," fill="#ffbf9e" fill-opacity="0.184314" />
<polygon points="150.000000,226.000000,186.000000,93.000000,189.000000,114.000000," fill="#200500" fill-opacity="0.219608" />
<polygon points="128.000000,13.000000,111.000000,164.000000,74.000000,61.000000," fill="#8b5f3a" fill-opacity="0.227451" />
<polygon points="1.000000,9.000000,14.000000,119.000000,28.000000,86.000000," fill="#001a3f" fill-opacity="0.058824" />
<polygon points="0.000000,197.000000,40.000000,99.000000,59.000000,198.000000," fill="#f6d97f" fill-opacity="0.121569" />
<polygon points="134.000000,185.000000,48.000000,228.000000,0.000000,204.000000," fill="#020003" fill-opacity="0.223529" />
<polygon points="32.000000,221.000000,0.000000,219.000000,131.000000,75.000000," fill="#f88a3f" fill-opacity="0.058824" />
<polygon points="153.000000,14.000000,189.000000,84.000000,143.000000,98.000000," fill="#f4853b" fill-opacity="0.121569" />
<polygon points="114.000000,72.000000,38.000000,105.000000,55.000000,161.000000," fill="#861700" fill-opacity="0.101961" />
<polygon points="135.000000,100.000000,127.000000,138.000000,152.000000,171.000000," fill="#f9b470" fill-opacity="0.113725" />
<polygon points="168.000000,55.000000,32.000000,228.000000,143.000000,215.000000," fill="#070100" fill-opacity="0.058824" />
<polygon points="140.000000,189.000000,28.000000,33.000000,129.000000,0.000000," fill="#2f000f" fill-opacity="0.011765" />
<polygon points="143.000000,179.000000,100.000000,175.000000,89.000000,187.000000," fill="#fc7e5f" fill-opacity="0.184314" />
<polygon points="85.000000,225.000000,70.000000,202.000000,115.000000,228.000000," fill="#ff7c6e" fill-opacity="0.184314" />
<polygon points="125.000000,115.000000,146.000000,136.000000,171.000000,120.000000," fill="#fcffc2" fill-opacity="0.058824" />
<polygon points="80.000000,70.000000,100.000000,161.000000,63.000000,156.000000," fill="#fff39c" fill-opacity="0.058824" />
<polygon points="29.000000,228.000000,187.000000,228.000000,125.000000,27.000000," fill="#130702" fill-opacity="0.003922" />
<polygon points="18.000000,62.000000,172.000000,21.000000,101.000000,0.000000," fill="#301200" fill-opacity="0.117647" />
<polygon points="165.000000,62.000000,142.000000,14.000000,68.000000,35.000000," fill="#ffbabb" fill-opacity="0.058824" />
<polygon points="186.000000,142.000000,228.000000,147.000000,214.000000,218.000000," fill="#c09a74" fill-opacity="0.345098" />
<polygon points="72.000000,210.000000,69.000000,157.000000,83.000000,214.000000," fill="#ffc080" fill-opacity="0.121569" />
<polygon points="164.000000,228.000000,162.000000,99.000000,21.000000,228.000000," fill="#000101" fill-opacity="0.050980" />
<polygon points="85.000000,219.000000,17.000000,114.000000,39.000000,123.000000," fill="#fdbf9b" fill-opacity="0.113725" />
<polygon points="210.000000,105.000000,58.000000,120.000000,6.000000,83.000000," fill="#000800" fill-opacity="0.054902" />
<polygon points="90.000000,206.000000,111.000000,199.000000,122.000000,14.000000," fill="#ee604c" fill-opacity="0.050980" />
<polygon points="228.000000,210.000000,179.000000,216.000000,228.000000,226.000000," fill="#351f0a" fill-opacity="0.498039" />
<polygon points="227.000000,138.000000,2.000000,132.000000,11.000000,172.000000," fill="#752b14" fill-opacity="0.050980" />
<polygon points="194.000000,71.000000,100.000000,35.000000,117.000000,141.000000," fill="#010a00" fill-opacity="0.027451" />
<polygon points="184.000000,140.000000,182.000000,99.000000,170.000000,103.000000," fill="#000000" fill-opacity="0.247059" />
<polygon points="156.000000,99.000000,227.000000,56.000000,228.000000,100.000000," fill="#f8e27c" fill-opacity="0.121569" />
<polygon points="114.000000,0.000000,28.000000,40.000000,6.000000,0.000000," fill="#52af7d" fill-opacity="0.058824" />
<polygon points="46.000000,139.000000,7.000000,128.000000,13.000000,192.000000," fill="#104767" fill-opacity="0.058824" />
<polygon points="225.000000,169.000000,92.000000,156.000000,56.000000,198.000000," fill="#020000" fill-opacity="0.054902" />
<polygon points="56.000000,21.000000,0.000000,86.000000,39.000000,114.000000," fill="#826c53" fill-opacity="0.705882" />
<polygon points="168.000000,200.000000,165.000000,228.000000,176.000000,227.000000," fill="#fafca2" fill-opacity="0.184314" />
<polygon points="56.000000,85.000000,102.000000,10.000000,158.000000,19.000000," fill="#9d602b" fill-opacity="0.121569" />
<polygon points="190.000000,63.000000,0.000000,85.000000,0.000000,14.000000," fill="#7b0f4e" fill-opacity="0.011765" />
<polygon points="190.000000,96.000000,111.000000,99.000000,222.000000,63.000000," fill="#fddeb5" fill-opacity="0.058824" />
<polygon points="114.000000,142.000000,104.000000,162.000000,106.000000,63.000000," fill="#ffccba" fill-opacity="0.058824" />
<polygon points="40.000000,114.000000,26.000000,106.000000,31.000000,222.000000," fill="#424242" fill-opacity="0.058824" />
<polygon points="228.000000,56.000000,219.000000,21.000000,200.000000,66.000000," fill="#0b122e" fill-opacity="0.050980" />
<polygon points="72.000000,204.000000,14.000000,11.000000,52.000000,30.000000," fill="#040f00" fill-opacity="0.023529" />
<polygon points="146.000000,101.000000,128.000000,137.000000,153.000000,185.000000," fill="#ff7d77" fill-opacity="0.058824" />
<polygon points="186.000000,228.000000,198.000000,190.000000,228.000000,228.000000," fill="#7a3f3b" fill-opacity="0.247059" />
<polygon points="155.000000,180.000000,116.000000,93.000000,178.000000,7.000000," fill="#426145" fill-opacity="0.007843" />
<polygon points="64.000000,218.000000,207.000000,228.000000,174.000000,191.000000," fill="#000004" fill-opacity="0.117647" />
<polygon points="127.000000,106.000000,5.000000,98.000000,39.000000,84.000000," fill="#f39e7c" fill-opacity="0.058824" />
<polygon points="153.000000,90.000000,138.000000,16.000000,169.000000,106.000000," fill="#f7ecb6" fill-opacity="0.058824" />
<polygon points="199.000000,4.000000,150.000000,7.000000,165.000000,128.000000," fill="#9b8456" fill-opacity="0.109804" />
</svg>