<svg viewBox="0 0 228 228" xmlns="http://www.w3.org/2000/svg">
<rect width="228" height="228" fill="#000000" fill-opacity="1"/>
<polygon points="228.000000,228.000000,228.000000,0.000000,0.000000,0.000000," fill="#c07f5f" fill-opacity="0.686275" />
<polygon points="0.000000,0.000000,227.000000,228.000000,0.000000,214.000000," fill="#7f6144" fill-opacity="0.843137" />
<polygon points="57.000000,209.000000,171.000000,200.000000,153.000000,59.000000," fill="#000000" fill-opacity="0.498039" />
<polygon points="228.000000,0.000000,119.000000,28.000000,228.000000,220.000000," fill="#ffffcb" fill-opacity="0.231373" />
<polygon points="0.000000,228.000000,0.000000,0.000000,67.000000,185.000000," fill="#ddc596" fill-opacity="0.247059" />
<polygon points="143.000000,171.000000,212.000000,215.000000,194.000000,143.000000," fill="#cfb87f" fill-opacity="0.498039" />
<polygon points="58.000000,218.000000,57.000000,5.000000,198.000000,121.000000," fill="#4e1901" fill-opacity="0.239216" />
<polygon points="165.000000,106.000000,158.000000,182.000000,49.000000,99.000000," fill="#402819" fill-opacity="0.968627" />
<polygon points="0.000000,199.000000,127.000000,147.000000,15.000000,8.000000," fill="#fd7f7f" fill-opacity="0.113725" />
<polygon points="126.000000,11.000000,228.000000,85.000000,29.000000,106.000000," fill="#febf7d" fill-opacity="0.121569" />
<polygon points="114.000000,162.000000,0.000000,228.000000,222.000000,228.000000," fill="#302013" fill-opacity="0.988235" />
<polygon points="25.000000,223.000000,71.000000,182.000000,26.000000,114.000000," fill="#fdf7b1" fill-opacity="0.121569" />
<polygon points="154.000000,215.000000,100.000000,13.000000,191.000000,107.000000," fill="#803c22" fill-opacity="0.435294" />
<polygon points="171.000000,169.000000,166.000000,92.000000,177.000000,57.000000," fill="#ddb084" fill-opacity="0.498039" />
<polygon points="57.000000,14.000000,39.000000,171.000000,139.000000,4.000000," fill="#200001" fill-opacity="0.117647" />
<polygon points="114.000000,114.000000,24.000000,159.000000,116.000000,156.000000," fill="#f9773b" fill-opacity="0.105882" />
<polygon points="214.000000,133.000000,129.000000,29.000000,228.000000,86.000000," fill="#fffccb" fill-opacity="0.121569" />
<polygon points="199.000000,8.000000,191.000000,87.000000,149.000000,20.000000," fill="#411e1f" fill-opacity="0.125490" />
</svg>