<svg viewBox="0 0 238 256" xmlns="http://www.w3.org/2000/svg">
<rect width="238" height="256" fill="#000000" fill-opacity="1"/>
<polygon points="0.000000,0.000000,238.000000,256.000000,0.000000,256.000000," fill="#eff7f7" fill-opacity="1.000000" />
<polygon points="0.000000,0.000000,238.000000,256.000000,238.000000,0.000000," fill="#fdfdfe" fill-opacity="0.980392" />
<polygon points="75.000000,97.000000,231.000000,135.000000,119.000000,5.000000," fill="#805f3f" fill-opacity="0.862745" />
<polygon points="22.000000,223.000000,136.000000,15.000000,179.000000,218.000000," fill="#424141" fill-opacity="0.843137" />
<polygon points="180.000000,239.000000,6.000000,238.000000,149.000000,61.000000," fill="#403740" fill-opacity="1.000000" />
<polygon points="58.000000,243.000000,105.000000,137.000000,20.000000,251.000000," fill="#f6eff7" fill-opacity="1.000000" />
<polygon points="147.000000,230.000000,217.000000,111.000000,225.000000,169.000000," fill="#7b707f" fill-opacity="0.250980" />
<polygon points="212.000000,193.000000,192.000000,114.000000,232.000000,151.000000," fill="#030020" fill-opacity="0.623529" />
<polygon points="187.000000,63.000000,140.000000,223.000000,142.000000,33.000000," fill="#000911" fill-opacity="0.458824" />
<polygon points="73.000000,121.000000,107.000000,11.000000,195.000000,120.000000," fill="#24232f" fill-opacity="0.498039" />
<polygon points="91.000000,254.000000,145.000000,238.000000,132.000000,197.000000," fill="#f9f7f7" fill-opacity="1.000000" />
<polygon points="217.000000,192.000000,113.000000,80.000000,151.000000,233.000000," fill="#fefdf8" fill-opacity="0.184314" />
<polygon points="71.000000,180.000000,105.000000,169.000000,106.000000,129.000000," fill="#ffffff" fill-opacity="0.498039" />
<polygon points="78.000000,241.000000,59.000000,185.000000,214.000000,148.000000," fill="#010018" fill-opacity="0.207843" />
<polygon points="157.000000,33.000000,111.000000,186.000000,107.000000,32.000000," fill="#fef695" fill-opacity="0.247059" />
<polygon points="235.000000,2.000000,231.000000,163.000000,211.000000,147.000000," fill="#fcfefb" fill-opacity="0.498039" />
<polygon points="164.000000,130.000000,142.000000,181.000000,186.000000,249.000000," fill="#fce8be" fill-opacity="0.247059" />
<polygon points="109.000000,130.000000,73.000000,241.000000,194.000000,85.000000," fill="#20111e" fill-opacity="0.494118" />
<polygon points="128.000000,130.000000,118.000000,231.000000,60.000000,47.000000," fill="#bebe7f" fill-opacity="0.192157" />
<polygon points="107.000000,153.000000,175.000000,129.000000,96.000000,14.000000," fill="#050105" fill-opacity="0.247059" />
<polygon points="155.000000,68.000000,120.000000,1.000000,235.000000,138.000000," fill="#7f7f7d" fill-opacity="0.494118" />
<polygon points="134.000000,40.000000,89.000000,159.000000,33.000000,195.000000," fill="#000018" fill-opacity="0.498039" />
<polygon points="102.000000,152.000000,4.000000,132.000000,116.000000,96.000000," fill="#f8fdfe" fill-opacity="0.121569" />
<polygon points="231.000000,198.000000,199.000000,256.000000,155.000000,144.000000," fill="#ffffff" fill-opacity="0.498039" />
<polygon points="182.000000,194.000000,181.000000,254.000000,172.000000,170.000000," fill="#7e7f87" fill-opacity="0.352941" />
<polygon points="93.000000,27.000000,227.000000,136.000000,216.000000,162.000000," fill="#220812" fill-opacity="0.121569" />
<polygon points="79.000000,72.000000,77.000000,95.000000,179.000000,48.000000," fill="#000100" fill-opacity="0.247059" />
<polygon points="48.000000,103.000000,106.000000,55.000000,1.000000,52.000000," fill="#fdfbfb" fill-opacity="0.749020" />
<polygon points="164.000000,30.000000,189.000000,96.000000,193.000000,41.000000," fill="#feffff" fill-opacity="0.498039" />
<polygon points="144.000000,75.000000,131.000000,42.000000,204.000000,91.000000," fill="#fffff7" fill-opacity="0.121569" />
<polygon points="116.000000,8.000000,188.000000,73.000000,93.000000,32.000000," fill="#000100" fill-opacity="0.247059" />
<polygon points="36.000000,246.000000,129.000000,88.000000,86.000000,188.000000," fill="#fffeff" fill-opacity="0.247059" />
<polygon points="166.000000,95.000000,227.000000,126.000000,223.000000,174.000000," fill="#7a8220" fill-opacity="0.247059" />
<polygon points="21.000000,247.000000,120.000000,69.000000,162.000000,40.000000," fill="#000000" fill-opacity="0.243137" />
<polygon points="119.000000,57.000000,195.000000,249.000000,119.000000,201.000000," fill="#5b4302" fill-opacity="0.121569" />
<polygon points="31.000000,108.000000,150.000000,80.000000,134.000000,127.000000," fill="#fdbd7b" fill-opacity="0.121569" />
<polygon points="43.000000,171.000000,115.000000,111.000000,29.000000,240.000000," fill="#000000" fill-opacity="0.498039" />
<polygon points="77.000000,96.000000,139.000000,156.000000,77.000000,120.000000," fill="#100620" fill-opacity="0.498039" />
<polygon points="28.000000,146.000000,159.000000,155.000000,127.000000,176.000000," fill="#fffffc" fill-opacity="0.121569" />
<polygon points="28.000000,198.000000,172.000000,178.000000,178.000000,211.000000," fill="#001020" fill-opacity="0.247059" />
<polygon points="101.000000,136.000000,175.000000,136.000000,206.000000,111.000000," fill="#fffbda" fill-opacity="0.164706" />
<polygon points="0.000000,0.000000,0.000000,250.000000,79.000000,122.000000," fill="#fffbfb" fill-opacity="0.498039" />
<polygon points="136.000000,213.000000,175.000000,228.000000,140.000000,174.000000," fill="#f7fdef" fill-opacity="0.121569" />
<polygon points="233.000000,122.000000,114.000000,52.000000,160.000000,88.000000," fill="#000017" fill-opacity="0.137255" />
<polygon points="62.000000,231.000000,161.000000,53.000000,162.000000,192.000000," fill="#030002" fill-opacity="0.121569" />
<polygon points="210.000000,228.000000,77.000000,191.000000,139.000000,181.000000," fill="#c2783f" fill-opacity="0.121569" />
<polygon points="95.000000,95.000000,103.000000,1.000000,126.000000,194.000000," fill="#000000" fill-opacity="0.121569" />
<polygon points="77.000000,161.000000,63.000000,215.000000,96.000000,164.000000," fill="#ffffff" fill-opacity="0.494118" />
<polygon points="59.000000,225.000000,136.000000,192.000000,144.000000,202.000000," fill="#00091e" fill-opacity="0.380392" />
<polygon points="182.000000,73.000000,114.000000,0.000000,138.000000,181.000000," fill="#000000" fill-opacity="0.121569" />
<polygon points="63.000000,19.000000,167.000000,6.000000,113.000000,0.000000," fill="#f7f7f9" fill-opacity="0.925490" />
<polygon points="140.000000,15.000000,147.000000,51.000000,152.000000,39.000000," fill="#ffffff" fill-opacity="0.498039" />
<polygon points="119.000000,1.000000,164.000000,29.000000,91.000000,24.000000," fill="#effef5" fill-opacity="0.247059" />
<polygon points="193.000000,22.000000,118.000000,111.000000,42.000000,167.000000," fill="#fefb9f" fill-opacity="0.121569" />
<polygon points="107.000000,36.000000,147.000000,31.000000,133.000000,70.000000," fill="#bb7f5f" fill-opacity="0.494118" />
<polygon points="17.000000,248.000000,161.000000,60.000000,90.000000,137.000000," fill="#030b02" fill-opacity="0.105882" />
<polygon points="122.000000,79.000000,144.000000,95.000000,133.000000,127.000000," fill="#f7c682" fill-opacity="0.121569" />
<polygon points="107.000000,145.000000,148.000000,156.000000,76.000000,230.000000," fill="#fcbe5e" fill-opacity="0.121569" />
<polygon points="150.000000,117.000000,53.000000,241.000000,88.000000,175.000000," fill="#06072a" fill-opacity="0.121569" />
<polygon points="216.000000,107.000000,188.000000,136.000000,148.000000,16.000000," fill="#fefef7" fill-opacity="0.121569" />
<polygon points="2.000000,126.000000,85.000000,57.000000,63.000000,157.000000," fill="#faf9fb" fill-opacity="0.952941" />
<polygon points="0.000000,140.000000,75.000000,256.000000,81.000000,238.000000," fill="#ffffe7" fill-opacity="0.239216" />
<polygon points="130.000000,40.000000,12.000000,239.000000,34.000000,239.000000," fill="#000208" fill-opacity="0.498039" />
<polygon points="58.000000,148.000000,59.000000,96.000000,163.000000,256.000000," fill="#fbffff" fill-opacity="0.058824" />
<polygon points="203.000000,161.000000,212.000000,103.000000,185.000000,109.000000," fill="#5f4a37" fill-opacity="0.247059" />
<polygon points="57.000000,177.000000,12.000000,226.000000,71.000000,190.000000," fill="#000020" fill-opacity="0.498039" />
<polygon points="219.000000,136.000000,142.000000,217.000000,202.000000,142.000000," fill="#211017" fill-opacity="0.498039" />
<polygon points="81.000000,132.000000,176.000000,139.000000,25.000000,83.000000," fill="#ffffbb" fill-opacity="0.058824" />
<polygon points="178.000000,209.000000,147.000000,240.000000,148.000000,146.000000," fill="#e17b03" fill-opacity="0.121569" />
<polygon points="60.000000,233.000000,106.000000,241.000000,101.000000,161.000000," fill="#010b0e" fill-opacity="0.184314" />
<polygon points="80.000000,99.000000,136.000000,36.000000,74.000000,81.000000," fill="#00000e" fill-opacity="0.247059" />
<polygon points="192.000000,192.000000,238.000000,193.000000,148.000000,154.000000," fill="#ffffff" fill-opacity="0.490196" />
<polygon points="169.000000,132.000000,96.000000,246.000000,176.000000,77.000000," fill="#000400" fill-opacity="0.121569" />
<polygon points="168.000000,115.000000,129.000000,192.000000,148.000000,216.000000," fill="#573f3d" fill-opacity="0.384314" />
<polygon points="224.000000,179.000000,203.000000,185.000000,202.000000,138.000000," fill="#000315" fill-opacity="0.247059" />
<polygon points="219.000000,126.000000,203.000000,190.000000,204.000000,125.000000," fill="#dbbc7c" fill-opacity="0.247059" />
<polygon points="127.000000,70.000000,112.000000,68.000000,125.000000,52.000000," fill="#ffff7d" fill-opacity="0.247059" />
<polygon points="105.000000,31.000000,101.000000,56.000000,143.000000,40.000000," fill="#ff932b" fill-opacity="0.247059" />
<polygon points="100.000000,112.000000,76.000000,133.000000,92.000000,49.000000," fill="#ffe7bc" fill-opacity="0.121569" />
<polygon points="206.000000,151.000000,180.000000,177.000000,212.000000,110.000000," fill="#000222" fill-opacity="0.247059" />
<polygon points="131.000000,9.000000,105.000000,62.000000,83.000000,39.000000," fill="#030000" fill-opacity="0.121569" />
<polygon points="162.000000,52.000000,77.000000,170.000000,45.000000,187.000000," fill="#805e43" fill-opacity="0.121569" />
<polygon points="9.000000,245.000000,29.000000,208.000000,17.000000,255.000000," fill="#fafdef" fill-opacity="0.125490" />
<polygon points="200.000000,168.000000,215.000000,147.000000,212.000000,209.000000," fill="#000058" fill-opacity="0.227451" />
<polygon points="206.000000,253.000000,96.000000,158.000000,15.000000,109.000000," fill="#fdfcff" fill-opacity="0.058824" />
<polygon points="183.000000,123.000000,172.000000,183.000000,186.000000,186.000000," fill="#fefeff" fill-opacity="0.749020" />
<polygon points="17.000000,160.000000,94.000000,62.000000,102.000000,0.000000," fill="#f9f9f9" fill-opacity="0.917647" />
<polygon points="134.000000,111.000000,212.000000,104.000000,231.000000,140.000000," fill="#748479" fill-opacity="0.121569" />
<polygon points="82.000000,155.000000,63.000000,202.000000,38.000000,204.000000," fill="#000207" fill-opacity="0.623529" />
<polygon points="51.000000,169.000000,148.000000,139.000000,56.000000,158.000000," fill="#000305" fill-opacity="0.086275" />
<polygon points="152.000000,233.000000,119.000000,185.000000,133.000000,170.000000," fill="#000240" fill-opacity="0.247059" />
<polygon points="7.000000,33.000000,80.000000,161.000000,90.000000,224.000000," fill="#f9ffff" fill-opacity="0.058824" />
<polygon points="187.000000,87.000000,236.000000,62.000000,167.000000,16.000000," fill="#f8f7f7" fill-opacity="0.972549" />
<polygon points="60.000000,40.000000,198.000000,78.000000,19.000000,55.000000," fill="#fffffe" fill-opacity="0.121569" />
<polygon points="174.000000,99.000000,136.000000,83.000000,200.000000,138.000000," fill="#01031a" fill-opacity="0.247059" />
<polygon points="166.000000,166.000000,185.000000,239.000000,58.000000,239.000000," fill="#1a1f27" fill-opacity="0.003922" />
<polygon points="89.000000,31.000000,37.000000,235.000000,57.000000,199.000000," fill="#fafbff" fill-opacity="0.082353" />
<polygon points="74.000000,155.000000,7.000000,159.000000,130.000000,131.000000," fill="#fffef9" fill-opacity="0.113725" />
<polygon points="186.000000,125.000000,216.000000,154.000000,156.000000,108.000000," fill="#fefeff" fill-opacity="0.247059" />
<polygon points="104.000000,95.000000,141.000000,80.000000,120.000000,192.000000," fill="#fff4be" fill-opacity="0.058824" />
<polygon points="75.000000,125.000000,142.000000,61.000000,105.000000,44.000000," fill="#0b0e07" fill-opacity="0.121569" />
<polygon points="98.000000,117.000000,86.000000,104.000000,11.000000,107.000000," fill="#fffefe" fill-opacity="0.121569" />
<polygon points="163.000000,149.000000,138.000000,256.000000,208.000000,119.000000," fill="#fdffef" fill-opacity="0.109804" />
<polygon points="202.000000,85.000000,75.000000,113.000000,134.000000,157.000000," fill="#010000" fill-opacity="0.121569" />
<polygon points="116.000000,10.000000,129.000000,16.000000,137.000000,102.000000," fill="#010000" fill-opacity="0.184314" />
<polygon points="235.000000,156.000000,231.000000,129.000000,37.000000,122.000000," fill="#fffff8" fill-opacity="0.058824" />
<polygon points="100.000000,73.000000,34.000000,47.000000,30.000000,249.000000," fill="#0e07f7" fill-opacity="0.003922" />
<polygon points="193.000000,47.000000,105.000000,54.000000,180.000000,63.000000," fill="#fefef8" fill-opacity="0.121569" />
<polygon points="170.000000,201.000000,81.000000,175.000000,185.000000,240.000000," fill="#0d0405" fill-opacity="0.121569" />
<polygon points="122.000000,14.000000,210.000000,127.000000,236.000000,209.000000," fill="#000400" fill-opacity="0.023529" />
<polygon points="84.000000,129.000000,144.000000,105.000000,122.000000,82.000000," fill="#ffff7f" fill-opacity="0.058824" />
<polygon points="73.000000,201.000000,64.000000,228.000000,77.000000,203.000000," fill="#3f4f5f" fill-opacity="0.372549" />
<polygon points="164.000000,149.000000,189.000000,47.000000,171.000000,188.000000," fill="#ffffff" fill-opacity="0.121569" />
<polygon points="103.000000,79.000000,200.000000,92.000000,96.000000,33.000000," fill="#040200" fill-opacity="0.121569" />
<polygon points="118.000000,161.000000,83.000000,79.000000,82.000000,115.000000," fill="#fefefe" fill-opacity="0.117647" />
<polygon points="113.000000,120.000000,174.000000,27.000000,125.000000,67.000000," fill="#000001" fill-opacity="0.058824" />
<polygon points="122.000000,28.000000,140.000000,47.000000,146.000000,29.000000," fill="#000000" fill-opacity="0.247059" />
<polygon points="148.000000,38.000000,185.000000,16.000000,91.000000,93.000000," fill="#fffdfe" fill-opacity="0.121569" />
<polygon points="223.000000,165.000000,197.000000,110.000000,222.000000,176.000000," fill="#200707" fill-opacity="0.250980" />
<polygon points="137.000000,33.000000,135.000000,49.000000,109.000000,36.000000," fill="#ffd15f" fill-opacity="0.247059" />
<polygon points="113.000000,136.000000,103.000000,112.000000,147.000000,71.000000," fill="#ffaf7e" fill-opacity="0.121569" />
<polygon points="100.000000,130.000000,148.000000,47.000000,112.000000,96.000000," fill="#debb7e" fill-opacity="0.121569" />
<polygon points="58.000000,204.000000,49.000000,203.000000,53.000000,221.000000," fill="#f7f7f9" fill-opacity="0.960784" />
<polygon points="105.000000,39.000000,181.000000,92.000000,93.000000,256.000000," fill="#0f1920" fill-opacity="0.003922" />
<polygon points="157.000000,79.000000,225.000000,129.000000,137.000000,37.000000," fill="#140700" fill-opacity="0.235294" />
<polygon points="175.000000,98.000000,60.000000,95.000000,164.000000,59.000000," fill="#d6cefc" fill-opacity="0.027451" />
<polygon points="170.000000,100.000000,215.000000,170.000000,202.000000,127.000000," fill="#110702" fill-opacity="0.121569" />
<polygon points="107.000000,160.000000,172.000000,98.000000,168.000000,145.000000," fill="#010006" fill-opacity="0.074510" />
<polygon points="148.000000,33.000000,51.000000,95.000000,62.000000,56.000000," fill="#fff7ff" fill-opacity="0.058824" />
<polygon points="114.000000,81.000000,28.000000,248.000000,50.000000,181.000000," fill="#000001" fill-opacity="0.247059" />
<polygon points="233.000000,15.000000,149.000000,22.000000,0.000000,26.000000," fill="#fefdf1" fill-opacity="0.243137" />
<polygon points="104.000000,94.000000,5.000000,80.000000,209.000000,62.000000," fill="#1a2026" fill-opacity="0.003922" />
<polygon points="233.000000,145.000000,231.000000,160.000000,211.000000,145.000000," fill="#ffffff" fill-opacity="0.498039" />
<polygon points="159.000000,46.000000,163.000000,39.000000,204.000000,104.000000," fill="#030535" fill-opacity="0.105882" />
<polygon points="145.000000,69.000000,234.000000,110.000000,202.000000,103.000000," fill="#fffedc" fill-opacity="0.180392" />
<polygon points="227.000000,141.000000,226.000000,127.000000,188.000000,189.000000," fill="#070500" fill-opacity="0.121569" />
<polygon points="157.000000,104.000000,164.000000,207.000000,58.000000,51.000000," fill="#20161e" fill-opacity="0.011765" />
<polygon points="179.000000,184.000000,96.000000,95.000000,149.000000,250.000000," fill="#bffe3e" fill-opacity="0.011765" />
<polygon points="89.000000,144.000000,27.000000,111.000000,135.000000,221.000000," fill="#fffbb5" fill-opacity="0.058824" />
<polygon points="117.000000,216.000000,85.000000,240.000000,92.000000,169.000000," fill="#000010" fill-opacity="0.247059" />
<polygon points="172.000000,222.000000,216.000000,153.000000,176.000000,233.000000," fill="#fefffc" fill-opacity="0.247059" />
<polygon points="114.000000,13.000000,133.000000,7.000000,134.000000,157.000000," fill="#230606" fill-opacity="0.054902" />
<polygon points="24.000000,223.000000,92.000000,130.000000,36.000000,220.000000," fill="#f0ffc4" fill-opacity="0.058824" />
<polygon points="233.000000,124.000000,157.000000,74.000000,117.000000,64.000000," fill="#000202" fill-opacity="0.121569" />
<polygon points="185.000000,216.000000,163.000000,229.000000,85.000000,107.000000," fill="#7f7654" fill-opacity="0.247059" />
<polygon points="0.000000,241.000000,234.000000,237.000000,193.000000,256.000000," fill="#fffefe" fill-opacity="0.247059" />
<polygon points="213.000000,227.000000,85.000000,108.000000,93.000000,88.000000," fill="#4e4301" fill-opacity="0.050980" />
<polygon points="29.000000,192.000000,21.000000,228.000000,79.000000,108.000000," fill="#fdffff" fill-opacity="0.227451" />
<polygon points="98.000000,115.000000,107.000000,59.000000,43.000000,214.000000," fill="#f17d70" fill-opacity="0.058824" />
<polygon points="177.000000,249.000000,96.000000,173.000000,153.000000,115.000000," fill="#000c00" fill-opacity="0.027451" />
<polygon points="148.000000,112.000000,77.000000,191.000000,66.000000,241.000000," fill="#1c1922" fill-opacity="0.121569" />
<polygon points="133.000000,168.000000,163.000000,161.000000,59.000000,29.000000," fill="#7065a4" fill-opacity="0.011765" />
<polygon points="38.000000,224.000000,114.000000,144.000000,63.000000,215.000000," fill="#ffffff" fill-opacity="0.121569" />
<polygon points="98.000000,32.000000,129.000000,111.000000,96.000000,51.000000," fill="#1f2240" fill-opacity="0.247059" />
<polygon points="175.000000,90.000000,164.000000,31.000000,155.000000,71.000000," fill="#fffc7f" fill-opacity="0.121569" />
<polygon points="235.000000,176.000000,192.000000,81.000000,238.000000,0.000000," fill="#ffffff" fill-opacity="0.113725" />
<polygon points="202.000000,96.000000,204.000000,185.000000,231.000000,168.000000," fill="#000b28" fill-opacity="0.054902" />
<polygon points="219.000000,80.000000,151.000000,133.000000,154.000000,236.000000," fill="#fff9ff" fill-opacity="0.027451" />
<polygon points="1.000000,248.000000,45.000000,238.000000,178.000000,239.000000," fill="#fffffd" fill-opacity="0.305882" />
<polygon points="146.000000,78.000000,213.000000,102.000000,80.000000,76.000000," fill="#000205" fill-opacity="0.058824" />
<polygon points="98.000000,153.000000,158.000000,240.000000,183.000000,190.000000," fill="#000001" fill-opacity="0.058824" />
<polygon points="79.000000,244.000000,181.000000,239.000000,78.000000,39.000000," fill="#17f7f8" fill-opacity="0.003922" />
<polygon points="181.000000,109.000000,125.000000,111.000000,230.000000,126.000000," fill="#0d0008" fill-opacity="0.121569" />
<polygon points="172.000000,112.000000,98.000000,248.000000,119.000000,74.000000," fill="#0e0d20" fill-opacity="0.011765" />
<polygon points="103.000000,177.000000,119.000000,123.000000,99.000000,152.000000," fill="#010300" fill-opacity="0.121569" />
<polygon points="148.000000,54.000000,118.000000,200.000000,123.000000,112.000000," fill="#febf7f" fill-opacity="0.058824" />
<polygon points="175.000000,239.000000,182.000000,239.000000,236.000000,115.000000," fill="#000d13" fill-opacity="0.058824" />
<polygon points="119.000000,224.000000,174.000000,228.000000,188.000000,240.000000," fill="#000000" fill-opacity="0.058824" />
<polygon points="90.000000,203.000000,131.000000,109.000000,184.000000,197.000000," fill="#68ae3d" fill-opacity="0.011765" />
<polygon points="226.000000,175.000000,228.000000,133.000000,237.000000,129.000000," fill="#faf9fa" fill-opacity="0.874510" />
<polygon points="91.000000,159.000000,82.000000,115.000000,141.000000,14.000000," fill="#110002" fill-opacity="0.105882" />
<polygon points="36.000000,195.000000,74.000000,123.000000,58.000000,12.000000," fill="#f9fcf8" fill-opacity="0.803922" />
<polygon points="142.000000,72.000000,178.000000,62.000000,165.000000,44.000000," fill="#7e7b52" fill-opacity="0.247059" />
<polygon points="97.000000,81.000000,77.000000,125.000000,100.000000,127.000000," fill="#7f7b46" fill-opacity="0.247059" />
<polygon points="219.000000,120.000000,225.000000,156.000000,203.000000,149.000000," fill="#fffdf6" fill-opacity="0.121569" />
<polygon points="90.000000,118.000000,198.000000,117.000000,167.000000,70.000000," fill="#1b1300" fill-opacity="0.027451" />
<polygon points="127.000000,75.000000,15.000000,116.000000,223.000000,15.000000," fill="#1828f7" fill-opacity="0.003922" />
<polygon points="178.000000,92.000000,124.000000,239.000000,146.000000,56.000000," fill="#051527" fill-opacity="0.003922" />
<polygon points="149.000000,26.000000,53.000000,217.000000,100.000000,59.000000," fill="#670720" fill-opacity="0.011765" />
<polygon points="127.000000,43.000000,90.000000,89.000000,170.000000,233.000000," fill="#efe0c6" fill-opacity="0.007843" />
<polygon points="82.000000,144.000000,120.000000,62.000000,198.000000,60.000000," fill="#0a1848" fill-opacity="0.007843" />
<polygon points="153.000000,184.000000,163.000000,225.000000,161.000000,208.000000," fill="#fefafa" fill-opacity="0.121569" />
<polygon points="149.000000,123.000000,181.000000,226.000000,103.000000,146.000000," fill="#17051f" fill-opacity="0.011765" />
<polygon points="85.000000,205.000000,88.000000,225.000000,149.000000,11.000000," fill="#0031a0" fill-opacity="0.027451" />
<polygon points="146.000000,194.000000,68.000000,225.000000,96.000000,224.000000," fill="#130f1f" fill-opacity="0.435294" />
<polygon points="72.000000,243.000000,59.000000,33.000000,37.000000,77.000000," fill="#040322" fill-opacity="0.003922" />
<polygon points="232.000000,136.000000,88.000000,46.000000,131.000000,61.000000," fill="#fbfbfe" fill-opacity="0.027451" />
<polygon points="189.000000,256.000000,226.000000,173.000000,182.000000,210.000000," fill="#f8f7f7" fill-opacity="0.874510" />
<polygon points="127.000000,245.000000,101.000000,208.000000,64.000000,222.000000," fill="#20191d" fill-opacity="0.007843" />
<polygon points="184.000000,222.000000,185.000000,216.000000,174.000000,210.000000," fill="#010415" fill-opacity="0.184314" />
<polygon points="238.000000,153.000000,147.000000,88.000000,214.000000,126.000000," fill="#874641" fill-opacity="0.058824" />
<polygon points="90.000000,96.000000,159.000000,40.000000,158.000000,242.000000," fill="#700742" fill-opacity="0.011765" />
<polygon points="97.000000,10.000000,184.000000,200.000000,108.000000,200.000000," fill="#6b6048" fill-opacity="0.003922" />
<polygon points="57.000000,193.000000,56.000000,161.000000,25.000000,233.000000," fill="#b87f7e" fill-opacity="0.058824" />
<polygon points="70.000000,120.000000,5.000000,245.000000,12.000000,0.000000," fill="#f9f8f7" fill-opacity="0.913725" />
<polygon points="0.000000,249.000000,71.000000,196.000000,12.000000,2.000000," fill="#201ef7" fill-opacity="0.003922" />
</svg>