<svg viewBox="0 0 238 256" xmlns="http://www.w3.org/2000/svg">
<rect width="238" height="256" fill="#000000" fill-opacity="1"/>
<polygon points="0.000000,0.000000,238.000000,256.000000,0.000000,256.000000," fill="#eff7f7" fill-opacity="1.000000" />
<polygon points="0.000000,0.000000,238.000000,256.000000,238.000000,0.000000," fill="#fdfdfe" fill-opacity="0.980392" />
<polygon points="77.000000,96.000000,231.000000,135.000000,119.000000,5.000000," fill="#805f3f" fill-opacity="0.862745" />
<polygon points="22.000000,223.000000,136.000000,15.000000,179.000000,218.000000," fill="#464143" fill-opacity="0.843137" />
<polygon points="180.000000,240.000000,6.000000,238.000000,149.000000,61.000000," fill="#403740" fill-opacity="1.000000" />
<polygon points="58.000000,243.000000,105.000000,137.000000,20.000000,251.000000," fill="#f7f9f7" fill-opacity="1.000000" />
<polygon points="147.000000,230.000000,217.000000,111.000000,225.000000,171.000000," fill="#7b7f7f" fill-opacity="0.250980" />
<polygon points="212.000000,193.000000,192.000000,114.000000,232.000000,151.000000," fill="#010028" fill-opacity="0.623529" />
<polygon points="187.000000,63.000000,140.000000,223.000000,142.000000,32.000000," fill="#000811" fill-opacity="0.458824" />
<polygon points="73.000000,120.000000,107.000000,10.000000,196.000000,120.000000," fill="#24232f" fill-opacity="0.494118" />
<polygon points="91.000000,254.000000,145.000000,238.000000,132.000000,197.000000," fill="#fbfbfc" fill-opacity="1.000000" />
<polygon points="217.000000,192.000000,113.000000,80.000000,151.000000,233.000000," fill="#fffefd" fill-opacity="0.180392" />
<polygon points="71.000000,180.000000,105.000000,170.000000,106.000000,129.000000," fill="#ffffff" fill-opacity="0.498039" />
<polygon points="75.000000,241.000000,59.000000,187.000000,214.000000,148.000000," fill="#010218" fill-opacity="0.207843" />
<polygon points="157.000000,32.000000,111.000000,185.000000,110.000000,32.000000," fill="#fff695" fill-opacity="0.247059" />
<polygon points="235.000000,2.000000,231.000000,163.000000,211.000000,147.000000," fill="#fefefb" fill-opacity="0.498039" />
<polygon points="164.000000,132.000000,142.000000,181.000000,186.000000,249.000000," fill="#f9ebbf" fill-opacity="0.247059" />
<polygon points="109.000000,130.000000,73.000000,241.000000,194.000000,85.000000," fill="#20111e" fill-opacity="0.494118" />
<polygon points="128.000000,130.000000,118.000000,231.000000,60.000000,47.000000," fill="#bebe7f" fill-opacity="0.192157" />
<polygon points="107.000000,153.000000,175.000000,129.000000,96.000000,14.000000," fill="#050105" fill-opacity="0.247059" />
<polygon points="156.000000,71.000000,120.000000,1.000000,235.000000,138.000000," fill="#7f7f7d" fill-opacity="0.494118" />
<polygon points="134.000000,40.000000,89.000000,159.000000,33.000000,195.000000," fill="#00001b" fill-opacity="0.498039" />
<polygon points="101.000000,152.000000,3.000000,130.000000,116.000000,96.000000," fill="#f8fdfe" fill-opacity="0.121569" />
<polygon points="231.000000,197.000000,198.000000,256.000000,155.000000,144.000000," fill="#ffffff" fill-opacity="0.498039" />
<polygon points="182.000000,194.000000,181.000000,254.000000,172.000000,170.000000," fill="#797f85" fill-opacity="0.349020" />
<polygon points="93.000000,30.000000,227.000000,136.000000,216.000000,161.000000," fill="#2b0812" fill-opacity="0.121569" />
<polygon points="81.000000,72.000000,77.000000,94.000000,179.000000,54.000000," fill="#010511" fill-opacity="0.247059" />
<polygon points="48.000000,103.000000,106.000000,55.000000,1.000000,52.000000," fill="#feffff" fill-opacity="0.749020" />
<polygon points="164.000000,30.000000,189.000000,96.000000,192.000000,63.000000," fill="#ffffff" fill-opacity="0.498039" />
<polygon points="142.000000,71.000000,131.000000,42.000000,203.000000,91.000000," fill="#fffff1" fill-opacity="0.247059" />
<polygon points="116.000000,8.000000,188.000000,73.000000,93.000000,32.000000," fill="#010000" fill-opacity="0.247059" />
<polygon points="36.000000,246.000000,129.000000,88.000000,86.000000,187.000000," fill="#ffffff" fill-opacity="0.462745" />
<polygon points="167.000000,94.000000,227.000000,127.000000,223.000000,174.000000," fill="#7a8220" fill-opacity="0.247059" />
<polygon points="21.000000,255.000000,119.000000,69.000000,163.000000,40.000000," fill="#010000" fill-opacity="0.247059" />
<polygon points="119.000000,57.000000,195.000000,249.000000,118.000000,197.000000," fill="#5b4303" fill-opacity="0.121569" />
<polygon points="34.000000,108.000000,149.000000,81.000000,134.000000,127.000000," fill="#fdbd7b" fill-opacity="0.121569" />
<polygon points="43.000000,171.000000,115.000000,111.000000,29.000000,240.000000," fill="#000000" fill-opacity="0.498039" />
<polygon points="77.000000,96.000000,139.000000,156.000000,77.000000,120.000000," fill="#000120" fill-opacity="0.498039" />
<polygon points="28.000000,146.000000,157.000000,155.000000,127.000000,176.000000," fill="#ffffff" fill-opacity="0.121569" />
<polygon points="44.000000,198.000000,172.000000,178.000000,177.000000,211.000000," fill="#010302" fill-opacity="0.247059" />
<polygon points="101.000000,136.000000,175.000000,136.000000,206.000000,111.000000," fill="#fefbdb" fill-opacity="0.180392" />
<polygon points="0.000000,0.000000,0.000000,250.000000,79.000000,122.000000," fill="#fffbfb" fill-opacity="0.498039" />
<polygon points="134.000000,212.000000,175.000000,228.000000,140.000000,174.000000," fill="#fff6fe" fill-opacity="0.121569" />
<polygon points="233.000000,122.000000,114.000000,52.000000,160.000000,88.000000," fill="#000013" fill-opacity="0.129412" />
<polygon points="62.000000,231.000000,162.000000,53.000000,162.000000,192.000000," fill="#010000" fill-opacity="0.121569" />
<polygon points="209.000000,228.000000,77.000000,191.000000,141.000000,183.000000," fill="#c07973" fill-opacity="0.121569" />
<polygon points="95.000000,95.000000,103.000000,1.000000,126.000000,193.000000," fill="#000007" fill-opacity="0.121569" />
<polygon points="76.000000,161.000000,64.000000,216.000000,96.000000,161.000000," fill="#feffff" fill-opacity="0.494118" />
<polygon points="58.000000,225.000000,137.000000,191.000000,144.000000,202.000000," fill="#020815" fill-opacity="0.443137" />
<polygon points="182.000000,72.000000,114.000000,2.000000,138.000000,183.000000," fill="#000100" fill-opacity="0.121569" />
<polygon points="63.000000,19.000000,167.000000,6.000000,113.000000,0.000000," fill="#f6f6f8" fill-opacity="0.980392" />
<polygon points="140.000000,7.000000,147.000000,55.000000,152.000000,37.000000," fill="#ffffff" fill-opacity="0.498039" />
<polygon points="119.000000,0.000000,164.000000,29.000000,91.000000,24.000000," fill="#f9fdff" fill-opacity="0.247059" />
<polygon points="193.000000,22.000000,118.000000,111.000000,42.000000,167.000000," fill="#fffeba" fill-opacity="0.121569" />
<polygon points="107.000000,36.000000,147.000000,31.000000,133.000000,70.000000," fill="#bb7f5f" fill-opacity="0.494118" />
<polygon points="18.000000,248.000000,161.000000,60.000000,90.000000,137.000000," fill="#030b01" fill-opacity="0.121569" />
<polygon points="122.000000,79.000000,144.000000,95.000000,133.000000,127.000000," fill="#fbe68f" fill-opacity="0.090196" />
<polygon points="107.000000,145.000000,148.000000,156.000000,76.000000,230.000000," fill="#fdae5a" fill-opacity="0.121569" />
<polygon points="150.000000,117.000000,53.000000,241.000000,88.000000,175.000000," fill="#000501" fill-opacity="0.090196" />
<polygon points="216.000000,107.000000,188.000000,136.000000,148.000000,16.000000," fill="#fffef7" fill-opacity="0.121569" />
<polygon points="3.000000,127.000000,84.000000,57.000000,63.000000,157.000000," fill="#fdfdff" fill-opacity="0.984314" />
<polygon points="0.000000,140.000000,75.000000,256.000000,81.000000,238.000000," fill="#fefce3" fill-opacity="0.215686" />
<polygon points="130.000000,40.000000,12.000000,239.000000,34.000000,239.000000," fill="#000002" fill-opacity="0.498039" />
<polygon points="56.000000,148.000000,59.000000,96.000000,163.000000,256.000000," fill="#ffffff" fill-opacity="0.058824" />
<polygon points="204.000000,161.000000,212.000000,103.000000,185.000000,110.000000," fill="#594a37" fill-opacity="0.247059" />
<polygon points="57.000000,178.000000,12.000000,226.000000,68.000000,192.000000," fill="#000010" fill-opacity="0.498039" />
<polygon points="219.000000,136.000000,142.000000,217.000000,202.000000,142.000000," fill="#02010f" fill-opacity="0.498039" />
<polygon points="80.000000,132.000000,177.000000,139.000000,26.000000,83.000000," fill="#fffebf" fill-opacity="0.058824" />
<polygon points="178.000000,209.000000,148.000000,240.000000,148.000000,145.000000," fill="#ff7b04" fill-opacity="0.121569" />
<polygon points="60.000000,233.000000,105.000000,241.000000,101.000000,163.000000," fill="#000003" fill-opacity="0.184314" />
<polygon points="80.000000,99.000000,136.000000,36.000000,74.000000,81.000000," fill="#00000e" fill-opacity="0.247059" />
<polygon points="192.000000,192.000000,229.000000,198.000000,148.000000,154.000000," fill="#ffffff" fill-opacity="0.498039" />
<polygon points="169.000000,132.000000,93.000000,246.000000,177.000000,76.000000," fill="#000000" fill-opacity="0.121569" />
<polygon points="168.000000,118.000000,121.000000,191.000000,148.000000,224.000000," fill="#503e3f" fill-opacity="0.376471" />
<polygon points="224.000000,179.000000,204.000000,186.000000,204.000000,144.000000," fill="#000014" fill-opacity="0.247059" />
<polygon points="219.000000,126.000000,203.000000,192.000000,204.000000,117.000000," fill="#dfbc7f" fill-opacity="0.247059" />
<polygon points="127.000000,70.000000,112.000000,68.000000,125.000000,53.000000," fill="#ffff7e" fill-opacity="0.247059" />
<polygon points="105.000000,29.000000,101.000000,56.000000,143.000000,40.000000," fill="#ffb23d" fill-opacity="0.247059" />
<polygon points="100.000000,114.000000,76.000000,133.000000,92.000000,51.000000," fill="#e7d6b8" fill-opacity="0.105882" />
<polygon points="206.000000,152.000000,180.000000,177.000000,212.000000,110.000000," fill="#000022" fill-opacity="0.247059" />
<polygon points="131.000000,9.000000,105.000000,62.000000,83.000000,39.000000," fill="#260002" fill-opacity="0.121569" />
<polygon points="162.000000,54.000000,77.000000,170.000000,45.000000,187.000000," fill="#804a42" fill-opacity="0.121569" />
<polygon points="9.000000,245.000000,29.000000,208.000000,18.000000,256.000000," fill="#fdfcfc" fill-opacity="0.152941" />
<polygon points="200.000000,168.000000,213.000000,148.000000,210.000000,209.000000," fill="#201655" fill-opacity="0.498039" />
<polygon points="206.000000,253.000000,96.000000,158.000000,15.000000,109.000000," fill="#fffcff" fill-opacity="0.058824" />
<polygon points="183.000000,123.000000,172.000000,183.000000,186.000000,186.000000," fill="#fcfefe" fill-opacity="0.749020" />
<polygon points="17.000000,160.000000,94.000000,62.000000,102.000000,0.000000," fill="#fbfbfb" fill-opacity="0.980392" />
<polygon points="135.000000,111.000000,212.000000,104.000000,231.000000,140.000000," fill="#748479" fill-opacity="0.121569" />
<polygon points="82.000000,155.000000,63.000000,202.000000,37.000000,204.000000," fill="#020312" fill-opacity="0.623529" />
<polygon points="51.000000,169.000000,145.000000,139.000000,56.000000,158.000000," fill="#00022c" fill-opacity="0.086275" />
<polygon points="152.000000,233.000000,119.000000,185.000000,133.000000,170.000000," fill="#000640" fill-opacity="0.247059" />
<polygon points="6.000000,29.000000,80.000000,161.000000,90.000000,224.000000," fill="#f5f0f7" fill-opacity="0.058824" />
<polygon points="187.000000,87.000000,236.000000,62.000000,166.000000,16.000000," fill="#f8f7f7" fill-opacity="1.000000" />
<polygon points="62.000000,40.000000,198.000000,79.000000,18.000000,54.000000," fill="#fffff8" fill-opacity="0.121569" />
<polygon points="172.000000,103.000000,135.000000,83.000000,201.000000,138.000000," fill="#0f2013" fill-opacity="0.247059" />
<polygon points="167.000000,168.000000,184.000000,239.000000,58.000000,232.000000," fill="#14171d" fill-opacity="0.003922" />
<polygon points="89.000000,31.000000,40.000000,240.000000,57.000000,200.000000," fill="#ffffff" fill-opacity="0.086275" />
<polygon points="74.000000,155.000000,7.000000,159.000000,130.000000,131.000000," fill="#feffff" fill-opacity="0.121569" />
<polygon points="186.000000,124.000000,216.000000,154.000000,156.000000,108.000000," fill="#fefeff" fill-opacity="0.247059" />
<polygon points="104.000000,95.000000,141.000000,80.000000,120.000000,192.000000," fill="#fff5bb" fill-opacity="0.058824" />
<polygon points="75.000000,124.000000,144.000000,61.000000,105.000000,45.000000," fill="#170a1e" fill-opacity="0.121569" />
<polygon points="97.000000,117.000000,86.000000,104.000000,11.000000,107.000000," fill="#ffffff" fill-opacity="0.247059" />
<polygon points="158.000000,151.000000,139.000000,256.000000,208.000000,119.000000," fill="#ffffff" fill-opacity="0.117647" />
<polygon points="202.000000,85.000000,76.000000,112.000000,134.000000,158.000000," fill="#010000" fill-opacity="0.121569" />
<polygon points="116.000000,10.000000,129.000000,16.000000,137.000000,103.000000," fill="#050502" fill-opacity="0.172549" />
<polygon points="235.000000,156.000000,231.000000,129.000000,37.000000,122.000000," fill="#fffffc" fill-opacity="0.058824" />
<polygon points="99.000000,73.000000,34.000000,49.000000,30.000000,249.000000," fill="#0a0af6" fill-opacity="0.003922" />
<polygon points="223.000000,47.000000,105.000000,54.000000,179.000000,63.000000," fill="#fffffe" fill-opacity="0.121569" />
<polygon points="169.000000,201.000000,81.000000,175.000000,185.000000,240.000000," fill="#040101" fill-opacity="0.121569" />
<polygon points="122.000000,12.000000,209.000000,126.000000,236.000000,209.000000," fill="#000202" fill-opacity="0.023529" />
<polygon points="84.000000,129.000000,144.000000,105.000000,122.000000,82.000000," fill="#fce574" fill-opacity="0.058824" />
<polygon points="73.000000,201.000000,64.000000,228.000000,77.000000,203.000000," fill="#3f505e" fill-opacity="0.490196" />
<polygon points="164.000000,149.000000,189.000000,47.000000,174.000000,191.000000," fill="#ffffff" fill-opacity="0.121569" />
<polygon points="103.000000,79.000000,200.000000,92.000000,96.000000,32.000000," fill="#050302" fill-opacity="0.121569" />
<polygon points="118.000000,161.000000,83.000000,79.000000,82.000000,115.000000," fill="#fffffe" fill-opacity="0.121569" />
<polygon points="113.000000,123.000000,174.000000,27.000000,125.000000,67.000000," fill="#000101" fill-opacity="0.121569" />
<polygon points="122.000000,28.000000,140.000000,47.000000,146.000000,29.000000," fill="#000000" fill-opacity="0.247059" />
<polygon points="148.000000,38.000000,185.000000,16.000000,91.000000,93.000000," fill="#fcfffe" fill-opacity="0.121569" />
<polygon points="223.000000,165.000000,197.000000,111.000000,222.000000,176.000000," fill="#1a0109" fill-opacity="0.250980" />
<polygon points="141.000000,33.000000,134.000000,48.000000,108.000000,36.000000," fill="#ffc857" fill-opacity="0.247059" />
<polygon points="113.000000,136.000000,103.000000,112.000000,148.000000,70.000000," fill="#ffbe7b" fill-opacity="0.121569" />
<polygon points="100.000000,130.000000,148.000000,47.000000,112.000000,96.000000," fill="#d2be7f" fill-opacity="0.121569" />
<polygon points="57.000000,203.000000,49.000000,203.000000,53.000000,221.000000," fill="#f7f7f6" fill-opacity="1.000000" />
<polygon points="105.000000,39.000000,181.000000,93.000000,93.000000,256.000000," fill="#0d1920" fill-opacity="0.003922" />
<polygon points="157.000000,79.000000,225.000000,129.000000,137.000000,36.000000," fill="#100000" fill-opacity="0.247059" />
<polygon points="175.000000,98.000000,60.000000,95.000000,164.000000,59.000000," fill="#fcfbfd" fill-opacity="0.027451" />
<polygon points="171.000000,100.000000,216.000000,169.000000,202.000000,127.000000," fill="#3a0316" fill-opacity="0.058824" />
<polygon points="111.000000,159.000000,168.000000,96.000000,164.000000,146.000000," fill="#000005" fill-opacity="0.121569" />
<polygon points="148.000000,33.000000,51.000000,94.000000,63.000000,56.000000," fill="#fff9ff" fill-opacity="0.058824" />
<polygon points="114.000000,81.000000,28.000000,248.000000,50.000000,184.000000," fill="#000002" fill-opacity="0.239216" />
<polygon points="234.000000,15.000000,149.000000,22.000000,0.000000,26.000000," fill="#fdfff5" fill-opacity="0.243137" />
<polygon points="104.000000,94.000000,6.000000,80.000000,215.000000,62.000000," fill="#18202e" fill-opacity="0.003922" />
<polygon points="236.000000,146.000000,231.000000,160.000000,211.000000,145.000000," fill="#ffffff" fill-opacity="0.498039" />
<polygon points="159.000000,46.000000,163.000000,39.000000,204.000000,104.000000," fill="#060f6d" fill-opacity="0.105882" />
<polygon points="145.000000,69.000000,234.000000,110.000000,202.000000,103.000000," fill="#fcfffc" fill-opacity="0.184314" />
<polygon points="227.000000,141.000000,226.000000,127.000000,188.000000,189.000000," fill="#000000" fill-opacity="0.121569" />
<polygon points="157.000000,104.000000,164.000000,208.000000,59.000000,50.000000," fill="#20171d" fill-opacity="0.011765" />
<polygon points="179.000000,184.000000,96.000000,95.000000,149.000000,249.000000," fill="#beba3f" fill-opacity="0.011765" />
<polygon points="89.000000,144.000000,27.000000,111.000000,137.000000,222.000000," fill="#fffdec" fill-opacity="0.058824" />
<polygon points="117.000000,216.000000,86.000000,240.000000,92.000000,169.000000," fill="#000011" fill-opacity="0.247059" />
<polygon points="172.000000,222.000000,216.000000,153.000000,176.000000,233.000000," fill="#fffefe" fill-opacity="0.247059" />
<polygon points="115.000000,15.000000,130.000000,19.000000,135.000000,144.000000," fill="#0b0002" fill-opacity="0.109804" />
<polygon points="23.000000,223.000000,91.000000,132.000000,36.000000,219.000000," fill="#f6f47c" fill-opacity="0.058824" />
<polygon points="233.000000,124.000000,157.000000,74.000000,117.000000,64.000000," fill="#000100" fill-opacity="0.117647" />
<polygon points="185.000000,216.000000,163.000000,229.000000,85.000000,107.000000," fill="#7f7357" fill-opacity="0.247059" />
<polygon points="0.000000,241.000000,238.000000,237.000000,21.000000,256.000000," fill="#fffffb" fill-opacity="0.247059" />
<polygon points="213.000000,227.000000,85.000000,108.000000,94.000000,88.000000," fill="#4c4512" fill-opacity="0.058824" />
<polygon points="29.000000,192.000000,21.000000,228.000000,79.000000,108.000000," fill="#ffffff" fill-opacity="0.243137" />
<polygon points="98.000000,115.000000,106.000000,60.000000,43.000000,213.000000," fill="#f77f50" fill-opacity="0.058824" />
<polygon points="177.000000,249.000000,93.000000,173.000000,153.000000,115.000000," fill="#060600" fill-opacity="0.027451" />
<polygon points="148.000000,112.000000,77.000000,191.000000,66.000000,247.000000," fill="#1f1321" fill-opacity="0.121569" />
<polygon points="133.000000,167.000000,163.000000,161.000000,59.000000,26.000000," fill="#7068a4" fill-opacity="0.011765" />
<polygon points="40.000000,223.000000,114.000000,144.000000,62.000000,214.000000," fill="#fffeff" fill-opacity="0.247059" />
<polygon points="98.000000,32.000000,128.000000,106.000000,96.000000,51.000000," fill="#122140" fill-opacity="0.247059" />
<polygon points="175.000000,90.000000,164.000000,31.000000,154.000000,71.000000," fill="#fefd7d" fill-opacity="0.121569" />
<polygon points="235.000000,176.000000,192.000000,81.000000,238.000000,0.000000," fill="#ffffff" fill-opacity="0.113725" />
<polygon points="202.000000,96.000000,204.000000,185.000000,226.000000,167.000000," fill="#003325" fill-opacity="0.101961" />
<polygon points="219.000000,81.000000,152.000000,133.000000,154.000000,236.000000," fill="#fefefe" fill-opacity="0.058824" />
<polygon points="4.000000,256.000000,36.000000,238.000000,178.000000,239.000000," fill="#fff8fc" fill-opacity="0.337255" />
<polygon points="146.000000,78.000000,214.000000,102.000000,81.000000,76.000000," fill="#000000" fill-opacity="0.058824" />
<polygon points="98.000000,154.000000,158.000000,240.000000,184.000000,190.000000," fill="#020001" fill-opacity="0.058824" />
<polygon points="79.000000,235.000000,182.000000,239.000000,80.000000,43.000000," fill="#16fbfe" fill-opacity="0.003922" />
<polygon points="181.000000,109.000000,125.000000,111.000000,230.000000,126.000000," fill="#000000" fill-opacity="0.121569" />
<polygon points="172.000000,112.000000,98.000000,248.000000,136.000000,110.000000," fill="#000229" fill-opacity="0.121569" />
<polygon points="103.000000,177.000000,119.000000,123.000000,99.000000,152.000000," fill="#1d1a13" fill-opacity="0.247059" />
<polygon points="148.000000,54.000000,118.000000,200.000000,123.000000,112.000000," fill="#ffff7f" fill-opacity="0.058824" />
<polygon points="175.000000,239.000000,182.000000,240.000000,236.000000,115.000000," fill="#01083f" fill-opacity="0.113725" />
<polygon points="119.000000,224.000000,174.000000,228.000000,188.000000,240.000000," fill="#000100" fill-opacity="0.058824" />
<polygon points="90.000000,204.000000,128.000000,107.000000,184.000000,197.000000," fill="#6cac3e" fill-opacity="0.011765" />
<polygon points="226.000000,176.000000,228.000000,133.000000,237.000000,129.000000," fill="#f8f9fb" fill-opacity="0.874510" />
<polygon points="91.000000,159.000000,82.000000,115.000000,140.000000,15.000000," fill="#010000" fill-opacity="0.121569" />
<polygon points="36.000000,195.000000,74.000000,122.000000,59.000000,0.000000," fill="#f8f8f8" fill-opacity="0.949020" />
<polygon points="142.000000,72.000000,178.000000,62.000000,165.000000,44.000000," fill="#7f7f5f" fill-opacity="0.407843" />
<polygon points="97.000000,82.000000,77.000000,122.000000,100.000000,119.000000," fill="#7f7853" fill-opacity="0.427451" />
<polygon points="219.000000,120.000000,225.000000,156.000000,203.000000,149.000000," fill="#ffffff" fill-opacity="0.121569" />
<polygon points="94.000000,118.000000,196.000000,116.000000,167.000000,64.000000," fill="#030200" fill-opacity="0.027451" />
<polygon points="132.000000,74.000000,16.000000,116.000000,218.000000,11.000000," fill="#121cfc" fill-opacity="0.003922" />
<polygon points="178.000000,93.000000,124.000000,233.000000,146.000000,63.000000," fill="#0b1323" fill-opacity="0.003922" />
<polygon points="149.000000,26.000000,53.000000,217.000000,100.000000,59.000000," fill="#0f0600" fill-opacity="0.058824" />
<polygon points="133.000000,45.000000,90.000000,88.000000,164.000000,235.000000," fill="#efe0c0" fill-opacity="0.007843" />
<polygon points="82.000000,143.000000,119.000000,63.000000,195.000000,61.000000," fill="#010047" fill-opacity="0.007843" />
<polygon points="153.000000,179.000000,163.000000,226.000000,161.000000,208.000000," fill="#fffffd" fill-opacity="0.121569" />
<polygon points="149.000000,125.000000,179.000000,228.000000,104.000000,145.000000," fill="#11011e" fill-opacity="0.023529" />
<polygon points="85.000000,204.000000,87.000000,231.000000,149.000000,11.000000," fill="#133f81" fill-opacity="0.058824" />
<polygon points="146.000000,194.000000,68.000000,225.000000,96.000000,224.000000," fill="#100e1d" fill-opacity="0.443137" />
<polygon points="72.000000,244.000000,59.000000,33.000000,39.000000,68.000000," fill="#000000" fill-opacity="0.003922" />
<polygon points="232.000000,136.000000,89.000000,47.000000,131.000000,61.000000," fill="#fffdfc" fill-opacity="0.027451" />
<polygon points="188.000000,256.000000,226.000000,173.000000,182.000000,210.000000," fill="#f9f7f7" fill-opacity="0.984314" />
<polygon points="127.000000,256.000000,102.000000,201.000000,63.000000,224.000000," fill="#16141d" fill-opacity="0.007843" />
<polygon points="184.000000,223.000000,185.000000,211.000000,174.000000,209.000000," fill="#020503" fill-opacity="0.243137" />
<polygon points="238.000000,153.000000,147.000000,88.000000,214.000000,126.000000," fill="#812c13" fill-opacity="0.058824" />
<polygon points="90.000000,96.000000,160.000000,40.000000,159.000000,243.000000," fill="#701446" fill-opacity="0.011765" />
<polygon points="97.000000,44.000000,184.000000,199.000000,111.000000,208.000000," fill="#64604d" fill-opacity="0.003922" />
<polygon points="57.000000,193.000000,56.000000,161.000000,25.000000,233.000000," fill="#fffefe" fill-opacity="0.058824" />
<polygon points="70.000000,120.000000,5.000000,245.000000,13.000000,0.000000," fill="#f8f8f7" fill-opacity="1.000000" />
<polygon points="0.000000,249.000000,67.000000,225.000000,11.000000,0.000000," fill="#0407f7" fill-opacity="0.003922" />
<polygon points="159.000000,16.000000,158.000000,244.000000,149.000000,64.000000," fill="#0e0c02" fill-opacity="0.121569" />
<polygon points="168.000000,153.000000,122.000000,176.000000,129.000000,153.000000," fill="#fef073" fill-opacity="0.109804" />
<polygon points="180.000000,49.000000,152.000000,0.000000,147.000000,39.000000," fill="#f9f9f9" fill-opacity="0.980392" />
<polygon points="185.000000,125.000000,203.000000,134.000000,110.000000,42.000000," fill="#2d4040" fill-opacity="0.247059" />
<polygon points="107.000000,15.000000,84.000000,239.000000,73.000000,234.000000," fill="#7ea87f" fill-opacity="0.054902" />
<polygon points="69.000000,190.000000,98.000000,101.000000,118.000000,54.000000," fill="#fffff7" fill-opacity="0.058824" />
<polygon points="166.000000,145.000000,178.000000,143.000000,30.000000,92.000000," fill="#f8deba" fill-opacity="0.043137" />
<polygon points="49.000000,212.000000,83.000000,93.000000,70.000000,165.000000," fill="#fdffff" fill-opacity="0.058824" />
<polygon points="119.000000,7.000000,62.000000,56.000000,142.000000,20.000000," fill="#006a2f" fill-opacity="0.023529" />
<polygon points="140.000000,193.000000,149.000000,216.000000,216.000000,250.000000," fill="#ffffbf" fill-opacity="0.121569" />
<polygon points="223.000000,151.000000,190.000000,104.000000,170.000000,114.000000," fill="#4d0604" fill-opacity="0.121569" />
<polygon points="169.000000,241.000000,105.000000,180.000000,161.000000,155.000000," fill="#030700" fill-opacity="0.058824" />
<polygon points="161.000000,214.000000,162.000000,147.000000,77.000000,174.000000," fill="#ffff6c" fill-opacity="0.027451" />
<polygon points="119.000000,40.000000,131.000000,56.000000,134.000000,111.000000," fill="#fefb7d" fill-opacity="0.054902" />
<polygon points="93.000000,88.000000,202.000000,151.000000,172.000000,114.000000," fill="#fefff4" fill-opacity="0.027451" />
<polygon points="201.000000,137.000000,136.000000,87.000000,157.000000,66.000000," fill="#010340" fill-opacity="0.117647" />
<polygon points="192.000000,55.000000,140.000000,67.000000,0.000000,227.000000," fill="#781824" fill-opacity="0.003922" />
<polygon points="170.000000,95.000000,170.000000,137.000000,159.000000,122.000000," fill="#140100" fill-opacity="0.105882" />
<polygon points="134.000000,28.000000,99.000000,36.000000,105.000000,27.000000," fill="#020003" fill-opacity="0.494118" />
<polygon points="82.000000,124.000000,169.000000,125.000000,161.000000,140.000000," fill="#feff06" fill-opacity="0.027451" />
<polygon points="155.000000,160.000000,60.000000,63.000000,178.000000,87.000000," fill="#180f1d" fill-opacity="0.003922" />
<polygon points="202.000000,132.000000,196.000000,103.000000,175.000000,52.000000," fill="#fffdfb" fill-opacity="0.121569" />
<polygon points="104.000000,48.000000,109.000000,253.000000,143.000000,78.000000," fill="#f2debf" fill-opacity="0.007843" />
<polygon points="174.000000,71.000000,187.000000,78.000000,141.000000,64.000000," fill="#fffffc" fill-opacity="0.247059" />
<polygon points="93.000000,172.000000,37.000000,231.000000,43.000000,219.000000," fill="#ffffff" fill-opacity="0.498039" />
<polygon points="63.000000,221.000000,66.000000,180.000000,101.000000,21.000000," fill="#00000a" fill-opacity="0.054902" />
<polygon points="57.000000,226.000000,209.000000,232.000000,142.000000,246.000000," fill="#10040a" fill-opacity="0.011765" />
<polygon points="101.000000,240.000000,115.000000,221.000000,141.000000,180.000000," fill="#8081b2" fill-opacity="0.247059" />
<polygon points="21.000000,214.000000,7.000000,240.000000,40.000000,238.000000," fill="#000200" fill-opacity="0.121569" />
<polygon points="138.000000,59.000000,162.000000,132.000000,155.000000,41.000000," fill="#23201f" fill-opacity="0.247059" />
<polygon points="85.000000,74.000000,61.000000,227.000000,77.000000,152.000000," fill="#000004" fill-opacity="0.121569" />
<polygon points="117.000000,127.000000,21.000000,115.000000,0.000000,127.000000," fill="#fffefc" fill-opacity="0.121569" />
<polygon points="86.000000,55.000000,132.000000,221.000000,178.000000,247.000000," fill="#1c0037" fill-opacity="0.011765" />
<polygon points="136.000000,13.000000,108.000000,48.000000,127.000000,50.000000," fill="#ff7d2d" fill-opacity="0.121569" />
<polygon points="135.000000,79.000000,58.000000,97.000000,179.000000,32.000000," fill="#191a1e" fill-opacity="0.007843" />
<polygon points="96.000000,251.000000,81.000000,233.000000,143.000000,163.000000," fill="#000000" fill-opacity="0.121569" />
<polygon points="113.000000,25.000000,93.000000,74.000000,28.000000,213.000000," fill="#fefefe" fill-opacity="0.113725" />
<polygon points="69.000000,200.000000,70.000000,143.000000,45.000000,201.000000," fill="#010000" fill-opacity="0.247059" />
<polygon points="142.000000,107.000000,105.000000,46.000000,109.000000,125.000000," fill="#ffd0d7" fill-opacity="0.027451" />
<polygon points="211.000000,201.000000,119.000000,218.000000,163.000000,232.000000," fill="#171307" fill-opacity="0.011765" />
<polygon points="110.000000,110.000000,92.000000,112.000000,87.000000,135.000000," fill="#febe4b" fill-opacity="0.090196" />
<polygon points="63.000000,71.000000,173.000000,40.000000,132.000000,59.000000," fill="#fffefe" fill-opacity="0.058824" />
<polygon points="156.000000,214.000000,155.000000,201.000000,172.000000,179.000000," fill="#f3ba7f" fill-opacity="0.184314" />
<polygon points="100.000000,112.000000,98.000000,24.000000,133.000000,66.000000," fill="#080102" fill-opacity="0.113725" />
<polygon points="75.000000,88.000000,169.000000,174.000000,78.000000,97.000000," fill="#3d2d3d" fill-opacity="0.121569" />
<polygon points="82.000000,189.000000,89.000000,171.000000,106.000000,169.000000," fill="#000013" fill-opacity="0.121569" />
<polygon points="159.000000,140.000000,187.000000,112.000000,136.000000,134.000000," fill="#fffe90" fill-opacity="0.058824" />
<polygon points="211.000000,160.000000,113.000000,132.000000,95.000000,82.000000," fill="#190600" fill-opacity="0.011765" />
<polygon points="202.000000,123.000000,215.000000,175.000000,192.000000,134.000000," fill="#404040" fill-opacity="0.247059" />
<polygon points="29.000000,103.000000,76.000000,162.000000,76.000000,151.000000," fill="#fffcea" fill-opacity="0.121569" />
<polygon points="155.000000,157.000000,178.000000,221.000000,141.000000,244.000000," fill="#7faf4c" fill-opacity="0.058824" />
<polygon points="77.000000,188.000000,63.000000,236.000000,50.000000,220.000000," fill="#ffffff" fill-opacity="0.494118" />
<polygon points="104.000000,71.000000,74.000000,100.000000,84.000000,73.000000," fill="#000000" fill-opacity="0.121569" />
<polygon points="156.000000,78.000000,237.000000,116.000000,140.000000,106.000000," fill="#0d0400" fill-opacity="0.011765" />
<polygon points="91.000000,74.000000,78.000000,104.000000,87.000000,110.000000," fill="#ddbf7f" fill-opacity="0.184314" />
<polygon points="107.000000,56.000000,178.000000,63.000000,188.000000,74.000000," fill="#6d6545" fill-opacity="0.247059" />
<polygon points="187.000000,196.000000,171.000000,165.000000,140.000000,192.000000," fill="#e01816" fill-opacity="0.027451" />
<polygon points="111.000000,163.000000,146.000000,224.000000,111.000000,153.000000," fill="#010612" fill-opacity="0.125490" />
<polygon points="0.000000,123.000000,21.000000,240.000000,30.000000,229.000000," fill="#3d473f" fill-opacity="0.003922" />
<polygon points="126.000000,240.000000,84.000000,214.000000,99.000000,221.000000," fill="#e7f9f5" fill-opacity="0.141176" />
<polygon points="209.000000,152.000000,162.000000,79.000000,234.000000,160.000000," fill="#ffff7b" fill-opacity="0.058824" />
<polygon points="206.000000,50.000000,219.000000,125.000000,216.000000,221.000000," fill="#0b0100" fill-opacity="0.011765" />
<polygon points="176.000000,115.000000,164.000000,130.000000,145.000000,185.000000," fill="#2881b7" fill-opacity="0.058824" />
<polygon points="160.000000,107.000000,196.000000,46.000000,1.000000,182.000000," fill="#670622" fill-opacity="0.003922" />
<polygon points="238.000000,239.000000,0.000000,239.000000,191.000000,256.000000," fill="#f8f8f8" fill-opacity="1.000000" />
<polygon points="159.000000,61.000000,205.000000,110.000000,224.000000,200.000000," fill="#1f2f4a" fill-opacity="0.007843" />
<polygon points="150.000000,129.000000,108.000000,225.000000,104.000000,15.000000," fill="#bf591f" fill-opacity="0.011765" />
<polygon points="213.000000,252.000000,119.000000,197.000000,167.000000,232.000000," fill="#011000" fill-opacity="0.043137" />
<polygon points="186.000000,188.000000,156.000000,236.000000,77.000000,89.000000," fill="#6f5746" fill-opacity="0.003922" />
<polygon points="199.000000,93.000000,92.000000,42.000000,146.000000,57.000000," fill="#030101" fill-opacity="0.054902" />
<polygon points="97.000000,49.000000,116.000000,53.000000,117.000000,71.000000," fill="#b49f5d" fill-opacity="0.184314" />
<polygon points="22.000000,225.000000,16.000000,217.000000,99.000000,178.000000," fill="#000a81" fill-opacity="0.058824" />
<polygon points="142.000000,232.000000,161.000000,241.000000,134.000000,184.000000," fill="#02010a" fill-opacity="0.058824" />
<polygon points="123.000000,218.000000,120.000000,169.000000,96.000000,161.000000," fill="#ffff7f" fill-opacity="0.058824" />
<polygon points="235.000000,147.000000,211.000000,143.000000,210.000000,146.000000," fill="#ffffff" fill-opacity="0.247059" />
<polygon points="134.000000,92.000000,182.000000,76.000000,147.000000,48.000000," fill="#f3f170" fill-opacity="0.027451" />
<polygon points="104.000000,106.000000,117.000000,97.000000,111.000000,91.000000," fill="#fefcbf" fill-opacity="0.121569" />
<polygon points="109.000000,54.000000,87.000000,121.000000,68.000000,195.000000," fill="#fff9b3" fill-opacity="0.058824" />
<polygon points="212.000000,160.000000,180.000000,232.000000,178.000000,210.000000," fill="#feffff" fill-opacity="0.498039" />
<polygon points="138.000000,42.000000,42.000000,29.000000,190.000000,40.000000," fill="#fffcfb" fill-opacity="0.058824" />
<polygon points="130.000000,75.000000,119.000000,103.000000,127.000000,35.000000," fill="#f3f9f9" fill-opacity="0.043137" />
<polygon points="135.000000,81.000000,116.000000,77.000000,167.000000,31.000000," fill="#00000a" fill-opacity="0.054902" />
<polygon points="171.000000,203.000000,178.000000,120.000000,172.000000,121.000000," fill="#ffffff" fill-opacity="0.247059" />
<polygon points="84.000000,181.000000,60.000000,235.000000,59.000000,249.000000," fill="#6c7c7e" fill-opacity="0.121569" />
<polygon points="37.000000,217.000000,38.000000,191.000000,93.000000,114.000000," fill="#252330" fill-opacity="0.211765" />
<polygon points="148.000000,168.000000,88.000000,172.000000,62.000000,228.000000," fill="#010c38" fill-opacity="0.058824" />
<polygon points="221.000000,164.000000,211.000000,153.000000,210.000000,165.000000," fill="#1f1f1f" fill-opacity="0.843137" />
<polygon points="149.000000,217.000000,187.000000,231.000000,183.000000,215.000000," fill="#270300" fill-opacity="0.058824" />
<polygon points="86.000000,230.000000,91.000000,231.000000,119.000000,251.000000," fill="#fdfffd" fill-opacity="0.121569" />
<polygon points="179.000000,192.000000,23.000000,241.000000,184.000000,180.000000," fill="#030013" fill-opacity="0.035294" />
<polygon points="141.000000,23.000000,131.000000,11.000000,110.000000,11.000000," fill="#021a4f" fill-opacity="0.121569" />
<polygon points="116.000000,192.000000,182.000000,186.000000,184.000000,256.000000," fill="#6f2242" fill-opacity="0.003922" />
<polygon points="45.000000,243.000000,154.000000,15.000000,83.000000,133.000000," fill="#000101" fill-opacity="0.003922" />
<polygon points="136.000000,208.000000,140.000000,219.000000,142.000000,244.000000," fill="#fcfefe" fill-opacity="0.498039" />
<polygon points="183.000000,80.000000,191.000000,96.000000,105.000000,54.000000," fill="#a9881c" fill-opacity="0.090196" />
<polygon points="156.000000,212.000000,59.000000,222.000000,82.000000,187.000000," fill="#2074f4" fill-opacity="0.011765" />
<polygon points="151.000000,54.000000,152.000000,5.000000,132.000000,17.000000," fill="#ffffff" fill-opacity="0.121569" />
<polygon points="154.000000,37.000000,164.000000,55.000000,88.000000,0.000000," fill="#201918" fill-opacity="0.003922" />
<polygon points="185.000000,64.000000,169.000000,118.000000,77.000000,72.000000," fill="#20204b" fill-opacity="0.007843" />
<polygon points="133.000000,108.000000,140.000000,169.000000,189.000000,228.000000," fill="#50503f" fill-opacity="0.113725" />
<polygon points="175.000000,116.000000,148.000000,127.000000,165.000000,80.000000," fill="#041118" fill-opacity="0.184314" />
<polygon points="93.000000,177.000000,64.000000,248.000000,161.000000,145.000000," fill="#dece28" fill-opacity="0.015686" />
<polygon points="141.000000,44.000000,149.000000,33.000000,119.000000,20.000000," fill="#00001b" fill-opacity="0.121569" />
<polygon points="82.000000,90.000000,79.000000,88.000000,77.000000,154.000000," fill="#000012" fill-opacity="0.247059" />
<polygon points="147.000000,44.000000,143.000000,14.000000,142.000000,143.000000," fill="#000420" fill-opacity="0.058824" />
<polygon points="190.000000,208.000000,161.000000,150.000000,236.000000,208.000000," fill="#fbfdfc" fill-opacity="0.498039" />
<polygon points="79.000000,160.000000,147.000000,75.000000,165.000000,39.000000," fill="#fff6d9" fill-opacity="0.027451" />
<polygon points="236.000000,42.000000,189.000000,226.000000,214.000000,109.000000," fill="#020010" fill-opacity="0.011765" />
<polygon points="178.000000,192.000000,178.000000,155.000000,66.000000,209.000000," fill="#f3e0bf" fill-opacity="0.007843" />
<polygon points="202.000000,221.000000,149.000000,214.000000,163.000000,211.000000," fill="#080608" fill-opacity="0.062745" />
<polygon points="106.000000,100.000000,140.000000,113.000000,141.000000,76.000000," fill="#ff7f5e" fill-opacity="0.058824" />
<polygon points="35.000000,252.000000,66.000000,169.000000,101.000000,57.000000," fill="#f0feea" fill-opacity="0.035294" />
<polygon points="100.000000,150.000000,73.000000,106.000000,39.000000,91.000000," fill="#ffffff" fill-opacity="0.058824" />
<polygon points="126.000000,15.000000,91.000000,161.000000,63.000000,162.000000," fill="#2b0f00" fill-opacity="0.054902" />
<polygon points="211.000000,201.000000,190.000000,210.000000,210.000000,178.000000," fill="#f8faf9" fill-opacity="0.725490" />
<polygon points="119.000000,68.000000,176.000000,227.000000,99.000000,192.000000," fill="#695441" fill-opacity="0.003922" />
<polygon points="141.000000,118.000000,14.000000,52.000000,192.000000,91.000000," fill="#1a174a" fill-opacity="0.003922" />
<polygon points="133.000000,110.000000,61.000000,238.000000,65.000000,217.000000," fill="#010b43" fill-opacity="0.058824" />
</svg>