<svg viewBox="0 0 238 256" xmlns="http://www.w3.org/2000/svg">
<rect width="238" height="256" fill="#000000" fill-opacity="1"/>
<polygon points="0.000000,0.000000,238.000000,256.000000,0.000000,256.000000," fill="#eff7f7" fill-opacity="1.000000" />
<polygon points="0.000000,0.000000,238.000000,256.000000,238.000000,0.000000," fill="#fdfdfe" fill-opacity="0.980392" />
<polygon points="77.000000,96.000000,231.000000,135.000000,119.000000,5.000000," fill="#805f3f" fill-opacity="0.862745" />
<polygon points="22.000000,223.000000,136.000000,15.000000,179.000000,217.000000," fill="#464143" fill-opacity="0.843137" />
<polygon points="180.000000,239.000000,6.000000,238.000000,149.000000,61.000000," fill="#403740" fill-opacity="1.000000" />
<polygon points="58.000000,243.000000,105.000000,137.000000,20.000000,251.000000," fill="#f7f9f7" fill-opacity="1.000000" />
<polygon points="176.000000,232.000000,217.000000,127.000000,225.000000,169.000000," fill="#001043" fill-opacity="0.450980" />
<polygon points="212.000000,193.000000,192.000000,114.000000,232.000000,151.000000," fill="#09033b" fill-opacity="0.600000" />
<polygon points="187.000000,63.000000,140.000000,223.000000,142.000000,33.000000," fill="#000811" fill-opacity="0.458824" />
<polygon points="73.000000,120.000000,107.000000,10.000000,196.000000,120.000000," fill="#24232f" fill-opacity="0.494118" />
<polygon points="91.000000,254.000000,145.000000,238.000000,132.000000,197.000000," fill="#ffffff" fill-opacity="1.000000" />
<polygon points="217.000000,192.000000,113.000000,80.000000,151.000000,233.000000," fill="#fffffd" fill-opacity="0.180392" />
<polygon points="71.000000,180.000000,105.000000,170.000000,106.000000,129.000000," fill="#ffffff" fill-opacity="0.498039" />
<polygon points="75.000000,241.000000,59.000000,187.000000,214.000000,148.000000," fill="#010319" fill-opacity="0.207843" />
<polygon points="157.000000,32.000000,111.000000,185.000000,110.000000,32.000000," fill="#fff695" fill-opacity="0.247059" />
<polygon points="231.000000,19.000000,231.000000,163.000000,211.000000,147.000000," fill="#fefeff" fill-opacity="0.498039" />
<polygon points="164.000000,130.000000,142.000000,181.000000,186.000000,249.000000," fill="#fafabf" fill-opacity="0.247059" />
<polygon points="109.000000,130.000000,73.000000,241.000000,194.000000,85.000000," fill="#20111c" fill-opacity="0.494118" />
<polygon points="128.000000,130.000000,118.000000,231.000000,60.000000,61.000000," fill="#bebedd" fill-opacity="0.192157" />
<polygon points="106.000000,153.000000,175.000000,129.000000,94.000000,14.000000," fill="#050307" fill-opacity="0.247059" />
<polygon points="156.000000,71.000000,120.000000,2.000000,235.000000,138.000000," fill="#7f7f7d" fill-opacity="0.494118" />
<polygon points="134.000000,40.000000,89.000000,158.000000,33.000000,195.000000," fill="#00001b" fill-opacity="0.498039" />
<polygon points="101.000000,152.000000,3.000000,130.000000,116.000000,96.000000," fill="#e9fcfe" fill-opacity="0.121569" />
<polygon points="233.000000,198.000000,198.000000,256.000000,155.000000,144.000000," fill="#ffffff" fill-opacity="0.498039" />
<polygon points="182.000000,194.000000,181.000000,254.000000,172.000000,170.000000," fill="#777f83" fill-opacity="0.372549" />
<polygon points="93.000000,30.000000,227.000000,136.000000,216.000000,161.000000," fill="#2a0812" fill-opacity="0.121569" />
<polygon points="74.000000,72.000000,81.000000,92.000000,180.000000,54.000000," fill="#010600" fill-opacity="0.247059" />
<polygon points="48.000000,103.000000,106.000000,55.000000,1.000000,52.000000," fill="#eef7fc" fill-opacity="0.749020" />
<polygon points="164.000000,30.000000,189.000000,96.000000,192.000000,47.000000," fill="#fefffe" fill-opacity="0.498039" />
<polygon points="142.000000,71.000000,131.000000,42.000000,202.000000,91.000000," fill="#fffffe" fill-opacity="0.247059" />
<polygon points="116.000000,8.000000,189.000000,73.000000,93.000000,32.000000," fill="#010500" fill-opacity="0.247059" />
<polygon points="36.000000,246.000000,129.000000,88.000000,86.000000,187.000000," fill="#ffffff" fill-opacity="0.498039" />
<polygon points="175.000000,94.000000,227.000000,127.000000,223.000000,173.000000," fill="#7a8024" fill-opacity="0.247059" />
<polygon points="21.000000,255.000000,120.000000,69.000000,162.000000,40.000000," fill="#000004" fill-opacity="0.247059" />
<polygon points="119.000000,59.000000,195.000000,249.000000,118.000000,197.000000," fill="#5b4003" fill-opacity="0.121569" />
<polygon points="34.000000,108.000000,149.000000,81.000000,134.000000,127.000000," fill="#ffbd7d" fill-opacity="0.121569" />
<polygon points="43.000000,171.000000,115.000000,111.000000,29.000000,240.000000," fill="#000000" fill-opacity="0.498039" />
<polygon points="77.000000,96.000000,139.000000,156.000000,77.000000,120.000000," fill="#000020" fill-opacity="0.498039" />
<polygon points="28.000000,146.000000,158.000000,155.000000,127.000000,176.000000," fill="#ffffff" fill-opacity="0.121569" />
<polygon points="44.000000,198.000000,172.000000,178.000000,177.000000,211.000000," fill="#010303" fill-opacity="0.247059" />
<polygon points="101.000000,136.000000,175.000000,136.000000,206.000000,111.000000," fill="#feffff" fill-opacity="0.180392" />
<polygon points="0.000000,0.000000,0.000000,250.000000,79.000000,122.000000," fill="#fff9f9" fill-opacity="0.498039" />
<polygon points="134.000000,212.000000,175.000000,228.000000,140.000000,174.000000," fill="#fffef7" fill-opacity="0.121569" />
<polygon points="233.000000,122.000000,114.000000,52.000000,160.000000,88.000000," fill="#00021c" fill-opacity="0.129412" />
<polygon points="62.000000,231.000000,163.000000,53.000000,162.000000,192.000000," fill="#000400" fill-opacity="0.121569" />
<polygon points="209.000000,228.000000,77.000000,191.000000,141.000000,183.000000," fill="#c07b72" fill-opacity="0.121569" />
<polygon points="95.000000,95.000000,103.000000,3.000000,126.000000,193.000000," fill="#000007" fill-opacity="0.121569" />
<polygon points="76.000000,161.000000,64.000000,216.000000,96.000000,161.000000," fill="#ffffff" fill-opacity="0.498039" />
<polygon points="58.000000,225.000000,137.000000,192.000000,144.000000,202.000000," fill="#070b1f" fill-opacity="0.458824" />
<polygon points="182.000000,72.000000,114.000000,2.000000,138.000000,182.000000," fill="#000000" fill-opacity="0.121569" />
<polygon points="63.000000,19.000000,167.000000,6.000000,90.000000,0.000000," fill="#f7f7f8" fill-opacity="1.000000" />
<polygon points="140.000000,7.000000,147.000000,55.000000,152.000000,33.000000," fill="#ffffff" fill-opacity="0.498039" />
<polygon points="121.000000,0.000000,164.000000,29.000000,91.000000,24.000000," fill="#fdffff" fill-opacity="0.247059" />
<polygon points="193.000000,22.000000,118.000000,111.000000,42.000000,167.000000," fill="#fffebb" fill-opacity="0.121569" />
<polygon points="105.000000,36.000000,147.000000,31.000000,133.000000,68.000000," fill="#bf7e5c" fill-opacity="0.494118" />
<polygon points="17.000000,241.000000,161.000000,60.000000,90.000000,137.000000," fill="#030c01" fill-opacity="0.121569" />
<polygon points="122.000000,79.000000,144.000000,95.000000,133.000000,127.000000," fill="#fbfe80" fill-opacity="0.090196" />
<polygon points="107.000000,145.000000,148.000000,156.000000,76.000000,230.000000," fill="#fdaf50" fill-opacity="0.121569" />
<polygon points="150.000000,117.000000,53.000000,241.000000,88.000000,175.000000," fill="#020502" fill-opacity="0.090196" />
<polygon points="216.000000,106.000000,187.000000,136.000000,148.000000,16.000000," fill="#fffef7" fill-opacity="0.121569" />
<polygon points="3.000000,127.000000,84.000000,57.000000,63.000000,157.000000," fill="#fdfdff" fill-opacity="0.984314" />
<polygon points="1.000000,144.000000,77.000000,249.000000,81.000000,237.000000," fill="#fffbc2" fill-opacity="0.239216" />
<polygon points="130.000000,40.000000,12.000000,239.000000,34.000000,239.000000," fill="#000002" fill-opacity="0.498039" />
<polygon points="56.000000,148.000000,59.000000,96.000000,163.000000,256.000000," fill="#fffffd" fill-opacity="0.058824" />
<polygon points="204.000000,161.000000,212.000000,103.000000,185.000000,110.000000," fill="#5e4235" fill-opacity="0.247059" />
<polygon points="57.000000,182.000000,12.000000,226.000000,68.000000,192.000000," fill="#000006" fill-opacity="0.498039" />
<polygon points="219.000000,136.000000,142.000000,217.000000,202.000000,142.000000," fill="#00000e" fill-opacity="0.498039" />
<polygon points="80.000000,132.000000,177.000000,139.000000,26.000000,82.000000," fill="#fffb83" fill-opacity="0.058824" />
<polygon points="178.000000,209.000000,148.000000,240.000000,148.000000,145.000000," fill="#ff7a25" fill-opacity="0.121569" />
<polygon points="60.000000,233.000000,105.000000,242.000000,101.000000,163.000000," fill="#010003" fill-opacity="0.184314" />
<polygon points="80.000000,99.000000,136.000000,36.000000,74.000000,81.000000," fill="#00000e" fill-opacity="0.247059" />
<polygon points="192.000000,192.000000,229.000000,198.000000,148.000000,154.000000," fill="#fefefd" fill-opacity="0.898039" />
<polygon points="169.000000,132.000000,93.000000,245.000000,178.000000,76.000000," fill="#000000" fill-opacity="0.121569" />
<polygon points="168.000000,118.000000,121.000000,191.000000,148.000000,224.000000," fill="#503f3f" fill-opacity="0.380392" />
<polygon points="224.000000,179.000000,204.000000,187.000000,204.000000,144.000000," fill="#00060d" fill-opacity="0.247059" />
<polygon points="223.000000,126.000000,203.000000,185.000000,204.000000,125.000000," fill="#f9bf7d" fill-opacity="0.247059" />
<polygon points="127.000000,70.000000,112.000000,68.000000,125.000000,53.000000," fill="#fff970" fill-opacity="0.247059" />
<polygon points="105.000000,29.000000,101.000000,56.000000,143.000000,40.000000," fill="#ffa022" fill-opacity="0.247059" />
<polygon points="100.000000,112.000000,76.000000,133.000000,91.000000,50.000000," fill="#e7d6ba" fill-opacity="0.105882" />
<polygon points="205.000000,152.000000,180.000000,177.000000,212.000000,111.000000," fill="#000025" fill-opacity="0.247059" />
<polygon points="131.000000,9.000000,106.000000,63.000000,83.000000,39.000000," fill="#370000" fill-opacity="0.121569" />
<polygon points="162.000000,54.000000,77.000000,170.000000,45.000000,187.000000," fill="#804c41" fill-opacity="0.121569" />
<polygon points="7.000000,245.000000,29.000000,208.000000,17.000000,253.000000," fill="#fefcff" fill-opacity="0.243137" />
<polygon points="200.000000,168.000000,213.000000,148.000000,210.000000,209.000000," fill="#201f57" fill-opacity="0.498039" />
<polygon points="206.000000,253.000000,96.000000,158.000000,15.000000,109.000000," fill="#fcffff" fill-opacity="0.058824" />
<polygon points="183.000000,123.000000,172.000000,183.000000,186.000000,186.000000," fill="#fefeff" fill-opacity="0.749020" />
<polygon points="17.000000,160.000000,94.000000,62.000000,102.000000,2.000000," fill="#fbfafb" fill-opacity="1.000000" />
<polygon points="140.000000,111.000000,212.000000,104.000000,231.000000,140.000000," fill="#74867f" fill-opacity="0.121569" />
<polygon points="82.000000,155.000000,63.000000,202.000000,37.000000,204.000000," fill="#000310" fill-opacity="0.623529" />
<polygon points="51.000000,170.000000,138.000000,139.000000,56.000000,158.000000," fill="#050709" fill-opacity="0.070588" />
<polygon points="152.000000,233.000000,119.000000,185.000000,133.000000,170.000000," fill="#000542" fill-opacity="0.247059" />
<polygon points="5.000000,31.000000,80.000000,161.000000,90.000000,224.000000," fill="#f7f3f7" fill-opacity="0.058824" />
<polygon points="187.000000,87.000000,238.000000,62.000000,166.000000,16.000000," fill="#f9f7f7" fill-opacity="1.000000" />
<polygon points="62.000000,40.000000,198.000000,79.000000,18.000000,54.000000," fill="#fffdfe" fill-opacity="0.121569" />
<polygon points="172.000000,103.000000,135.000000,83.000000,201.000000,138.000000," fill="#0e220f" fill-opacity="0.247059" />
<polygon points="167.000000,167.000000,185.000000,239.000000,56.000000,232.000000," fill="#16172c" fill-opacity="0.003922" />
<polygon points="89.000000,31.000000,40.000000,240.000000,57.000000,197.000000," fill="#ffffff" fill-opacity="0.086275" />
<polygon points="73.000000,156.000000,8.000000,160.000000,128.000000,131.000000," fill="#fffffd" fill-opacity="0.121569" />
<polygon points="186.000000,124.000000,216.000000,154.000000,156.000000,108.000000," fill="#fefeff" fill-opacity="0.247059" />
<polygon points="102.000000,91.000000,139.000000,83.000000,120.000000,192.000000," fill="#fff49d" fill-opacity="0.058824" />
<polygon points="75.000000,124.000000,145.000000,60.000000,105.000000,44.000000," fill="#14081e" fill-opacity="0.121569" />
<polygon points="98.000000,116.000000,84.000000,104.000000,11.000000,106.000000," fill="#fefefd" fill-opacity="0.247059" />
<polygon points="159.000000,149.000000,139.000000,256.000000,208.000000,119.000000," fill="#ffffff" fill-opacity="0.117647" />
<polygon points="202.000000,85.000000,75.000000,113.000000,134.000000,158.000000," fill="#010000" fill-opacity="0.121569" />
<polygon points="116.000000,10.000000,129.000000,16.000000,137.000000,103.000000," fill="#060408" fill-opacity="0.172549" />
<polygon points="224.000000,156.000000,232.000000,129.000000,37.000000,122.000000," fill="#fffeff" fill-opacity="0.058824" />
<polygon points="97.000000,64.000000,4.000000,119.000000,30.000000,253.000000," fill="#080bfa" fill-opacity="0.003922" />
<polygon points="220.000000,45.000000,106.000000,54.000000,179.000000,63.000000," fill="#fffeff" fill-opacity="0.121569" />
<polygon points="169.000000,201.000000,81.000000,175.000000,185.000000,240.000000," fill="#050103" fill-opacity="0.121569" />
<polygon points="121.000000,8.000000,209.000000,126.000000,236.000000,209.000000," fill="#00030f" fill-opacity="0.023529" />
<polygon points="84.000000,129.000000,142.000000,105.000000,122.000000,82.000000," fill="#f8ef7c" fill-opacity="0.058824" />
<polygon points="73.000000,201.000000,64.000000,228.000000,77.000000,203.000000," fill="#3f525f" fill-opacity="0.490196" />
<polygon points="164.000000,149.000000,189.000000,47.000000,174.000000,191.000000," fill="#ffffff" fill-opacity="0.121569" />
<polygon points="104.000000,79.000000,200.000000,92.000000,96.000000,32.000000," fill="#0c0301" fill-opacity="0.121569" />
<polygon points="118.000000,161.000000,83.000000,79.000000,82.000000,115.000000," fill="#ffffff" fill-opacity="0.121569" />
<polygon points="113.000000,123.000000,174.000000,27.000000,125.000000,67.000000," fill="#010202" fill-opacity="0.121569" />
<polygon points="122.000000,28.000000,140.000000,46.000000,146.000000,29.000000," fill="#000000" fill-opacity="0.247059" />
<polygon points="148.000000,39.000000,185.000000,16.000000,91.000000,93.000000," fill="#feffff" fill-opacity="0.121569" />
<polygon points="223.000000,166.000000,197.000000,110.000000,222.000000,175.000000," fill="#1f0611" fill-opacity="0.250980" />
<polygon points="141.000000,33.000000,134.000000,48.000000,108.000000,36.000000," fill="#ffc450" fill-opacity="0.247059" />
<polygon points="113.000000,136.000000,103.000000,112.000000,148.000000,70.000000," fill="#fdbf7e" fill-opacity="0.121569" />
<polygon points="100.000000,130.000000,148.000000,47.000000,112.000000,96.000000," fill="#dfbf7d" fill-opacity="0.121569" />
<polygon points="57.000000,204.000000,49.000000,203.000000,53.000000,221.000000," fill="#fefffa" fill-opacity="1.000000" />
<polygon points="105.000000,39.000000,181.000000,93.000000,93.000000,256.000000," fill="#0b1820" fill-opacity="0.003922" />
<polygon points="157.000000,79.000000,225.000000,129.000000,137.000000,36.000000," fill="#110000" fill-opacity="0.247059" />
<polygon points="174.000000,99.000000,60.000000,95.000000,166.000000,58.000000," fill="#fbfaff" fill-opacity="0.027451" />
<polygon points="171.000000,98.000000,216.000000,169.000000,202.000000,127.000000," fill="#240308" fill-opacity="0.058824" />
<polygon points="110.000000,160.000000,168.000000,96.000000,164.000000,146.000000," fill="#010006" fill-opacity="0.121569" />
<polygon points="147.000000,33.000000,51.000000,94.000000,63.000000,56.000000," fill="#fff4fd" fill-opacity="0.117647" />
<polygon points="114.000000,81.000000,28.000000,248.000000,50.000000,181.000000," fill="#000002" fill-opacity="0.239216" />
<polygon points="234.000000,15.000000,149.000000,22.000000,0.000000,26.000000," fill="#fefef3" fill-opacity="0.247059" />
<polygon points="103.000000,94.000000,10.000000,80.000000,211.000000,62.000000," fill="#11132a" fill-opacity="0.003922" />
<polygon points="237.000000,145.000000,231.000000,160.000000,211.000000,145.000000," fill="#fbfffe" fill-opacity="0.498039" />
<polygon points="159.000000,44.000000,163.000000,39.000000,204.000000,104.000000," fill="#02146d" fill-opacity="0.101961" />
<polygon points="145.000000,69.000000,234.000000,110.000000,202.000000,103.000000," fill="#fffffc" fill-opacity="0.247059" />
<polygon points="227.000000,141.000000,226.000000,127.000000,188.000000,189.000000," fill="#0f0208" fill-opacity="0.121569" />
<polygon points="157.000000,110.000000,164.000000,208.000000,59.000000,50.000000," fill="#201600" fill-opacity="0.011765" />
<polygon points="179.000000,184.000000,96.000000,95.000000,149.000000,249.000000," fill="#bfa73e" fill-opacity="0.011765" />
<polygon points="88.000000,144.000000,28.000000,106.000000,136.000000,222.000000," fill="#feffff" fill-opacity="0.058824" />
<polygon points="117.000000,216.000000,86.000000,240.000000,92.000000,169.000000," fill="#000113" fill-opacity="0.247059" />
<polygon points="172.000000,221.000000,216.000000,153.000000,176.000000,233.000000," fill="#fffcee" fill-opacity="0.247059" />
<polygon points="115.000000,15.000000,128.000000,19.000000,135.000000,143.000000," fill="#010100" fill-opacity="0.121569" />
<polygon points="23.000000,223.000000,92.000000,132.000000,36.000000,218.000000," fill="#f1fc7e" fill-opacity="0.058824" />
<polygon points="233.000000,125.000000,158.000000,74.000000,118.000000,64.000000," fill="#000000" fill-opacity="0.078431" />
<polygon points="185.000000,216.000000,163.000000,229.000000,85.000000,107.000000," fill="#7f7755" fill-opacity="0.247059" />
<polygon points="0.000000,241.000000,238.000000,237.000000,21.000000,256.000000," fill="#ffffff" fill-opacity="0.247059" />
<polygon points="213.000000,227.000000,85.000000,108.000000,94.000000,88.000000," fill="#4c4700" fill-opacity="0.058824" />
<polygon points="27.000000,212.000000,21.000000,228.000000,79.000000,108.000000," fill="#ffffff" fill-opacity="0.247059" />
<polygon points="98.000000,115.000000,106.000000,63.000000,43.000000,213.000000," fill="#f77f4a" fill-opacity="0.058824" />
<polygon points="177.000000,249.000000,96.000000,173.000000,153.000000,114.000000," fill="#060703" fill-opacity="0.027451" />
<polygon points="147.000000,112.000000,77.000000,191.000000,66.000000,246.000000," fill="#1f1222" fill-opacity="0.121569" />
<polygon points="133.000000,168.000000,163.000000,161.000000,57.000000,16.000000," fill="#736987" fill-opacity="0.011765" />
<polygon points="40.000000,223.000000,114.000000,144.000000,62.000000,214.000000," fill="#fdfeff" fill-opacity="0.247059" />
<polygon points="98.000000,32.000000,127.000000,111.000000,96.000000,51.000000," fill="#172743" fill-opacity="0.247059" />
<polygon points="175.000000,90.000000,164.000000,31.000000,153.000000,70.000000," fill="#fff279" fill-opacity="0.121569" />
<polygon points="235.000000,176.000000,192.000000,81.000000,238.000000,0.000000," fill="#ffffff" fill-opacity="0.121569" />
<polygon points="202.000000,96.000000,204.000000,185.000000,224.000000,168.000000," fill="#113e2f" fill-opacity="0.094118" />
<polygon points="219.000000,84.000000,152.000000,133.000000,155.000000,236.000000," fill="#feffff" fill-opacity="0.058824" />
<polygon points="4.000000,256.000000,30.000000,238.000000,178.000000,239.000000," fill="#fffcfd" fill-opacity="0.329412" />
<polygon points="146.000000,78.000000,214.000000,102.000000,79.000000,79.000000," fill="#000003" fill-opacity="0.058824" />
<polygon points="97.000000,154.000000,158.000000,239.000000,184.000000,190.000000," fill="#020000" fill-opacity="0.058824" />
<polygon points="80.000000,240.000000,182.000000,240.000000,80.000000,42.000000," fill="#15fffd" fill-opacity="0.003922" />
<polygon points="180.000000,109.000000,123.000000,111.000000,230.000000,126.000000," fill="#010001" fill-opacity="0.121569" />
<polygon points="172.000000,112.000000,98.000000,248.000000,136.000000,110.000000," fill="#000220" fill-opacity="0.121569" />
<polygon points="104.000000,182.000000,119.000000,123.000000,99.000000,152.000000," fill="#100605" fill-opacity="0.247059" />
<polygon points="148.000000,54.000000,118.000000,200.000000,123.000000,112.000000," fill="#fffe7e" fill-opacity="0.058824" />
<polygon points="175.000000,239.000000,182.000000,240.000000,236.000000,115.000000," fill="#02011f" fill-opacity="0.121569" />
<polygon points="119.000000,224.000000,174.000000,228.000000,189.000000,240.000000," fill="#010101" fill-opacity="0.058824" />
<polygon points="91.000000,203.000000,128.000000,106.000000,184.000000,197.000000," fill="#6caa3e" fill-opacity="0.011765" />
<polygon points="226.000000,175.000000,228.000000,134.000000,237.000000,129.000000," fill="#fcfaff" fill-opacity="1.000000" />
<polygon points="91.000000,159.000000,82.000000,115.000000,140.000000,15.000000," fill="#000000" fill-opacity="0.121569" />
<polygon points="36.000000,195.000000,74.000000,122.000000,7.000000,235.000000," fill="#fbfbfb" fill-opacity="0.949020" />
<polygon points="142.000000,72.000000,178.000000,62.000000,165.000000,44.000000," fill="#7f785f" fill-opacity="0.494118" />
<polygon points="97.000000,82.000000,76.000000,122.000000,100.000000,119.000000," fill="#7e7050" fill-opacity="0.415686" />
<polygon points="219.000000,120.000000,227.000000,156.000000,203.000000,149.000000," fill="#ffffff" fill-opacity="0.121569" />
<polygon points="96.000000,119.000000,194.000000,112.000000,167.000000,64.000000," fill="#031301" fill-opacity="0.027451" />
<polygon points="133.000000,74.000000,16.000000,116.000000,218.000000,11.000000," fill="#100ff8" fill-opacity="0.003922" />
<polygon points="178.000000,93.000000,123.000000,237.000000,146.000000,63.000000," fill="#0d1321" fill-opacity="0.003922" />
<polygon points="149.000000,26.000000,52.000000,217.000000,100.000000,59.000000," fill="#0f0401" fill-opacity="0.058824" />
<polygon points="133.000000,45.000000,90.000000,88.000000,164.000000,235.000000," fill="#efe1c7" fill-opacity="0.007843" />
<polygon points="83.000000,143.000000,139.000000,63.000000,194.000000,61.000000," fill="#01014e" fill-opacity="0.007843" />
<polygon points="153.000000,179.000000,163.000000,226.000000,161.000000,208.000000," fill="#fffdfc" fill-opacity="0.243137" />
<polygon points="154.000000,115.000000,179.000000,256.000000,104.000000,145.000000," fill="#11001f" fill-opacity="0.023529" />
<polygon points="85.000000,204.000000,87.000000,231.000000,149.000000,11.000000," fill="#023d83" fill-opacity="0.058824" />
<polygon points="146.000000,194.000000,68.000000,225.000000,96.000000,224.000000," fill="#120f1e" fill-opacity="0.376471" />
<polygon points="72.000000,244.000000,59.000000,34.000000,41.000000,79.000000," fill="#00001f" fill-opacity="0.003922" />
<polygon points="232.000000,136.000000,89.000000,47.000000,131.000000,61.000000," fill="#fcffff" fill-opacity="0.050980" />
<polygon points="188.000000,256.000000,226.000000,173.000000,182.000000,210.000000," fill="#f9f7f7" fill-opacity="1.000000" />
<polygon points="127.000000,254.000000,103.000000,201.000000,60.000000,224.000000," fill="#1d159f" fill-opacity="0.007843" />
<polygon points="184.000000,223.000000,185.000000,212.000000,174.000000,209.000000," fill="#000000" fill-opacity="0.247059" />
<polygon points="237.000000,154.000000,147.000000,81.000000,214.000000,126.000000," fill="#493d17" fill-opacity="0.058824" />
<polygon points="90.000000,96.000000,160.000000,40.000000,159.000000,243.000000," fill="#701345" fill-opacity="0.011765" />
<polygon points="99.000000,47.000000,184.000000,199.000000,111.000000,208.000000," fill="#6f604f" fill-opacity="0.003922" />
<polygon points="57.000000,193.000000,56.000000,162.000000,25.000000,233.000000," fill="#ffefff" fill-opacity="0.058824" />
<polygon points="70.000000,123.000000,5.000000,245.000000,14.000000,0.000000," fill="#f8f8f7" fill-opacity="1.000000" />
<polygon points="0.000000,191.000000,67.000000,230.000000,70.000000,1.000000," fill="#0001f7" fill-opacity="0.003922" />
<polygon points="159.000000,18.000000,158.000000,244.000000,149.000000,64.000000," fill="#020203" fill-opacity="0.121569" />
<polygon points="168.000000,153.000000,122.000000,176.000000,128.000000,154.000000," fill="#ffe37f" fill-opacity="0.121569" />
<polygon points="180.000000,49.000000,152.000000,0.000000,147.000000,39.000000," fill="#f9f9f8" fill-opacity="1.000000" />
<polygon points="185.000000,125.000000,203.000000,134.000000,110.000000,42.000000," fill="#2a4141" fill-opacity="0.247059" />
<polygon points="107.000000,15.000000,84.000000,239.000000,73.000000,234.000000," fill="#7ebe7f" fill-opacity="0.054902" />
<polygon points="69.000000,190.000000,98.000000,101.000000,118.000000,53.000000," fill="#fff9fc" fill-opacity="0.058824" />
<polygon points="166.000000,145.000000,178.000000,143.000000,30.000000,92.000000," fill="#fee7c0" fill-opacity="0.050980" />
<polygon points="49.000000,212.000000,83.000000,93.000000,70.000000,165.000000," fill="#fcebff" fill-opacity="0.058824" />
<polygon points="119.000000,7.000000,63.000000,56.000000,142.000000,20.000000," fill="#156f06" fill-opacity="0.023529" />
<polygon points="140.000000,193.000000,149.000000,216.000000,216.000000,250.000000," fill="#fff9be" fill-opacity="0.121569" />
<polygon points="223.000000,151.000000,190.000000,104.000000,170.000000,114.000000," fill="#450605" fill-opacity="0.121569" />
<polygon points="169.000000,241.000000,105.000000,180.000000,161.000000,155.000000," fill="#030a01" fill-opacity="0.058824" />
<polygon points="158.000000,215.000000,161.000000,147.000000,81.000000,176.000000," fill="#fffd6f" fill-opacity="0.027451" />
<polygon points="119.000000,40.000000,131.000000,58.000000,135.000000,124.000000," fill="#f6e17c" fill-opacity="0.054902" />
<polygon points="93.000000,88.000000,204.000000,152.000000,172.000000,114.000000," fill="#fefff7" fill-opacity="0.027451" />
<polygon points="201.000000,137.000000,136.000000,87.000000,157.000000,66.000000," fill="#010341" fill-opacity="0.117647" />
<polygon points="193.000000,55.000000,138.000000,71.000000,0.000000,225.000000," fill="#7a0c26" fill-opacity="0.003922" />
<polygon points="170.000000,94.000000,170.000000,137.000000,159.000000,122.000000," fill="#0a0101" fill-opacity="0.105882" />
<polygon points="134.000000,28.000000,99.000000,36.000000,105.000000,27.000000," fill="#000002" fill-opacity="0.494118" />
<polygon points="82.000000,124.000000,170.000000,124.000000,161.000000,140.000000," fill="#fffb3e" fill-opacity="0.058824" />
<polygon points="155.000000,157.000000,60.000000,63.000000,178.000000,86.000000," fill="#170f1d" fill-opacity="0.011765" />
<polygon points="202.000000,132.000000,196.000000,103.000000,175.000000,52.000000," fill="#fefffe" fill-opacity="0.121569" />
<polygon points="104.000000,48.000000,109.000000,252.000000,143.000000,78.000000," fill="#f8dfbf" fill-opacity="0.007843" />
<polygon points="174.000000,71.000000,187.000000,78.000000,141.000000,64.000000," fill="#ffffff" fill-opacity="0.247059" />
<polygon points="93.000000,171.000000,37.000000,231.000000,43.000000,219.000000," fill="#ffffff" fill-opacity="0.498039" />
<polygon points="63.000000,221.000000,66.000000,180.000000,101.000000,21.000000," fill="#00000a" fill-opacity="0.058824" />
<polygon points="59.000000,226.000000,209.000000,232.000000,146.000000,245.000000," fill="#000004" fill-opacity="0.027451" />
<polygon points="101.000000,240.000000,115.000000,221.000000,141.000000,180.000000," fill="#8081a5" fill-opacity="0.247059" />
<polygon points="21.000000,215.000000,7.000000,240.000000,37.000000,240.000000," fill="#000001" fill-opacity="0.247059" />
<polygon points="138.000000,61.000000,159.000000,132.000000,155.000000,41.000000," fill="#2f281e" fill-opacity="0.247059" />
<polygon points="84.000000,73.000000,61.000000,227.000000,77.000000,152.000000," fill="#000000" fill-opacity="0.117647" />
<polygon points="116.000000,127.000000,29.000000,112.000000,0.000000,127.000000," fill="#fcf8f9" fill-opacity="0.121569" />
<polygon points="86.000000,55.000000,132.000000,221.000000,178.000000,247.000000," fill="#0a0a35" fill-opacity="0.003922" />
<polygon points="136.000000,13.000000,108.000000,48.000000,127.000000,50.000000," fill="#ff7d20" fill-opacity="0.121569" />
<polygon points="135.000000,79.000000,55.000000,101.000000,180.000000,34.000000," fill="#170f01" fill-opacity="0.023529" />
<polygon points="96.000000,251.000000,80.000000,233.000000,143.000000,163.000000," fill="#000000" fill-opacity="0.121569" />
<polygon points="113.000000,25.000000,93.000000,74.000000,28.000000,213.000000," fill="#ffffff" fill-opacity="0.121569" />
<polygon points="69.000000,200.000000,70.000000,143.000000,45.000000,201.000000," fill="#000004" fill-opacity="0.247059" />
<polygon points="142.000000,106.000000,105.000000,47.000000,109.000000,126.000000," fill="#e8feff" fill-opacity="0.027451" />
<polygon points="211.000000,201.000000,119.000000,218.000000,155.000000,232.000000," fill="#130300" fill-opacity="0.023529" />
<polygon points="119.000000,111.000000,92.000000,112.000000,87.000000,135.000000," fill="#fabf7f" fill-opacity="0.121569" />
<polygon points="68.000000,71.000000,172.000000,40.000000,131.000000,59.000000," fill="#fffffe" fill-opacity="0.058824" />
<polygon points="156.000000,215.000000,155.000000,201.000000,172.000000,179.000000," fill="#f0bd7f" fill-opacity="0.184314" />
<polygon points="100.000000,112.000000,98.000000,24.000000,133.000000,66.000000," fill="#010000" fill-opacity="0.113725" />
<polygon points="75.000000,88.000000,169.000000,174.000000,78.000000,97.000000," fill="#3f332d" fill-opacity="0.247059" />
<polygon points="82.000000,189.000000,89.000000,171.000000,105.000000,169.000000," fill="#01051f" fill-opacity="0.121569" />
<polygon points="159.000000,140.000000,187.000000,112.000000,136.000000,134.000000," fill="#fcfda2" fill-opacity="0.058824" />
<polygon points="211.000000,160.000000,119.000000,132.000000,90.000000,80.000000," fill="#141218" fill-opacity="0.003922" />
<polygon points="202.000000,123.000000,215.000000,175.000000,192.000000,134.000000," fill="#404040" fill-opacity="0.247059" />
<polygon points="29.000000,101.000000,76.000000,162.000000,76.000000,151.000000," fill="#fefde7" fill-opacity="0.098039" />
<polygon points="155.000000,144.000000,176.000000,212.000000,141.000000,248.000000," fill="#7eaa61" fill-opacity="0.058824" />
<polygon points="77.000000,188.000000,63.000000,236.000000,50.000000,219.000000," fill="#ffffff" fill-opacity="0.498039" />
<polygon points="104.000000,71.000000,74.000000,100.000000,84.000000,73.000000," fill="#000103" fill-opacity="0.243137" />
<polygon points="156.000000,78.000000,236.000000,116.000000,130.000000,104.000000," fill="#090401" fill-opacity="0.011765" />
<polygon points="91.000000,74.000000,78.000000,104.000000,87.000000,110.000000," fill="#ddbf7f" fill-opacity="0.243137" />
<polygon points="107.000000,56.000000,178.000000,63.000000,188.000000,74.000000," fill="#616241" fill-opacity="0.243137" />
<polygon points="187.000000,196.000000,171.000000,165.000000,140.000000,192.000000," fill="#af1e01" fill-opacity="0.043137" />
<polygon points="111.000000,163.000000,146.000000,224.000000,111.000000,153.000000," fill="#010311" fill-opacity="0.192157" />
<polygon points="60.000000,120.000000,22.000000,239.000000,37.000000,238.000000," fill="#0a080c" fill-opacity="0.003922" />
<polygon points="125.000000,240.000000,84.000000,214.000000,99.000000,221.000000," fill="#fbfcff" fill-opacity="0.152941" />
<polygon points="209.000000,152.000000,162.000000,79.000000,234.000000,160.000000," fill="#fcfd73" fill-opacity="0.058824" />
<polygon points="206.000000,51.000000,218.000000,127.000000,215.000000,203.000000," fill="#120e11" fill-opacity="0.011765" />
<polygon points="176.000000,115.000000,164.000000,130.000000,145.000000,185.000000," fill="#1d82b0" fill-opacity="0.058824" />
<polygon points="161.000000,107.000000,196.000000,44.000000,0.000000,182.000000," fill="#071726" fill-opacity="0.003922" />
<polygon points="238.000000,239.000000,0.000000,239.000000,192.000000,256.000000," fill="#f9f9f9" fill-opacity="1.000000" />
<polygon points="159.000000,61.000000,206.000000,106.000000,224.000000,200.000000," fill="#0d3d00" fill-opacity="0.023529" />
<polygon points="150.000000,129.000000,108.000000,226.000000,103.000000,21.000000," fill="#bf5b1f" fill-opacity="0.011765" />
<polygon points="213.000000,252.000000,119.000000,197.000000,167.000000,232.000000," fill="#010214" fill-opacity="0.039216" />
<polygon points="186.000000,187.000000,162.000000,239.000000,77.000000,89.000000," fill="#6d5e44" fill-opacity="0.003922" />
<polygon points="199.000000,92.000000,91.000000,42.000000,146.000000,57.000000," fill="#020301" fill-opacity="0.058824" />
<polygon points="99.000000,51.000000,116.000000,53.000000,117.000000,71.000000," fill="#bf9d5f" fill-opacity="0.247059" />
<polygon points="22.000000,225.000000,17.000000,217.000000,99.000000,178.000000," fill="#1a1bac" fill-opacity="0.050980" />
<polygon points="142.000000,232.000000,163.000000,241.000000,134.000000,182.000000," fill="#000000" fill-opacity="0.058824" />
<polygon points="123.000000,218.000000,120.000000,170.000000,96.000000,161.000000," fill="#fffc7e" fill-opacity="0.058824" />
<polygon points="235.000000,147.000000,211.000000,143.000000,210.000000,146.000000," fill="#fffffe" fill-opacity="0.247059" />
<polygon points="134.000000,94.000000,182.000000,76.000000,148.000000,48.000000," fill="#ffff79" fill-opacity="0.058824" />
<polygon points="104.000000,106.000000,119.000000,99.000000,111.000000,91.000000," fill="#fdf6bc" fill-opacity="0.121569" />
<polygon points="109.000000,54.000000,87.000000,121.000000,68.000000,195.000000," fill="#ffffb0" fill-opacity="0.058824" />
<polygon points="212.000000,160.000000,180.000000,231.000000,178.000000,210.000000," fill="#ffffff" fill-opacity="0.498039" />
<polygon points="138.000000,42.000000,42.000000,29.000000,190.000000,40.000000," fill="#fbfbfe" fill-opacity="0.090196" />
<polygon points="130.000000,75.000000,119.000000,103.000000,127.000000,35.000000," fill="#fef8c7" fill-opacity="0.058824" />
<polygon points="134.000000,81.000000,116.000000,76.000000,167.000000,31.000000," fill="#00000c" fill-opacity="0.050980" />
<polygon points="171.000000,203.000000,178.000000,121.000000,172.000000,115.000000," fill="#ffffff" fill-opacity="0.247059" />
<polygon points="84.000000,181.000000,60.000000,235.000000,59.000000,249.000000," fill="#6d6d7e" fill-opacity="0.121569" />
<polygon points="37.000000,217.000000,38.000000,191.000000,93.000000,114.000000," fill="#212035" fill-opacity="0.243137" />
<polygon points="148.000000,168.000000,88.000000,172.000000,62.000000,228.000000," fill="#060028" fill-opacity="0.058824" />
<polygon points="221.000000,164.000000,211.000000,153.000000,210.000000,166.000000," fill="#1f1c1f" fill-opacity="0.968627" />
<polygon points="149.000000,217.000000,187.000000,232.000000,183.000000,215.000000," fill="#3f1d00" fill-opacity="0.054902" />
<polygon points="86.000000,230.000000,91.000000,231.000000,119.000000,251.000000," fill="#ffffff" fill-opacity="0.121569" />
<polygon points="179.000000,192.000000,22.000000,241.000000,190.000000,179.000000," fill="#030007" fill-opacity="0.035294" />
<polygon points="141.000000,23.000000,131.000000,11.000000,110.000000,11.000000," fill="#002357" fill-opacity="0.121569" />
<polygon points="114.000000,191.000000,180.000000,186.000000,184.000000,255.000000," fill="#200230" fill-opacity="0.011765" />
<polygon points="45.000000,241.000000,154.000000,12.000000,83.000000,135.000000," fill="#040101" fill-opacity="0.003922" />
<polygon points="136.000000,208.000000,140.000000,219.000000,142.000000,244.000000," fill="#fefeff" fill-opacity="0.498039" />
<polygon points="183.000000,80.000000,191.000000,96.000000,107.000000,54.000000," fill="#bd9e38" fill-opacity="0.121569" />
<polygon points="175.000000,209.000000,59.000000,222.000000,82.000000,187.000000," fill="#2073f4" fill-opacity="0.011765" />
<polygon points="151.000000,52.000000,151.000000,4.000000,132.000000,17.000000," fill="#fdffff" fill-opacity="0.231373" />
<polygon points="154.000000,37.000000,168.000000,63.000000,88.000000,0.000000," fill="#221118" fill-opacity="0.003922" />
<polygon points="185.000000,64.000000,168.000000,118.000000,77.000000,72.000000," fill="#00004e" fill-opacity="0.003922" />
<polygon points="133.000000,108.000000,141.000000,169.000000,189.000000,228.000000," fill="#50513b" fill-opacity="0.121569" />
<polygon points="174.000000,116.000000,148.000000,127.000000,165.000000,81.000000," fill="#050410" fill-opacity="0.243137" />
<polygon points="90.000000,177.000000,64.000000,252.000000,161.000000,147.000000," fill="#ddd529" fill-opacity="0.015686" />
<polygon points="141.000000,44.000000,149.000000,33.000000,119.000000,23.000000," fill="#000209" fill-opacity="0.121569" />
<polygon points="82.000000,89.000000,79.000000,88.000000,77.000000,157.000000," fill="#000012" fill-opacity="0.247059" />
<polygon points="147.000000,46.000000,143.000000,15.000000,142.000000,131.000000," fill="#010000" fill-opacity="0.058824" />
<polygon points="190.000000,208.000000,161.000000,150.000000,236.000000,208.000000," fill="#ffffff" fill-opacity="0.498039" />
<polygon points="79.000000,160.000000,147.000000,75.000000,165.000000,39.000000," fill="#fffcb4" fill-opacity="0.058824" />
<polygon points="236.000000,43.000000,189.000000,225.000000,214.000000,110.000000," fill="#000118" fill-opacity="0.011765" />
<polygon points="173.000000,192.000000,178.000000,155.000000,66.000000,209.000000," fill="#fffffc" fill-opacity="0.011765" />
<polygon points="202.000000,221.000000,150.000000,214.000000,163.000000,211.000000," fill="#251f06" fill-opacity="0.090196" />
<polygon points="106.000000,100.000000,140.000000,112.000000,141.000000,77.000000," fill="#fc7f70" fill-opacity="0.121569" />
<polygon points="35.000000,251.000000,66.000000,169.000000,101.000000,57.000000," fill="#fbffea" fill-opacity="0.035294" />
<polygon points="100.000000,150.000000,73.000000,106.000000,39.000000,91.000000," fill="#f7f9ff" fill-opacity="0.058824" />
<polygon points="126.000000,15.000000,91.000000,161.000000,71.000000,162.000000," fill="#290000" fill-opacity="0.058824" />
<polygon points="211.000000,201.000000,190.000000,210.000000,210.000000,178.000000," fill="#fffefe" fill-opacity="0.749020" />
<polygon points="115.000000,90.000000,176.000000,227.000000,100.000000,192.000000," fill="#6c0144" fill-opacity="0.011765" />
<polygon points="141.000000,118.000000,14.000000,55.000000,193.000000,90.000000," fill="#171219" fill-opacity="0.003922" />
<polygon points="133.000000,111.000000,61.000000,238.000000,65.000000,218.000000," fill="#010a5b" fill-opacity="0.058824" />
<polygon points="192.000000,99.000000,200.000000,111.000000,101.000000,77.000000," fill="#fffffa" fill-opacity="0.058824" />
<polygon points="161.000000,193.000000,159.000000,127.000000,78.000000,97.000000," fill="#1e0449" fill-opacity="0.011765" />
<polygon points="63.000000,142.000000,58.000000,133.000000,215.000000,178.000000," fill="#fdfeff" fill-opacity="0.050980" />
<polygon points="162.000000,79.000000,146.000000,224.000000,155.000000,235.000000," fill="#b68937" fill-opacity="0.058824" />
<polygon points="105.000000,163.000000,141.000000,177.000000,184.000000,83.000000," fill="#06010a" fill-opacity="0.039216" />
<polygon points="88.000000,206.000000,171.000000,40.000000,175.000000,47.000000," fill="#f6fff2" fill-opacity="0.027451" />
<polygon points="129.000000,204.000000,86.000000,250.000000,208.000000,39.000000," fill="#080205" fill-opacity="0.003922" />
<polygon points="113.000000,228.000000,97.000000,156.000000,130.000000,146.000000," fill="#fde445" fill-opacity="0.027451" />
<polygon points="86.000000,144.000000,176.000000,107.000000,105.000000,140.000000," fill="#feffff" fill-opacity="0.058824" />
<polygon points="125.000000,70.000000,196.000000,101.000000,163.000000,70.000000," fill="#010000" fill-opacity="0.121569" />
<polygon points="124.000000,176.000000,141.000000,215.000000,170.000000,181.000000," fill="#655641" fill-opacity="0.121569" />
<polygon points="150.000000,69.000000,78.000000,71.000000,218.000000,116.000000," fill="#111849" fill-opacity="0.003922" />
<polygon points="77.000000,127.000000,75.000000,0.000000,0.000000,96.000000," fill="#f8f7f8" fill-opacity="0.874510" />
<polygon points="112.000000,42.000000,114.000000,20.000000,112.000000,15.000000," fill="#ffffe4" fill-opacity="0.180392" />
<polygon points="222.000000,163.000000,51.000000,110.000000,6.000000,90.000000," fill="#120f1b" fill-opacity="0.003922" />
<polygon points="84.000000,112.000000,197.000000,108.000000,213.000000,124.000000," fill="#fffefe" fill-opacity="0.027451" />
<polygon points="31.000000,213.000000,23.000000,212.000000,11.000000,234.000000," fill="#00062f" fill-opacity="0.247059" />
<polygon points="147.000000,29.000000,50.000000,186.000000,120.000000,83.000000," fill="#000000" fill-opacity="0.117647" />
<polygon points="138.000000,7.000000,106.000000,235.000000,79.000000,244.000000," fill="#141500" fill-opacity="0.011765" />
<polygon points="121.000000,178.000000,178.000000,76.000000,94.000000,105.000000," fill="#011449" fill-opacity="0.007843" />
<polygon points="111.000000,184.000000,138.000000,62.000000,105.000000,45.000000," fill="#271700" fill-opacity="0.011765" />
<polygon points="189.000000,154.000000,203.000000,158.000000,200.000000,146.000000," fill="#0a0f29" fill-opacity="0.435294" />
<polygon points="237.000000,147.000000,103.000000,34.000000,180.000000,123.000000," fill="#424823" fill-opacity="0.058824" />
<polygon points="113.000000,209.000000,175.000000,124.000000,161.000000,139.000000," fill="#010546" fill-opacity="0.074510" />
<polygon points="47.000000,213.000000,60.000000,253.000000,68.000000,233.000000," fill="#ffffff" fill-opacity="0.121569" />
<polygon points="63.000000,238.000000,182.000000,125.000000,58.000000,225.000000," fill="#d2fbf0" fill-opacity="0.011765" />
<polygon points="100.000000,176.000000,99.000000,147.000000,167.000000,157.000000," fill="#798251" fill-opacity="0.121569" />
<polygon points="105.000000,236.000000,56.000000,241.000000,161.000000,55.000000," fill="#160800" fill-opacity="0.011765" />
<polygon points="164.000000,33.000000,87.000000,160.000000,12.000000,228.000000," fill="#041f02" fill-opacity="0.027451" />
<polygon points="224.000000,238.000000,199.000000,103.000000,185.000000,194.000000," fill="#3bf7f9" fill-opacity="0.003922" />
<polygon points="204.000000,173.000000,191.000000,156.000000,166.000000,198.000000," fill="#000402" fill-opacity="0.015686" />
<polygon points="157.000000,233.000000,187.000000,205.000000,227.000000,142.000000," fill="#fffffd" fill-opacity="0.090196" />
<polygon points="67.000000,22.000000,90.000000,37.000000,160.000000,206.000000," fill="#f9ecf9" fill-opacity="0.011765" />
<polygon points="209.000000,184.000000,215.000000,169.000000,209.000000,160.000000," fill="#404560" fill-opacity="0.443137" />
<polygon points="97.000000,2.000000,141.000000,196.000000,98.000000,100.000000," fill="#80dfd3" fill-opacity="0.007843" />
<polygon points="90.000000,14.000000,105.000000,23.000000,137.000000,135.000000," fill="#0f0024" fill-opacity="0.011765" />
<polygon points="105.000000,142.000000,150.000000,79.000000,167.000000,256.000000," fill="#625540" fill-opacity="0.003922" />
<polygon points="111.000000,130.000000,127.000000,95.000000,19.000000,187.000000," fill="#100d22" fill-opacity="0.003922" />
<polygon points="132.000000,57.000000,189.000000,6.000000,8.000000,153.000000," fill="#fffff4" fill-opacity="0.054902" />
<polygon points="144.000000,236.000000,160.000000,16.000000,117.000000,175.000000," fill="#151821" fill-opacity="0.003922" />
<polygon points="135.000000,182.000000,217.000000,148.000000,108.000000,224.000000," fill="#272340" fill-opacity="0.003922" />
<polygon points="147.000000,27.000000,76.000000,5.000000,171.000000,19.000000," fill="#40b7f7" fill-opacity="0.007843" />
<polygon points="92.000000,108.000000,98.000000,109.000000,126.000000,140.000000," fill="#feda7d" fill-opacity="0.113725" />
<polygon points="201.000000,214.000000,119.000000,111.000000,52.000000,79.000000," fill="#1c183f" fill-opacity="0.003922" />
<polygon points="153.000000,37.000000,238.000000,64.000000,172.000000,58.000000," fill="#f4fcff" fill-opacity="0.160784" />
<polygon points="224.000000,111.000000,62.000000,96.000000,63.000000,93.000000," fill="#f6fefd" fill-opacity="0.027451" />
<polygon points="107.000000,14.000000,119.000000,94.000000,97.000000,55.000000," fill="#210602" fill-opacity="0.121569" />
<polygon points="106.000000,249.000000,133.000000,36.000000,115.000000,15.000000," fill="#cb6344" fill-opacity="0.003922" />
<polygon points="224.000000,155.000000,217.000000,183.000000,227.000000,159.000000," fill="#000007" fill-opacity="0.247059" />
<polygon points="235.000000,0.000000,238.000000,256.000000,0.000000,255.000000," fill="#f8f7f8" fill-opacity="0.003922" />
<polygon points="112.000000,7.000000,97.000000,32.000000,97.000000,42.000000," fill="#174084" fill-opacity="0.117647" />
<polygon points="173.000000,123.000000,93.000000,47.000000,104.000000,65.000000," fill="#05011b" fill-opacity="0.090196" />
<polygon points="214.000000,164.000000,217.000000,71.000000,217.000000,144.000000," fill="#090900" fill-opacity="0.054902" />
<polygon points="82.000000,245.000000,235.000000,192.000000,93.000000,204.000000," fill="#13f7f9" fill-opacity="0.003922" />
<polygon points="119.000000,242.000000,98.000000,169.000000,96.000000,234.000000," fill="#0f0ef9" fill-opacity="0.003922" />
<polygon points="46.000000,203.000000,37.000000,218.000000,32.000000,246.000000," fill="#000002" fill-opacity="0.207843" />
<polygon points="38.000000,147.000000,79.000000,0.000000,21.000000,248.000000," fill="#fffdfd" fill-opacity="0.098039" />
<polygon points="169.000000,89.000000,52.000000,221.000000,193.000000,87.000000," fill="#1a191f" fill-opacity="0.003922" />
<polygon points="122.000000,243.000000,111.000000,110.000000,126.000000,43.000000," fill="#bfbbf0" fill-opacity="0.011765" />
<polygon points="96.000000,62.000000,28.000000,145.000000,89.000000,0.000000," fill="#f7fdf9" fill-opacity="0.160784" />
<polygon points="28.000000,219.000000,133.000000,95.000000,88.000000,103.000000," fill="#6f1700" fill-opacity="0.011765" />
<polygon points="64.000000,197.000000,44.000000,190.000000,66.000000,204.000000," fill="#fafcfe" fill-opacity="0.105882" />
<polygon points="111.000000,115.000000,165.000000,112.000000,234.000000,113.000000," fill="#4a422d" fill-opacity="0.239216" />
<polygon points="210.000000,235.000000,172.000000,226.000000,180.000000,233.000000," fill="#fcfcf7" fill-opacity="0.470588" />
<polygon points="205.000000,157.000000,156.000000,186.000000,217.000000,139.000000," fill="#000006" fill-opacity="0.015686" />
<polygon points="160.000000,224.000000,161.000000,172.000000,141.000000,240.000000," fill="#d9bb7f" fill-opacity="0.058824" />
<polygon points="30.000000,229.000000,80.000000,152.000000,103.000000,74.000000," fill="#fff691" fill-opacity="0.027451" />
<polygon points="140.000000,153.000000,65.000000,68.000000,206.000000,201.000000," fill="#1d0746" fill-opacity="0.011765" />
<polygon points="98.000000,123.000000,141.000000,136.000000,163.000000,163.000000," fill="#204026" fill-opacity="0.121569" />
<polygon points="91.000000,87.000000,119.000000,143.000000,85.000000,64.000000," fill="#f6be88" fill-opacity="0.058824" />
<polygon points="205.000000,173.000000,183.000000,182.000000,187.000000,240.000000," fill="#f9f9f7" fill-opacity="0.874510" />
<polygon points="149.000000,177.000000,92.000000,241.000000,68.000000,226.000000," fill="#040100" fill-opacity="0.066667" />
<polygon points="80.000000,161.000000,164.000000,246.000000,190.000000,233.000000," fill="#1ff931" fill-opacity="0.003922" />
<polygon points="163.000000,22.000000,127.000000,252.000000,145.000000,59.000000," fill="#1d1b27" fill-opacity="0.003922" />
<polygon points="82.000000,82.000000,14.000000,216.000000,2.000000,255.000000," fill="#fdfdfc" fill-opacity="0.184314" />
<polygon points="141.000000,86.000000,102.000000,103.000000,209.000000,97.000000," fill="#1e0b1d" fill-opacity="0.019608" />
<polygon points="119.000000,168.000000,41.000000,168.000000,87.000000,158.000000," fill="#ffffff" fill-opacity="0.058824" />
<polygon points="125.000000,250.000000,54.000000,181.000000,76.000000,217.000000," fill="#010204" fill-opacity="0.007843" />
<polygon points="58.000000,58.000000,230.000000,33.000000,172.000000,48.000000," fill="#040ff8" fill-opacity="0.003922" />
<polygon points="44.000000,151.000000,185.000000,209.000000,172.000000,231.000000," fill="#5c5138" fill-opacity="0.003922" />
<polygon points="237.000000,193.000000,222.000000,216.000000,159.000000,185.000000," fill="#787780" fill-opacity="0.007843" />
<polygon points="82.000000,201.000000,84.000000,188.000000,109.000000,214.000000," fill="#fffcff" fill-opacity="0.027451" />
<polygon points="220.000000,179.000000,223.000000,145.000000,193.000000,123.000000," fill="#ffeb21" fill-opacity="0.027451" />
<polygon points="86.000000,196.000000,30.000000,200.000000,143.000000,207.000000," fill="#090d1a" fill-opacity="0.003922" />
<polygon points="120.000000,192.000000,145.000000,63.000000,91.000000,202.000000," fill="#ff5e6f" fill-opacity="0.019608" />
<polygon points="131.000000,115.000000,163.000000,148.000000,91.000000,40.000000," fill="#010003" fill-opacity="0.043137" />
<polygon points="28.000000,186.000000,202.000000,252.000000,114.000000,176.000000," fill="#1d232e" fill-opacity="0.003922" />
<polygon points="201.000000,98.000000,74.000000,90.000000,103.000000,65.000000," fill="#151318" fill-opacity="0.011765" />
<polygon points="119.000000,90.000000,133.000000,163.000000,90.000000,14.000000," fill="#f7fce7" fill-opacity="0.027451" />
<polygon points="217.000000,83.000000,185.000000,172.000000,202.000000,193.000000," fill="#3e3f3f" fill-opacity="0.003922" />
<polygon points="72.000000,252.000000,68.000000,227.000000,38.000000,192.000000," fill="#d3ddff" fill-opacity="0.058824" />
<polygon points="101.000000,68.000000,183.000000,122.000000,216.000000,145.000000," fill="#030311" fill-opacity="0.121569" />
<polygon points="82.000000,57.000000,232.000000,129.000000,235.000000,132.000000," fill="#040013" fill-opacity="0.121569" />
<polygon points="112.000000,35.000000,127.000000,51.000000,116.000000,31.000000," fill="#ffe082" fill-opacity="0.121569" />
<polygon points="152.000000,42.000000,145.000000,60.000000,164.000000,43.000000," fill="#000004" fill-opacity="0.121569" />
<polygon points="54.000000,188.000000,101.000000,139.000000,70.000000,180.000000," fill="#010321" fill-opacity="0.117647" />
<polygon points="238.000000,192.000000,232.000000,56.000000,223.000000,206.000000," fill="#fafaf7" fill-opacity="0.490196" />
<polygon points="112.000000,180.000000,183.000000,191.000000,162.000000,239.000000," fill="#70223a" fill-opacity="0.007843" />
<polygon points="161.000000,217.000000,121.000000,248.000000,194.000000,206.000000," fill="#d9e2d4" fill-opacity="0.043137" />
<polygon points="139.000000,84.000000,98.000000,120.000000,26.000000,240.000000," fill="#046407" fill-opacity="0.003922" />
<polygon points="222.000000,121.000000,235.000000,145.000000,216.000000,121.000000," fill="#060441" fill-opacity="0.086275" />
<polygon points="147.000000,183.000000,134.000000,126.000000,184.000000,240.000000," fill="#401f1a" fill-opacity="0.113725" />
<polygon points="178.000000,233.000000,139.000000,158.000000,175.000000,183.000000," fill="#ffffb0" fill-opacity="0.027451" />
<polygon points="160.000000,42.000000,151.000000,42.000000,147.000000,141.000000," fill="#020020" fill-opacity="0.121569" />
<polygon points="154.000000,243.000000,123.000000,209.000000,106.000000,231.000000," fill="#fffaff" fill-opacity="0.121569" />
<polygon points="208.000000,121.000000,178.000000,98.000000,170.000000,110.000000," fill="#d87e35" fill-opacity="0.121569" />
<polygon points="118.000000,72.000000,117.000000,207.000000,105.000000,196.000000," fill="#d37400" fill-opacity="0.027451" />
<polygon points="71.000000,122.000000,177.000000,123.000000,125.000000,98.000000," fill="#745e47" fill-opacity="0.007843" />
<polygon points="10.000000,240.000000,102.000000,142.000000,22.000000,215.000000," fill="#0f111d" fill-opacity="0.121569" />
<polygon points="180.000000,37.000000,168.000000,58.000000,85.000000,119.000000," fill="#fafdf5" fill-opacity="0.027451" />
<polygon points="133.000000,176.000000,156.000000,235.000000,159.000000,164.000000," fill="#fff9dd" fill-opacity="0.027451" />
<polygon points="151.000000,4.000000,98.000000,109.000000,134.000000,14.000000," fill="#1b0423" fill-opacity="0.011765" />
<polygon points="145.000000,64.000000,168.000000,85.000000,124.000000,250.000000," fill="#1f1f28" fill-opacity="0.003922" />
<polygon points="191.000000,141.000000,179.000000,127.000000,230.000000,240.000000," fill="#2df84d" fill-opacity="0.003922" />
<polygon points="67.000000,201.000000,57.000000,156.000000,73.000000,157.000000," fill="#000001" fill-opacity="0.247059" />
<polygon points="47.000000,134.000000,35.000000,149.000000,105.000000,166.000000," fill="#fffef8" fill-opacity="0.058824" />
<polygon points="83.000000,241.000000,98.000000,246.000000,79.000000,233.000000," fill="#fffcda" fill-opacity="0.200000" />
<polygon points="138.000000,124.000000,126.000000,44.000000,101.000000,164.000000," fill="#fcebcb" fill-opacity="0.007843" />
<polygon points="162.000000,157.000000,107.000000,118.000000,149.000000,251.000000," fill="#100b44" fill-opacity="0.011765" />
<polygon points="128.000000,130.000000,197.000000,82.000000,146.000000,152.000000," fill="#0f1022" fill-opacity="0.003922" />
<polygon points="101.000000,59.000000,74.000000,38.000000,59.000000,91.000000," fill="#fbfbfb" fill-opacity="0.494118" />
<polygon points="156.000000,79.000000,151.000000,104.000000,133.000000,4.000000," fill="#030826" fill-opacity="0.058824" />
<polygon points="112.000000,14.000000,125.000000,7.000000,145.000000,45.000000," fill="#01032a" fill-opacity="0.043137" />
<polygon points="135.000000,152.000000,115.000000,186.000000,158.000000,153.000000," fill="#f3ba7f" fill-opacity="0.058824" />
<polygon points="63.000000,229.000000,84.000000,220.000000,165.000000,47.000000," fill="#1a2221" fill-opacity="0.066667" />
<polygon points="157.000000,241.000000,144.000000,211.000000,189.000000,209.000000," fill="#576710" fill-opacity="0.015686" />
<polygon points="133.000000,56.000000,181.000000,94.000000,152.000000,135.000000," fill="#01001b" fill-opacity="0.117647" />
<polygon points="122.000000,141.000000,133.000000,161.000000,182.000000,196.000000," fill="#221824" fill-opacity="0.070588" />
<polygon points="66.000000,150.000000,126.000000,82.000000,44.000000,229.000000," fill="#72eb26" fill-opacity="0.003922" />
<polygon points="158.000000,159.000000,129.000000,69.000000,70.000000,254.000000," fill="#7a5841" fill-opacity="0.003922" />
<polygon points="191.000000,89.000000,198.000000,93.000000,190.000000,85.000000," fill="#000000" fill-opacity="0.247059" />
<polygon points="142.000000,44.000000,120.000000,74.000000,140.000000,56.000000," fill="#fefff7" fill-opacity="0.105882" />
<polygon points="108.000000,148.000000,34.000000,153.000000,221.000000,148.000000," fill="#fffffd" fill-opacity="0.027451" />
<polygon points="167.000000,141.000000,112.000000,140.000000,97.000000,249.000000," fill="#0a0ae1" fill-opacity="0.003922" />
<polygon points="89.000000,67.000000,16.000000,248.000000,97.000000,75.000000," fill="#0a06f8" fill-opacity="0.003922" />
<polygon points="51.000000,48.000000,225.000000,72.000000,146.000000,68.000000," fill="#5f4f41" fill-opacity="0.003922" />
<polygon points="98.000000,166.000000,108.000000,154.000000,179.000000,117.000000," fill="#e7e6a2" fill-opacity="0.039216" />
<polygon points="148.000000,200.000000,55.000000,54.000000,119.000000,161.000000," fill="#f7edf4" fill-opacity="0.027451" />
<polygon points="101.000000,112.000000,119.000000,210.000000,104.000000,51.000000," fill="#000003" fill-opacity="0.043137" />
<polygon points="232.000000,241.000000,207.000000,0.000000,225.000000,200.000000," fill="#ffffff" fill-opacity="0.117647" />
<polygon points="128.000000,33.000000,152.000000,85.000000,148.000000,66.000000," fill="#fffedc" fill-opacity="0.058824" />
<polygon points="219.000000,144.000000,230.000000,137.000000,60.000000,53.000000," fill="#000c00" fill-opacity="0.023529" />
<polygon points="133.000000,65.000000,82.000000,23.000000,138.000000,82.000000," fill="#001e24" fill-opacity="0.003922" />
<polygon points="207.000000,153.000000,155.000000,176.000000,186.000000,168.000000," fill="#000006" fill-opacity="0.027451" />
<polygon points="104.000000,196.000000,99.000000,169.000000,76.000000,197.000000," fill="#181e2b" fill-opacity="0.250980" />
<polygon points="144.000000,185.000000,78.000000,106.000000,170.000000,211.000000," fill="#050801" fill-opacity="0.066667" />
<polygon points="93.000000,156.000000,82.000000,160.000000,83.000000,103.000000," fill="#363010" fill-opacity="0.121569" />
<polygon points="105.000000,65.000000,113.000000,177.000000,190.000000,216.000000," fill="#e5e046" fill-opacity="0.003922" />
</svg>