<svg viewBox="0 0 238 256" xmlns="http://www.w3.org/2000/svg">
<rect width="238" height="256" fill="#000000" fill-opacity="1"/>
<polygon points="0.000000,0.000000,238.000000,256.000000,0.000000,256.000000," fill="#eff6f7" fill-opacity="1.000000" />
<polygon points="0.000000,0.000000,238.000000,256.000000,238.000000,0.000000," fill="#fdfdfe" fill-opacity="0.980392" />
<polygon points="75.000000,97.000000,231.000000,136.000000,119.000000,4.000000," fill="#805f3f" fill-opacity="0.862745" />
<polygon points="22.000000,223.000000,136.000000,14.000000,179.000000,217.000000," fill="#474444" fill-opacity="0.819608" />
<polygon points="180.000000,239.000000,7.000000,238.000000,149.000000,55.000000," fill="#403740" fill-opacity="1.000000" />
<polygon points="58.000000,243.000000,105.000000,137.000000,21.000000,251.000000," fill="#f3eff7" fill-opacity="0.988235" />
<polygon points="148.000000,228.000000,217.000000,110.000000,225.000000,172.000000," fill="#0c0418" fill-opacity="0.309804" />
<polygon points="212.000000,193.000000,189.000000,117.000000,232.000000,151.000000," fill="#010020" fill-opacity="0.525490" />
<polygon points="187.000000,63.000000,140.000000,224.000000,142.000000,32.000000," fill="#060909" fill-opacity="0.439216" />
<polygon points="73.000000,121.000000,107.000000,11.000000,194.000000,120.000000," fill="#24222f" fill-opacity="0.498039" />
<polygon points="91.000000,254.000000,145.000000,239.000000,132.000000,197.000000," fill="#f8f7f7" fill-opacity="1.000000" />
<polygon points="218.000000,192.000000,113.000000,82.000000,151.000000,233.000000," fill="#fdfff4" fill-opacity="0.184314" />
<polygon points="71.000000,180.000000,105.000000,169.000000,106.000000,129.000000," fill="#fffeff" fill-opacity="0.498039" />
<polygon points="84.000000,241.000000,47.000000,189.000000,215.000000,148.000000," fill="#000000" fill-opacity="0.207843" />
<polygon points="157.000000,35.000000,111.000000,187.000000,107.000000,33.000000," fill="#fef098" fill-opacity="0.247059" />
<polygon points="235.000000,2.000000,231.000000,163.000000,211.000000,147.000000," fill="#ffffff" fill-opacity="0.498039" />
<polygon points="167.000000,140.000000,142.000000,181.000000,186.000000,249.000000," fill="#fdfcbf" fill-opacity="0.247059" />
<polygon points="109.000000,130.000000,73.000000,241.000000,195.000000,84.000000," fill="#20111f" fill-opacity="0.498039" />
<polygon points="131.000000,130.000000,118.000000,231.000000,60.000000,47.000000," fill="#bbbf7e" fill-opacity="0.247059" />
<polygon points="105.000000,153.000000,175.000000,130.000000,96.000000,15.000000," fill="#030205" fill-opacity="0.247059" />
<polygon points="155.000000,68.000000,120.000000,0.000000,235.000000,138.000000," fill="#7e7f77" fill-opacity="0.494118" />
<polygon points="135.000000,40.000000,89.000000,160.000000,33.000000,195.000000," fill="#18141c" fill-opacity="0.478431" />
<polygon points="97.000000,159.000000,1.000000,137.000000,115.000000,96.000000," fill="#fdfefd" fill-opacity="0.121569" />
<polygon points="233.000000,199.000000,198.000000,256.000000,155.000000,144.000000," fill="#ffffff" fill-opacity="0.498039" />
<polygon points="181.000000,193.000000,182.000000,253.000000,172.000000,175.000000," fill="#706e81" fill-opacity="0.341176" />
<polygon points="94.000000,27.000000,227.000000,136.000000,216.000000,161.000000," fill="#230708" fill-opacity="0.121569" />
<polygon points="83.000000,73.000000,76.000000,95.000000,179.000000,48.000000," fill="#000209" fill-opacity="0.247059" />
<polygon points="48.000000,103.000000,106.000000,55.000000,1.000000,52.000000," fill="#f9fafb" fill-opacity="0.749020" />
<polygon points="164.000000,27.000000,189.000000,96.000000,192.000000,63.000000," fill="#fffeff" fill-opacity="0.498039" />
<polygon points="119.000000,67.000000,133.000000,40.000000,202.000000,89.000000," fill="#feffef" fill-opacity="0.121569" />
<polygon points="116.000000,8.000000,188.000000,73.000000,95.000000,32.000000," fill="#130800" fill-opacity="0.243137" />
<polygon points="36.000000,246.000000,129.000000,88.000000,86.000000,188.000000," fill="#ffffff" fill-opacity="0.247059" />
<polygon points="165.000000,93.000000,227.000000,126.000000,221.000000,168.000000," fill="#7f863f" fill-opacity="0.247059" />
<polygon points="2.000000,245.000000,120.000000,69.000000,163.000000,41.000000," fill="#000006" fill-opacity="0.231373" />
<polygon points="119.000000,59.000000,195.000000,249.000000,119.000000,201.000000," fill="#584004" fill-opacity="0.121569" />
<polygon points="31.000000,108.000000,150.000000,80.000000,134.000000,127.000000," fill="#feba7f" fill-opacity="0.121569" />
<polygon points="44.000000,173.000000,113.000000,108.000000,21.000000,255.000000," fill="#0a0203" fill-opacity="0.250980" />
<polygon points="77.000000,96.000000,141.000000,156.000000,77.000000,121.000000," fill="#413334" fill-opacity="0.498039" />
<polygon points="26.000000,145.000000,157.000000,155.000000,127.000000,176.000000," fill="#fdffce" fill-opacity="0.121569" />
<polygon points="29.000000,198.000000,172.000000,180.000000,177.000000,211.000000," fill="#201220" fill-opacity="0.247059" />
<polygon points="99.000000,136.000000,166.000000,136.000000,201.000000,111.000000," fill="#f7fdd1" fill-opacity="0.137255" />
<polygon points="0.000000,0.000000,1.000000,250.000000,79.000000,122.000000," fill="#fefafb" fill-opacity="0.498039" />
<polygon points="145.000000,209.000000,175.000000,228.000000,134.000000,173.000000," fill="#fcfebe" fill-opacity="0.121569" />
<polygon points="233.000000,122.000000,115.000000,52.000000,157.000000,88.000000," fill="#00000f" fill-opacity="0.184314" />
<polygon points="62.000000,230.000000,161.000000,53.000000,161.000000,192.000000," fill="#030000" fill-opacity="0.121569" />
<polygon points="210.000000,228.000000,75.000000,191.000000,146.000000,150.000000," fill="#c37943" fill-opacity="0.058824" />
<polygon points="95.000000,95.000000,103.000000,1.000000,126.000000,195.000000," fill="#020100" fill-opacity="0.121569" />
<polygon points="77.000000,163.000000,63.000000,216.000000,96.000000,162.000000," fill="#feffff" fill-opacity="0.498039" />
<polygon points="59.000000,225.000000,137.000000,191.000000,144.000000,202.000000," fill="#000a1a" fill-opacity="0.498039" />
<polygon points="182.000000,90.000000,116.000000,1.000000,138.000000,187.000000," fill="#000000" fill-opacity="0.121569" />
<polygon points="63.000000,19.000000,166.000000,6.000000,115.000000,0.000000," fill="#f7f7f9" fill-opacity="0.886275" />
<polygon points="140.000000,15.000000,147.000000,51.000000,152.000000,39.000000," fill="#feffff" fill-opacity="0.498039" />
<polygon points="120.000000,0.000000,164.000000,29.000000,91.000000,24.000000," fill="#f8feff" fill-opacity="0.121569" />
<polygon points="193.000000,22.000000,118.000000,111.000000,42.000000,167.000000," fill="#ffd882" fill-opacity="0.121569" />
<polygon points="107.000000,36.000000,148.000000,31.000000,132.000000,69.000000," fill="#bf7f4a" fill-opacity="0.372549" />
<polygon points="18.000000,247.000000,161.000000,60.000000,90.000000,137.000000," fill="#000000" fill-opacity="0.121569" />
<polygon points="122.000000,79.000000,142.000000,89.000000,133.000000,127.000000," fill="#fccd82" fill-opacity="0.121569" />
<polygon points="115.000000,153.000000,148.000000,156.000000,75.000000,227.000000," fill="#bc9f5f" fill-opacity="0.117647" />
<polygon points="153.000000,117.000000,55.000000,241.000000,88.000000,173.000000," fill="#02031d" fill-opacity="0.121569" />
<polygon points="215.000000,109.000000,187.000000,132.000000,147.000000,20.000000," fill="#7dbec0" fill-opacity="0.058824" />
<polygon points="0.000000,126.000000,85.000000,57.000000,63.000000,157.000000," fill="#f8f8f9" fill-opacity="0.866667" />
<polygon points="4.000000,139.000000,75.000000,256.000000,80.000000,238.000000," fill="#fffefc" fill-opacity="0.243137" />
<polygon points="129.000000,42.000000,12.000000,239.000000,34.000000,239.000000," fill="#000001" fill-opacity="0.247059" />
<polygon points="56.000000,147.000000,59.000000,114.000000,161.000000,251.000000," fill="#ffffff" fill-opacity="0.058824" />
<polygon points="194.000000,169.000000,219.000000,103.000000,182.000000,109.000000," fill="#09050d" fill-opacity="0.058824" />
<polygon points="59.000000,178.000000,12.000000,226.000000,72.000000,190.000000," fill="#102020" fill-opacity="0.498039" />
<polygon points="219.000000,134.000000,143.000000,218.000000,202.000000,142.000000," fill="#050200" fill-opacity="0.121569" />
<polygon points="75.000000,129.000000,172.000000,140.000000,24.000000,80.000000," fill="#ffffb6" fill-opacity="0.058824" />
<polygon points="178.000000,221.000000,146.000000,239.000000,148.000000,161.000000," fill="#937815" fill-opacity="0.121569" />
<polygon points="60.000000,233.000000,108.000000,241.000000,101.000000,162.000000," fill="#000000" fill-opacity="0.121569" />
<polygon points="80.000000,97.000000,134.000000,39.000000,74.000000,86.000000," fill="#00031f" fill-opacity="0.211765" />
<polygon points="189.000000,190.000000,238.000000,194.000000,148.000000,154.000000," fill="#ffffff" fill-opacity="0.372549" />
</svg>