<svg viewBox="0 0 228 228" xmlns="http://www.w3.org/2000/svg">
<rect width="228" height="228" fill="#000000" fill-opacity="1"/>
<polygon points="228.000000,228.000000,228.000000,0.000000,0.000000,0.000000," fill="#c07f5d" fill-opacity="0.686275" />
<polygon points="0.000000,1.000000,227.000000,228.000000,0.000000,214.000000," fill="#7f6040" fill-opacity="0.819608" />
<polygon points="59.000000,201.000000,171.000000,200.000000,155.000000,63.000000," fill="#000000" fill-opacity="0.498039" />
<polygon points="228.000000,0.000000,114.000000,28.000000,228.000000,218.000000," fill="#ffffcb" fill-opacity="0.247059" />
<polygon points="0.000000,228.000000,0.000000,10.000000,67.000000,185.000000," fill="#ddc092" fill-opacity="0.247059" />
<polygon points="143.000000,171.000000,212.000000,215.000000,195.000000,143.000000," fill="#c8a97f" fill-opacity="0.498039" />
<polygon points="62.000000,226.000000,57.000000,13.000000,193.000000,132.000000," fill="#460301" fill-opacity="0.203922" />
<polygon points="165.000000,106.000000,157.000000,182.000000,56.000000,99.000000," fill="#402118" fill-opacity="0.964706" />
<polygon points="0.000000,197.000000,127.000000,147.000000,15.000000,11.000000," fill="#fe7e6f" fill-opacity="0.121569" />
<polygon points="121.000000,3.000000,228.000000,85.000000,51.000000,106.000000," fill="#fcb675" fill-opacity="0.121569" />
<polygon points="114.000000,161.000000,2.000000,228.000000,216.000000,228.000000," fill="#302012" fill-opacity="0.992157" />
<polygon points="26.000000,222.000000,71.000000,182.000000,28.000000,116.000000," fill="#f4d3ba" fill-opacity="0.121569" />
<polygon points="154.000000,215.000000,100.000000,13.000000,190.000000,107.000000," fill="#803e24" fill-opacity="0.470588" />
<polygon points="171.000000,169.000000,167.000000,90.000000,177.000000,57.000000," fill="#f0bb8a" fill-opacity="0.498039" />
<polygon points="63.000000,16.000000,42.000000,171.000000,142.000000,0.000000," fill="#1b0000" fill-opacity="0.121569" />
<polygon points="115.000000,116.000000,56.000000,164.000000,116.000000,155.000000," fill="#fe7f39" fill-opacity="0.121569" />
<polygon points="214.000000,134.000000,130.000000,29.000000,228.000000,86.000000," fill="#fef0c0" fill-opacity="0.121569" />
<polygon points="228.000000,2.000000,187.000000,87.000000,151.000000,17.000000," fill="#412e31" fill-opacity="0.133333" />
<polygon points="128.000000,178.000000,9.000000,199.000000,7.000000,175.000000," fill="#fdc27d" fill-opacity="0.101961" />
<polygon points="183.000000,134.000000,191.000000,114.000000,106.000000,60.000000," fill="#230a07" fill-opacity="0.266667" />
<polygon points="228.000000,152.000000,178.000000,143.000000,172.000000,185.000000," fill="#ffe0af" fill-opacity="0.207843" />
<polygon points="30.000000,72.000000,117.000000,113.000000,136.000000,7.000000," fill="#ed7f41" fill-opacity="0.121569" />
<polygon points="126.000000,25.000000,163.000000,36.000000,145.000000,70.000000," fill="#ffefcc" fill-opacity="0.247059" />
<polygon points="71.000000,212.000000,202.000000,53.000000,114.000000,57.000000," fill="#020302" fill-opacity="0.058824" />
<polygon points="43.000000,42.000000,100.000000,0.000000,138.000000,30.000000," fill="#060000" fill-opacity="0.121569" />
<polygon points="81.000000,1.000000,28.000000,87.000000,0.000000,0.000000," fill="#29fffd" fill-opacity="0.058824" />
<polygon points="73.000000,80.000000,228.000000,72.000000,214.000000,106.000000," fill="#fffdf2" fill-opacity="0.058824" />
<polygon points="79.000000,25.000000,54.000000,99.000000,179.000000,79.000000," fill="#985e40" fill-opacity="0.247059" />
<polygon points="128.000000,0.000000,68.000000,17.000000,183.000000,225.000000," fill="#000400" fill-opacity="0.058824" />
<polygon points="226.000000,0.000000,172.000000,14.000000,56.000000,0.000000," fill="#9cbca0" fill-opacity="0.207843" />
<polygon points="54.000000,104.000000,197.000000,110.000000,48.000000,117.000000," fill="#010001" fill-opacity="0.247059" />
<polygon points="68.000000,145.000000,171.000000,160.000000,175.000000,114.000000," fill="#ffffac" fill-opacity="0.058824" />
<polygon points="69.000000,199.000000,78.000000,214.000000,77.000000,114.000000," fill="#f77f59" fill-opacity="0.243137" />
<polygon points="43.000000,207.000000,0.000000,4.000000,49.000000,28.000000," fill="#846f58" fill-opacity="0.498039" />
<polygon points="49.000000,46.000000,50.000000,100.000000,64.000000,29.000000," fill="#010000" fill-opacity="0.247059" />
<polygon points="225.000000,76.000000,137.000000,214.000000,146.000000,222.000000," fill="#f3b48b" fill-opacity="0.160784" />
<polygon points="22.000000,224.000000,55.000000,196.000000,6.000000,222.000000," fill="#fec285" fill-opacity="0.215686" />
<polygon points="114.000000,226.000000,42.000000,139.000000,228.000000,121.000000," fill="#010100" fill-opacity="0.058824" />
<polygon points="0.000000,114.000000,36.000000,107.000000,0.000000,196.000000," fill="#fdf4bc" fill-opacity="0.117647" />
<polygon points="169.000000,190.000000,162.000000,18.000000,180.000000,190.000000," fill="#f5be96" fill-opacity="0.184314" />
<polygon points="150.000000,226.000000,186.000000,93.000000,189.000000,114.000000," fill="#210100" fill-opacity="0.200000" />
<polygon points="128.000000,13.000000,111.000000,164.000000,74.000000,57.000000," fill="#8f5e3f" fill-opacity="0.247059" />
<polygon points="0.000000,10.000000,14.000000,119.000000,28.000000,86.000000," fill="#00213e" fill-opacity="0.058824" />
<polygon points="0.000000,197.000000,40.000000,99.000000,60.000000,198.000000," fill="#ddc57f" fill-opacity="0.121569" />
<polygon points="142.000000,184.000000,46.000000,228.000000,0.000000,204.000000," fill="#020001" fill-opacity="0.223529" />
<polygon points="32.000000,221.000000,0.000000,219.000000,131.000000,75.000000," fill="#f99a3f" fill-opacity="0.058824" />
<polygon points="156.000000,16.000000,187.000000,85.000000,143.000000,99.000000," fill="#f58d3f" fill-opacity="0.121569" />
<polygon points="114.000000,72.000000,38.000000,105.000000,55.000000,161.000000," fill="#801601" fill-opacity="0.101961" />
<polygon points="135.000000,103.000000,128.000000,142.000000,154.000000,171.000000," fill="#fe9d70" fill-opacity="0.121569" />
<polygon points="168.000000,53.000000,34.000000,228.000000,144.000000,224.000000," fill="#07030c" fill-opacity="0.058824" />
<polygon points="141.000000,189.000000,26.000000,34.000000,129.000000,0.000000," fill="#2f000e" fill-opacity="0.011765" />
<polygon points="143.000000,179.000000,100.000000,175.000000,89.000000,187.000000," fill="#fc775b" fill-opacity="0.184314" />
<polygon points="85.000000,225.000000,70.000000,200.000000,114.000000,228.000000," fill="#ff7f63" fill-opacity="0.184314" />
<polygon points="125.000000,115.000000,146.000000,136.000000,171.000000,120.000000," fill="#fbffcb" fill-opacity="0.058824" />
<polygon points="80.000000,70.000000,100.000000,161.000000,63.000000,156.000000," fill="#fdee98" fill-opacity="0.043137" />
<polygon points="29.000000,228.000000,187.000000,226.000000,125.000000,27.000000," fill="#131502" fill-opacity="0.003922" />
<polygon points="13.000000,63.000000,177.000000,21.000000,104.000000,2.000000," fill="#3d1601" fill-opacity="0.090196" />
<polygon points="165.000000,60.000000,142.000000,18.000000,63.000000,35.000000," fill="#ffaa8f" fill-opacity="0.054902" />
</svg>