<svg viewBox="0 0 228 228" xmlns="http://www.w3.org/2000/svg">
<rect width="228" height="228" fill="#000000" fill-opacity="1"/>
<polygon points="228.000000,228.000000,228.000000,0.000000,0.000000,0.000000," fill="#c07f5f" fill-opacity="0.686275" />
<polygon points="0.000000,1.000000,227.000000,228.000000,0.000000,214.000000," fill="#7f6040" fill-opacity="0.827451" />
<polygon points="57.000000,201.000000,171.000000,201.000000,156.000000,63.000000," fill="#000000" fill-opacity="0.498039" />
<polygon points="228.000000,0.000000,114.000000,28.000000,228.000000,218.000000," fill="#ffffc9" fill-opacity="0.247059" />
<polygon points="0.000000,228.000000,0.000000,9.000000,67.000000,185.000000," fill="#d9c59e" fill-opacity="0.247059" />
<polygon points="143.000000,171.000000,212.000000,215.000000,194.000000,143.000000," fill="#c8a97f" fill-opacity="0.498039" />
<polygon points="60.000000,210.000000,57.000000,13.000000,197.000000,133.000000," fill="#4a0100" fill-opacity="0.203922" />
<polygon points="165.000000,106.000000,158.000000,182.000000,56.000000,99.000000," fill="#402519" fill-opacity="0.760784" />
<polygon points="0.000000,197.000000,127.000000,147.000000,15.000000,13.000000," fill="#ff7f6f" fill-opacity="0.121569" />
<polygon points="121.000000,6.000000,228.000000,85.000000,51.000000,106.000000," fill="#fdb560" fill-opacity="0.121569" />
<polygon points="114.000000,162.000000,1.000000,228.000000,218.000000,228.000000," fill="#302012" fill-opacity="0.992157" />
<polygon points="25.000000,223.000000,71.000000,182.000000,26.000000,114.000000," fill="#fbdfb8" fill-opacity="0.121569" />
<polygon points="154.000000,215.000000,100.000000,13.000000,190.000000,107.000000," fill="#803f27" fill-opacity="0.494118" />
<polygon points="171.000000,169.000000,166.000000,92.000000,177.000000,57.000000," fill="#f7be8c" fill-opacity="0.498039" />
<polygon points="57.000000,14.000000,42.000000,171.000000,141.000000,4.000000," fill="#1b0200" fill-opacity="0.121569" />
<polygon points="114.000000,114.000000,53.000000,162.000000,116.000000,156.000000," fill="#ff7f3f" fill-opacity="0.121569" />
<polygon points="213.000000,132.000000,129.000000,29.000000,228.000000,86.000000," fill="#fef0c4" fill-opacity="0.121569" />
<polygon points="228.000000,2.000000,187.000000,87.000000,153.000000,17.000000," fill="#412e1d" fill-opacity="0.133333" />
<polygon points="139.000000,178.000000,10.000000,199.000000,0.000000,172.000000," fill="#fec17b" fill-opacity="0.121569" />
<polygon points="184.000000,135.000000,191.000000,114.000000,106.000000,60.000000," fill="#260f03" fill-opacity="0.266667" />
<polygon points="228.000000,152.000000,178.000000,144.000000,172.000000,185.000000," fill="#f6e0ac" fill-opacity="0.207843" />
<polygon points="42.000000,74.000000,114.000000,114.000000,135.000000,8.000000," fill="#ef7941" fill-opacity="0.121569" />
<polygon points="125.000000,25.000000,163.000000,36.000000,145.000000,70.000000," fill="#ffdfca" fill-opacity="0.247059" />
<polygon points="71.000000,207.000000,202.000000,53.000000,114.000000,57.000000," fill="#040501" fill-opacity="0.058824" />
<polygon points="43.000000,42.000000,101.000000,0.000000,141.000000,31.000000," fill="#070002" fill-opacity="0.121569" />
<polygon points="78.000000,1.000000,28.000000,86.000000,0.000000,0.000000," fill="#29fffc" fill-opacity="0.058824" />
<polygon points="75.000000,80.000000,228.000000,72.000000,213.000000,106.000000," fill="#fffdfc" fill-opacity="0.058824" />
<polygon points="80.000000,25.000000,54.000000,93.000000,179.000000,79.000000," fill="#985f41" fill-opacity="0.247059" />
<polygon points="128.000000,0.000000,68.000000,17.000000,183.000000,226.000000," fill="#030400" fill-opacity="0.058824" />
<polygon points="226.000000,0.000000,172.000000,14.000000,56.000000,0.000000," fill="#9cbea0" fill-opacity="0.200000" />
<polygon points="56.000000,104.000000,197.000000,110.000000,42.000000,117.000000," fill="#000200" fill-opacity="0.247059" />
<polygon points="97.000000,145.000000,171.000000,160.000000,175.000000,110.000000," fill="#fafcbd" fill-opacity="0.043137" />
<polygon points="69.000000,199.000000,78.000000,214.000000,78.000000,106.000000," fill="#da7f49" fill-opacity="0.243137" />
<polygon points="43.000000,147.000000,0.000000,3.000000,49.000000,28.000000," fill="#826f58" fill-opacity="0.498039" />
</svg>