<?xml version="1.0" encoding="iso-8859-1"?>
<!-- Generator: Adobe Illustrator 19.0.0, SVG Export Plug-In . SVG Version: 6.00 Build 0)
Icon made by Freepik from www.flaticon.com -->
<svg version="1.1" id="Capa_1" xmlns="http://www.w3.org/2000/svg" xmlns:xlink="http://www.w3.org/1999/xlink" x="0px" y="0px"
	 viewBox="0 0 433.016 433.016" style="enable-background:new 0 0 433.016 433.016;" xml:space="preserve">
<path style="fill:#CDDCF0;" d="M115.82,284.748c-63.608-0.648-82.472,1.784-103.152,22.464c-6.248,6.248-6.256,16.376,0,22.624
	s16.376,6.248,22.624,0c11.896-11.896,24.24-13.656,80.96-13.08C116.148,305.588,115.988,295.548,115.82,284.748z"/>
<g>
	<path style="fill:#3A71B2;" d="M317.164,148.3c55.952,0.52,82.688-1.992,103.168-22.472c6.248-6.248,6.256-16.376,0-22.624
		s-16.376-6.248-22.624,0c-11.68,11.68-29.784,13.56-80.984,13.08C316.804,125.74,316.964,136.404,317.164,148.3z"/>
	<path style="fill:#3A71B2;" d="M171.332,171.428c27.32-27.32,76.512-24.16,113.808-23.576c-0.208-11.648-0.376-22.288-0.464-32.008
		c-39.624-0.624-98.608-4.408-135.968,32.952c-64.656,64.656-9.224,212.632-45.528,248.928c-6.248,6.248-6.256,16.376,0,22.624
		s16.376,6.248,22.624,0C177.116,369.044,118.324,224.428,171.332,171.428z"/>
</g>
<path style="fill:#CDDCF0;" d="M317.58,173.74c-1.536-97.208-3.08-123.096,12.248-138.424c6.248-6.248,6.256-16.376,0-22.624
	s-16.376-6.248-22.624,0c-26.176,26.176-23.176,61.952-21.616,161.488c0.592,42.744-7.024,70.552-23.984,87.512
	c-27.2,27.192-76.232,24.072-113.776,23.504c0.168,10.984,0.328,20.448,0.448,32.008c39.792,0.608,98.696,4.368,135.952-32.888
	C307.7,260.844,318.3,225.7,317.58,173.74z"/>
<path style="fill:#7BC24D;" d="M275.612,240.356c4.272-9.872,7.176-21.616,8.68-35.608c-20.72-20.72-41.584-41.584-67.104-67.096
	c-6.256-6.256-16.376-6.248-22.624,0s-6.256,16.376,0,22.624c29.952,29.952,52.912,52.912,78.176,78.176
	C273.596,239.3,274.644,239.74,275.612,240.356z"/>
<path style="fill:#5886C5;" d="M148.796,227.644c8.08,8.08,61.248,61.248,68.96,68.96c6.256,6.256,16.376,6.248,22.624,0
	s6.256-16.376,0-22.624l-82.456-82.472C153.436,201.452,150.388,213.364,148.796,227.644z"/>
<path style="fill:#C64047;" d="M115.012,340.94l-41.328-41.328c-6.256-6.256-16.376-6.248-22.624,0s-6.256,16.376,0,22.624
	l59.848,59.848C113.716,373.684,114.796,361.548,115.012,340.94z"/>
<path style="fill:#FDDA5F;" d="M318.932,92.308l38.944,38.944c6.256,6.256,16.376,6.248,22.624,0s6.256-16.376,0-22.624
	l-58.392-58.392C319.868,59.356,319.044,72.476,318.932,92.308z"/>
<path style="fill:#010101;" d="M289.884,289.972c25.104-25.104,36.44-62.072,35.696-116.344l-0.288-17.312
	c51.104,0.176,78.816-2.952,100.704-24.832c9.36-9.36,9.36-24.584,0-33.944s-24.584-9.36-33.944,0
	c-1.832,1.832-4.032,3.352-6.664,4.648l-54.576-54.584c1.296-2.592,2.824-4.784,4.68-6.64c9.36-9.36,9.36-24.584,0-33.944
	s-24.584-9.36-33.944,0c-21.216,21.216-24.952,48.064-24.864,100.664c-40.744-0.824-96.352-1.84-133.632,35.44
	c-33.016,33.016-36.736,84.088-35.88,133.584c-55.992-0.328-77.68,2.368-100.152,24.84c-9.36,9.36-9.36,24.584,0,33.944
	s24.584,9.36,33.944,0c2.072-2.072,4.24-3.744,6.912-5.144l54.44,54.44c-1.344,2.824-2.872,5.352-4.784,7.264
	c-9.36,9.36-9.36,24.584,0,33.944c9.36,9.36,24.584,9.36,33.944,0c22.656-22.656,25.712-60.68,25.192-100.648
	C197.38,326.164,252.804,327.052,289.884,289.972z M156.34,309.356c-0.328-10.952-0.248-7.08-0.352-16.008
	c14.584,0.288,30.536,0.44,46.248-0.968l9.88,9.88c1.848,1.848,3.968,3.224,6.192,4.344C196.9,310.1,174.932,309.716,156.34,309.356
	z M155.388,277.34c-0.248-10.768-0.272-21.392,0.168-31.624l31.488,31.48C175.292,277.588,166.372,277.516,155.388,277.34z
	 M223.42,290.948l-66.032-66.032c0.896-6.616,2.088-12.96,3.784-18.84l73.56,73.56c3.112,3.112,3.12,8.192,0,11.312
	C231.612,294.068,226.532,294.06,223.42,290.948z M275.852,207.612c-0.896,6.88-2.12,13.208-3.744,18.88l-71.88-71.88
	c-3.112-3.112-3.12-8.192,0-11.312s8.2-3.112,11.312,0L275.852,207.612z M246.652,155.788c10.256-0.304,20.48-0.288,30.032-0.096
	l0.576,0.008c0.2,11.88,0.48,20.712,0.2,30.896L246.652,155.788z M190.508,167.524l75.208,75.208
	c-2.76,5.112-6.008,9.544-9.776,13.304c-3.76,3.76-8.208,6.68-12.912,9.256l-75.264-75.264c2.592-4.776,5.512-9.24,9.224-12.952
	C180.908,173.164,185.572,170.164,190.508,167.524z M325.044,140.356c-0.176-10.592-0.128-9.016-0.224-16.016
	c5.352,0.024,10.192-0.008,14.752-0.08l12.648,12.648c1.072,1.08,2.248,1.992,3.456,2.824
	C346.756,140.196,336.74,140.388,325.044,140.356z M403.364,108.852c3.12-3.12,8.2-3.112,11.312,0s3.12,8.192,0,11.312
	c-7.384,7.384-15.904,12.088-27.232,15.16c4.584-5.448,6.408-12.392,5.384-19.056C396.74,114.26,400.292,111.932,403.364,108.852z
	 M374.852,114.276c3.12,3.112,3.12,8.192,0,11.312s-8.2,3.112-11.312,0l-38.72-38.72c0.208-8.496,0.632-15.464,1.336-21.296
	L374.852,114.276z M312.852,18.348c3.12-3.12,8.2-3.12,11.312,0c3.12,3.112,3.12,8.192,0,11.312
	c-40.432,40.44,16.984,186.416-45.6,249c-8.544,8.544-18.48,14.664-29.112,19.184c3.6-5.848,4.408-12.872,2.528-19.312
	c5.472-3.112,10.704-6.624,15.272-11.184C323.348,211.26,265.276,65.924,312.852,18.348z M276.748,123.7
	c0,0.04,0.224,14.664,0.24,16c-14.368-0.288-30.048-0.44-45.528,0.896l-8.608-8.608c-2.544-2.544-5.544-4.336-8.72-5.496
	C235.74,122.884,257.956,123.316,276.748,123.7z M107.548,292.34c0.136,4.296,0.416,12.584,0.544,16.008
	c-4.776,0.008-9.584,0.104-14.128,0.232c-2.712-2.712-13.224-13.352-15.96-15.712C86.46,292.476,96.148,292.308,107.548,292.34z
	 M29.644,324.188c-3.12,3.12-8.2,3.112-11.312,0c-3.12-3.112-3.12-8.192,0-11.312c6.984-6.984,14.072-11.664,23.832-14.832
	c-3.632,5.696-4.552,12.568-2.904,18.92C35.812,318.932,32.62,321.204,29.644,324.188z M56.716,316.58
	c-3.112-3.112-3.12-8.192,0-11.312c3.12-3.12,8.2-3.112,11.312,0l40.688,40.688c-0.168,7.648-0.664,14.688-1.568,21.056
	L56.716,316.58z M120.148,414.7c-3.12,3.12-8.2,3.112-11.312,0s-3.12-8.192,0-11.312c40.336-40.336-16.56-186.84,45.528-248.928
	c9.6-9.6,20.976-16.032,33.072-20.656c-4.696,5.72-6.44,13.048-5.048,19.952c-6.016,3.288-11.744,7.056-16.72,12.024
	C109.628,221.82,167.604,367.244,120.148,414.7z"/>
<g>
</g>
<g>
</g>
<g>
</g>
<g>
</g>
<g>
</g>
<g>
</g>
<g>
</g>
<g>
</g>
<g>
</g>
<g>
</g>
<g>
</g>
<g>
</g>
<g>
</g>
<g>
</g>
<g>
</g>
</svg>
